M48
;DRILL file {Pcbnew (2013-07-07 BZR 4022)-stable} date 3/17/2015 10:38:54 AM
;FORMAT={-:-/ absolute / inch / decimal}
FMAT,2
INCH,TZ
T1C0.024
T2C0.025
T3C0.032
T4C0.049
T5C0.157
%
G90
G05
M72
T1
X7.788Y-4.182
X7.788Y-4.282
X7.788Y-4.382
X7.788Y-4.482
X7.788Y-4.582
T2
X4.4705Y-5.0512
X4.4843Y-4.0551
X5.128Y-3.1319
X6.0118Y-4.5079
X6.0118Y-4.6161
X6.1319Y-4.2677
X6.2106Y-4.565
X6.3524Y-4.4961
X7.7402Y-5.3878
T3
X4.87Y-3.46
X4.87Y-3.56
X4.87Y-3.66
X4.87Y-3.76
X4.87Y-3.86
X4.87Y-3.96
X4.87Y-4.06
X4.87Y-4.16
X4.87Y-4.26
X4.87Y-4.36
X4.87Y-4.46
X4.87Y-4.56
X4.87Y-4.66
X4.87Y-4.76
X4.87Y-4.86
X4.87Y-4.96
X4.87Y-5.06
X4.87Y-5.16
X4.87Y-5.26
X4.87Y-5.36
X5.252Y-2.844
X5.254Y-6.04
X5.352Y-2.844
X5.354Y-6.04
X5.452Y-2.844
X5.454Y-6.04
X5.552Y-2.844
X5.554Y-6.04
X5.652Y-2.844
X5.654Y-6.04
X5.752Y-2.844
X5.754Y-6.04
X5.852Y-2.844
X5.854Y-6.04
X5.952Y-2.844
X5.954Y-6.04
X6.052Y-2.844
X6.054Y-6.04
X6.152Y-2.844
X6.154Y-6.04
X6.252Y-2.844
X6.254Y-6.04
X6.352Y-2.844
X6.354Y-6.04
X6.452Y-2.844
X6.454Y-6.04
X6.552Y-2.844
X6.554Y-6.04
X6.652Y-2.844
X6.654Y-6.04
X6.752Y-2.844
X6.754Y-6.04
X6.852Y-2.844
X6.854Y-6.04
X6.952Y-2.844
X6.954Y-6.04
X7.052Y-2.844
X7.054Y-6.04
X7.152Y-2.844
X7.154Y-6.04
X7.558Y-3.47
X7.558Y-3.57
X7.558Y-3.67
X7.558Y-3.77
X7.558Y-3.87
X7.558Y-3.97
X7.558Y-4.07
X7.558Y-4.17
X7.558Y-4.27
X7.558Y-4.37
X7.558Y-4.47
X7.558Y-4.57
X7.558Y-4.67
X7.558Y-4.77
X7.558Y-4.87
X7.558Y-4.97
X7.558Y-5.07
X7.558Y-5.17
X7.558Y-5.27
X7.558Y-5.37
T4
X4.52Y-5.266
X4.52Y-5.466
X4.524Y-3.308
X4.524Y-3.508
T5
X4.5Y-6.02
X4.522Y-2.832
X7.68Y-6.01
X7.7Y-2.82
T0
M30
