G04 (created by PCBNEW (2013-07-07 BZR 4022)-stable) date 3/17/2015 10:38:49 AM*
%MOIN*%
G04 Gerber Fmt 3.4, Leading zero omitted, Abs format*
%FSLAX34Y34*%
G01*
G70*
G90*
G04 APERTURE LIST*
%ADD10C,0.00590551*%
%ADD11C,0.011811*%
%ADD12R,0.0669291X0.0669291*%
%ADD13C,0.0669291*%
%ADD14R,0.059X0.0512*%
%ADD15R,0.0512X0.059*%
%ADD16R,0.1181X0.1181*%
%ADD17C,0.1181*%
%ADD18R,0.0591X0.0768*%
%ADD19C,0.16*%
%ADD20R,0.0708661X0.0708661*%
%ADD21C,0.0708661*%
%ADD22C,0.0393701*%
%ADD23C,0.01*%
G04 APERTURE END LIST*
G54D10*
G54D11*
X54950Y-33160D02*
X54950Y-33751D01*
X55232Y-33160D02*
X55232Y-33751D01*
X55372Y-33751D01*
X55457Y-33723D01*
X55513Y-33667D01*
X55541Y-33610D01*
X55569Y-33498D01*
X55569Y-33414D01*
X55541Y-33301D01*
X55513Y-33245D01*
X55457Y-33189D01*
X55372Y-33160D01*
X55232Y-33160D01*
X55822Y-33470D02*
X56019Y-33470D01*
X56103Y-33160D02*
X55822Y-33160D01*
X55822Y-33751D01*
X56103Y-33751D01*
X56469Y-33751D02*
X56582Y-33751D01*
X56638Y-33723D01*
X56694Y-33667D01*
X56722Y-33554D01*
X56722Y-33357D01*
X56694Y-33245D01*
X56638Y-33189D01*
X56582Y-33160D01*
X56469Y-33160D01*
X56413Y-33189D01*
X56357Y-33245D01*
X56328Y-33357D01*
X56328Y-33554D01*
X56357Y-33667D01*
X56413Y-33723D01*
X56469Y-33751D01*
X56975Y-33160D02*
X56975Y-33751D01*
X57313Y-33160D01*
X57313Y-33751D01*
X57594Y-33160D02*
X57594Y-33751D01*
X58213Y-33217D02*
X58184Y-33189D01*
X58100Y-33160D01*
X58044Y-33160D01*
X57959Y-33189D01*
X57903Y-33245D01*
X57875Y-33301D01*
X57847Y-33414D01*
X57847Y-33498D01*
X57875Y-33610D01*
X57903Y-33667D01*
X57959Y-33723D01*
X58044Y-33751D01*
X58100Y-33751D01*
X58184Y-33723D01*
X58213Y-33695D01*
X58438Y-33189D02*
X58522Y-33160D01*
X58662Y-33160D01*
X58719Y-33189D01*
X58747Y-33217D01*
X58775Y-33273D01*
X58775Y-33329D01*
X58747Y-33385D01*
X58719Y-33414D01*
X58662Y-33442D01*
X58550Y-33470D01*
X58494Y-33498D01*
X58466Y-33526D01*
X58438Y-33582D01*
X58438Y-33639D01*
X58466Y-33695D01*
X58494Y-33723D01*
X58550Y-33751D01*
X58691Y-33751D01*
X58775Y-33723D01*
X59478Y-33160D02*
X59478Y-33751D01*
X59703Y-33751D01*
X59759Y-33723D01*
X59787Y-33695D01*
X59815Y-33639D01*
X59815Y-33554D01*
X59787Y-33498D01*
X59759Y-33470D01*
X59703Y-33442D01*
X59478Y-33442D01*
X60069Y-33160D02*
X60069Y-33751D01*
X60687Y-33217D02*
X60659Y-33189D01*
X60575Y-33160D01*
X60519Y-33160D01*
X60434Y-33189D01*
X60378Y-33245D01*
X60350Y-33301D01*
X60322Y-33414D01*
X60322Y-33498D01*
X60350Y-33610D01*
X60378Y-33667D01*
X60434Y-33723D01*
X60519Y-33751D01*
X60575Y-33751D01*
X60659Y-33723D01*
X60687Y-33695D01*
X61250Y-33160D02*
X60912Y-33160D01*
X61081Y-33160D02*
X61081Y-33751D01*
X61025Y-33667D01*
X60968Y-33610D01*
X60912Y-33582D01*
X61587Y-33498D02*
X61531Y-33526D01*
X61503Y-33554D01*
X61475Y-33610D01*
X61475Y-33639D01*
X61503Y-33695D01*
X61531Y-33723D01*
X61587Y-33751D01*
X61700Y-33751D01*
X61756Y-33723D01*
X61784Y-33695D01*
X61812Y-33639D01*
X61812Y-33610D01*
X61784Y-33554D01*
X61756Y-33526D01*
X61700Y-33498D01*
X61587Y-33498D01*
X61531Y-33470D01*
X61503Y-33442D01*
X61475Y-33385D01*
X61475Y-33273D01*
X61503Y-33217D01*
X61531Y-33189D01*
X61587Y-33160D01*
X61700Y-33160D01*
X61756Y-33189D01*
X61784Y-33217D01*
X61812Y-33273D01*
X61812Y-33385D01*
X61784Y-33442D01*
X61756Y-33470D01*
X61700Y-33498D01*
X62262Y-33470D02*
X62065Y-33470D01*
X62065Y-33160D02*
X62065Y-33751D01*
X62346Y-33751D01*
X62656Y-33498D02*
X62600Y-33526D01*
X62571Y-33554D01*
X62543Y-33610D01*
X62543Y-33639D01*
X62571Y-33695D01*
X62600Y-33723D01*
X62656Y-33751D01*
X62768Y-33751D01*
X62824Y-33723D01*
X62853Y-33695D01*
X62881Y-33639D01*
X62881Y-33610D01*
X62853Y-33554D01*
X62824Y-33526D01*
X62768Y-33498D01*
X62656Y-33498D01*
X62600Y-33470D01*
X62571Y-33442D01*
X62543Y-33385D01*
X62543Y-33273D01*
X62571Y-33217D01*
X62600Y-33189D01*
X62656Y-33160D01*
X62768Y-33160D01*
X62824Y-33189D01*
X62853Y-33217D01*
X62881Y-33273D01*
X62881Y-33385D01*
X62853Y-33442D01*
X62824Y-33470D01*
X62768Y-33498D01*
X63078Y-33751D02*
X63471Y-33751D01*
X63218Y-33160D01*
X63668Y-33695D02*
X63696Y-33723D01*
X63752Y-33751D01*
X63893Y-33751D01*
X63949Y-33723D01*
X63977Y-33695D01*
X64006Y-33639D01*
X64006Y-33582D01*
X63977Y-33498D01*
X63640Y-33160D01*
X64006Y-33160D01*
X64231Y-33695D02*
X64259Y-33723D01*
X64315Y-33751D01*
X64456Y-33751D01*
X64512Y-33723D01*
X64540Y-33695D01*
X64568Y-33639D01*
X64568Y-33582D01*
X64540Y-33498D01*
X64202Y-33160D01*
X64568Y-33160D01*
X65468Y-33470D02*
X65552Y-33442D01*
X65580Y-33414D01*
X65608Y-33357D01*
X65608Y-33273D01*
X65580Y-33217D01*
X65552Y-33189D01*
X65496Y-33160D01*
X65271Y-33160D01*
X65271Y-33751D01*
X65468Y-33751D01*
X65524Y-33723D01*
X65552Y-33695D01*
X65580Y-33639D01*
X65580Y-33582D01*
X65552Y-33526D01*
X65524Y-33498D01*
X65468Y-33470D01*
X65271Y-33470D01*
X65974Y-33751D02*
X66087Y-33751D01*
X66143Y-33723D01*
X66199Y-33667D01*
X66227Y-33554D01*
X66227Y-33357D01*
X66199Y-33245D01*
X66143Y-33189D01*
X66087Y-33160D01*
X65974Y-33160D01*
X65918Y-33189D01*
X65862Y-33245D01*
X65833Y-33357D01*
X65833Y-33554D01*
X65862Y-33667D01*
X65918Y-33723D01*
X65974Y-33751D01*
X66452Y-33329D02*
X66733Y-33329D01*
X66396Y-33160D02*
X66593Y-33751D01*
X66790Y-33160D01*
X67324Y-33160D02*
X67127Y-33442D01*
X66986Y-33160D02*
X66986Y-33751D01*
X67211Y-33751D01*
X67268Y-33723D01*
X67296Y-33695D01*
X67324Y-33639D01*
X67324Y-33554D01*
X67296Y-33498D01*
X67268Y-33470D01*
X67211Y-33442D01*
X66986Y-33442D01*
X67577Y-33160D02*
X67577Y-33751D01*
X67718Y-33751D01*
X67802Y-33723D01*
X67858Y-33667D01*
X67886Y-33610D01*
X67914Y-33498D01*
X67914Y-33414D01*
X67886Y-33301D01*
X67858Y-33245D01*
X67802Y-33189D01*
X67718Y-33160D01*
X67577Y-33160D01*
X68533Y-33751D02*
X68730Y-33160D01*
X68927Y-33751D01*
X69433Y-33160D02*
X69096Y-33160D01*
X69264Y-33160D02*
X69264Y-33751D01*
X69208Y-33667D01*
X69152Y-33610D01*
X69096Y-33582D01*
X69686Y-33217D02*
X69714Y-33189D01*
X69686Y-33160D01*
X69658Y-33189D01*
X69686Y-33217D01*
X69686Y-33160D01*
X70080Y-33751D02*
X70136Y-33751D01*
X70192Y-33723D01*
X70220Y-33695D01*
X70249Y-33639D01*
X70277Y-33526D01*
X70277Y-33385D01*
X70249Y-33273D01*
X70220Y-33217D01*
X70192Y-33189D01*
X70136Y-33160D01*
X70080Y-33160D01*
X70024Y-33189D01*
X69995Y-33217D01*
X69967Y-33273D01*
X69939Y-33385D01*
X69939Y-33526D01*
X69967Y-33639D01*
X69995Y-33695D01*
X70024Y-33723D01*
X70080Y-33751D01*
G54D12*
X77880Y-45820D03*
G54D13*
X77880Y-44820D03*
X77880Y-43820D03*
X77880Y-42820D03*
X77880Y-41820D03*
G54D14*
X63469Y-44350D03*
X63469Y-43600D03*
G54D15*
X60708Y-45621D03*
X61458Y-45621D03*
X61960Y-42731D03*
X62710Y-42731D03*
X62803Y-45593D03*
X63553Y-45593D03*
X64191Y-58208D03*
X64941Y-58208D03*
G54D16*
X45200Y-52660D03*
G54D17*
X45200Y-54660D03*
G54D18*
X60713Y-44461D03*
X60713Y-43379D03*
G54D19*
X45220Y-28320D03*
X45000Y-60200D03*
X77000Y-28200D03*
X76800Y-60100D03*
G54D20*
X52540Y-60400D03*
G54D21*
X53540Y-60400D03*
X54540Y-60400D03*
X55540Y-60400D03*
X56540Y-60400D03*
X57540Y-60400D03*
X58540Y-60400D03*
X59540Y-60400D03*
X60540Y-60400D03*
X61540Y-60400D03*
X62540Y-60400D03*
X63540Y-60400D03*
X64540Y-60400D03*
X65540Y-60400D03*
X66540Y-60400D03*
X67540Y-60400D03*
X68540Y-60400D03*
X69540Y-60400D03*
X70540Y-60400D03*
X71540Y-60400D03*
G54D20*
X48700Y-34600D03*
G54D21*
X48700Y-35600D03*
X48700Y-36600D03*
X48700Y-37600D03*
X48700Y-38600D03*
X48700Y-39600D03*
X48700Y-40600D03*
X48700Y-41600D03*
X48700Y-42600D03*
X48700Y-43600D03*
X48700Y-44600D03*
X48700Y-45600D03*
X48700Y-46600D03*
X48700Y-47600D03*
X48700Y-48600D03*
X48700Y-49600D03*
X48700Y-50600D03*
X48700Y-51600D03*
X48700Y-52600D03*
X48700Y-53600D03*
G54D20*
X75580Y-53700D03*
G54D21*
X75580Y-52700D03*
X75580Y-51700D03*
X75580Y-50700D03*
X75580Y-49700D03*
X75580Y-48700D03*
X75580Y-47700D03*
X75580Y-46700D03*
X75580Y-45700D03*
X75580Y-44700D03*
X75580Y-43700D03*
X75580Y-42700D03*
X75580Y-41700D03*
X75580Y-40700D03*
X75580Y-39700D03*
X75580Y-38700D03*
X75580Y-37700D03*
X75580Y-36700D03*
X75580Y-35700D03*
X75580Y-34700D03*
G54D20*
X71520Y-28440D03*
G54D21*
X70520Y-28440D03*
X69520Y-28440D03*
X68520Y-28440D03*
X67520Y-28440D03*
X66520Y-28440D03*
X65520Y-28440D03*
X64520Y-28440D03*
X63520Y-28440D03*
X62520Y-28440D03*
X61520Y-28440D03*
X60520Y-28440D03*
X59520Y-28440D03*
X58520Y-28440D03*
X57520Y-28440D03*
X56520Y-28440D03*
X55520Y-28440D03*
X54520Y-28440D03*
X53520Y-28440D03*
X52520Y-28440D03*
G54D16*
X45240Y-33080D03*
G54D17*
X45240Y-35080D03*
G54D22*
X63523Y-44960D03*
X62106Y-45649D03*
X60118Y-46161D03*
X60118Y-45078D03*
X61318Y-42677D03*
X77401Y-53877D03*
X44842Y-40551D03*
X44704Y-50511D03*
X51279Y-31318D03*
G54D23*
X63540Y-60400D02*
X63540Y-58860D01*
X63540Y-58860D02*
X64191Y-58208D01*
X63469Y-44906D02*
X63469Y-44350D01*
X63523Y-44960D02*
X63469Y-44906D01*
X62106Y-45649D02*
X62162Y-45593D01*
X62162Y-45593D02*
X62803Y-45593D01*
X60579Y-45492D02*
X60708Y-45621D01*
X60295Y-45492D02*
X60579Y-45492D01*
X60137Y-45649D02*
X60295Y-45492D01*
X60137Y-46141D02*
X60137Y-45649D01*
X60118Y-46161D02*
X60137Y-46141D01*
X60713Y-44483D02*
X60713Y-44461D01*
X60118Y-45078D02*
X60713Y-44483D01*
X61373Y-42731D02*
X61960Y-42731D01*
X61318Y-42677D02*
X61373Y-42731D01*
X77880Y-45820D02*
X77506Y-45820D01*
X61631Y-55531D02*
X48700Y-42600D01*
X75846Y-55531D02*
X61631Y-55531D01*
X76673Y-54704D02*
X75846Y-55531D01*
X76673Y-46653D02*
X76673Y-54704D01*
X77506Y-45820D02*
X76673Y-46653D01*
X64941Y-58208D02*
X65275Y-58208D01*
X65540Y-58473D02*
X65540Y-60400D01*
X65275Y-58208D02*
X65540Y-58473D01*
X77401Y-53877D02*
X77401Y-53858D01*
G54D10*
G36*
X78550Y-61750D02*
X78469Y-61750D01*
X78469Y-43910D01*
X78464Y-43809D01*
X78464Y-42704D01*
X78375Y-42489D01*
X78211Y-42324D01*
X78200Y-42320D01*
X78210Y-42315D01*
X78375Y-42151D01*
X78464Y-41936D01*
X78464Y-41704D01*
X78375Y-41489D01*
X78211Y-41324D01*
X78050Y-41257D01*
X78050Y-27992D01*
X77890Y-27606D01*
X77595Y-27310D01*
X77209Y-27150D01*
X76792Y-27149D01*
X76406Y-27309D01*
X76110Y-27604D01*
X75950Y-27990D01*
X75949Y-28407D01*
X76109Y-28794D01*
X76404Y-29089D01*
X76790Y-29249D01*
X77207Y-29250D01*
X77594Y-29090D01*
X77889Y-28795D01*
X78049Y-28409D01*
X78050Y-27992D01*
X78050Y-41257D01*
X77996Y-41235D01*
X77764Y-41235D01*
X77549Y-41324D01*
X77384Y-41488D01*
X77295Y-41703D01*
X77295Y-41935D01*
X77384Y-42150D01*
X77548Y-42315D01*
X77559Y-42319D01*
X77549Y-42324D01*
X77384Y-42488D01*
X77295Y-42703D01*
X77295Y-42935D01*
X77384Y-43150D01*
X77548Y-43315D01*
X77567Y-43323D01*
X77539Y-43408D01*
X77880Y-43749D01*
X78220Y-43408D01*
X78192Y-43323D01*
X78210Y-43315D01*
X78375Y-43151D01*
X78464Y-42936D01*
X78464Y-42704D01*
X78464Y-43809D01*
X78458Y-43677D01*
X78389Y-43511D01*
X78291Y-43479D01*
X77950Y-43820D01*
X78291Y-44160D01*
X78389Y-44128D01*
X78469Y-43910D01*
X78469Y-61750D01*
X78464Y-61750D01*
X78464Y-44704D01*
X78375Y-44489D01*
X78211Y-44324D01*
X78192Y-44316D01*
X78220Y-44231D01*
X77880Y-43890D01*
X77809Y-43961D01*
X77809Y-43820D01*
X77468Y-43479D01*
X77370Y-43511D01*
X77290Y-43729D01*
X77301Y-43962D01*
X77370Y-44128D01*
X77468Y-44160D01*
X77809Y-43820D01*
X77809Y-43961D01*
X77539Y-44231D01*
X77567Y-44316D01*
X77549Y-44324D01*
X77384Y-44488D01*
X77295Y-44703D01*
X77295Y-44935D01*
X77384Y-45150D01*
X77476Y-45243D01*
X77403Y-45273D01*
X77333Y-45343D01*
X77295Y-45435D01*
X77295Y-45534D01*
X77295Y-45607D01*
X77294Y-45607D01*
X76461Y-46441D01*
X76396Y-46538D01*
X76373Y-46653D01*
X76373Y-54580D01*
X76188Y-54764D01*
X76188Y-43794D01*
X76184Y-43689D01*
X76184Y-42580D01*
X76092Y-42358D01*
X75934Y-42199D01*
X76092Y-42042D01*
X76184Y-41820D01*
X76184Y-41580D01*
X76092Y-41358D01*
X75934Y-41199D01*
X76092Y-41042D01*
X76184Y-40820D01*
X76184Y-40580D01*
X76092Y-40358D01*
X75934Y-40199D01*
X76092Y-40042D01*
X76184Y-39820D01*
X76184Y-39580D01*
X76092Y-39358D01*
X75934Y-39199D01*
X76092Y-39042D01*
X76184Y-38820D01*
X76184Y-38580D01*
X76092Y-38358D01*
X75934Y-38199D01*
X76092Y-38042D01*
X76184Y-37820D01*
X76184Y-37580D01*
X76092Y-37358D01*
X75934Y-37199D01*
X76092Y-37042D01*
X76184Y-36820D01*
X76184Y-36580D01*
X76092Y-36358D01*
X75934Y-36199D01*
X76092Y-36042D01*
X76184Y-35820D01*
X76184Y-35580D01*
X76092Y-35358D01*
X75934Y-35199D01*
X76092Y-35042D01*
X76184Y-34820D01*
X76184Y-34580D01*
X76092Y-34358D01*
X75922Y-34187D01*
X75700Y-34095D01*
X75460Y-34095D01*
X75238Y-34187D01*
X75067Y-34357D01*
X74975Y-34579D01*
X74975Y-34819D01*
X75067Y-35041D01*
X75225Y-35200D01*
X75067Y-35357D01*
X74975Y-35579D01*
X74975Y-35819D01*
X75067Y-36041D01*
X75225Y-36200D01*
X75067Y-36357D01*
X74975Y-36579D01*
X74975Y-36819D01*
X75067Y-37041D01*
X75225Y-37200D01*
X75067Y-37357D01*
X74975Y-37579D01*
X74975Y-37819D01*
X75067Y-38041D01*
X75225Y-38200D01*
X75067Y-38357D01*
X74975Y-38579D01*
X74975Y-38819D01*
X75067Y-39041D01*
X75225Y-39200D01*
X75067Y-39357D01*
X74975Y-39579D01*
X74975Y-39819D01*
X75067Y-40041D01*
X75225Y-40200D01*
X75067Y-40357D01*
X74975Y-40579D01*
X74975Y-40819D01*
X75067Y-41041D01*
X75225Y-41200D01*
X75067Y-41357D01*
X74975Y-41579D01*
X74975Y-41819D01*
X75067Y-42041D01*
X75225Y-42200D01*
X75067Y-42357D01*
X74975Y-42579D01*
X74975Y-42819D01*
X75067Y-43041D01*
X75237Y-43212D01*
X75245Y-43215D01*
X75225Y-43274D01*
X75580Y-43629D01*
X75934Y-43274D01*
X75914Y-43215D01*
X75921Y-43212D01*
X76092Y-43042D01*
X76184Y-42820D01*
X76184Y-42580D01*
X76184Y-43689D01*
X76178Y-43554D01*
X76106Y-43379D01*
X76005Y-43345D01*
X75650Y-43700D01*
X76005Y-44054D01*
X76106Y-44020D01*
X76188Y-43794D01*
X76188Y-54764D01*
X76184Y-54769D01*
X76184Y-52580D01*
X76092Y-52358D01*
X75934Y-52199D01*
X76092Y-52042D01*
X76184Y-51820D01*
X76184Y-51580D01*
X76092Y-51358D01*
X75934Y-51199D01*
X76092Y-51042D01*
X76184Y-50820D01*
X76184Y-50580D01*
X76092Y-50358D01*
X75934Y-50199D01*
X76092Y-50042D01*
X76184Y-49820D01*
X76184Y-49580D01*
X76092Y-49358D01*
X75934Y-49199D01*
X76092Y-49042D01*
X76184Y-48820D01*
X76184Y-48580D01*
X76092Y-48358D01*
X75934Y-48199D01*
X76092Y-48042D01*
X76184Y-47820D01*
X76184Y-47580D01*
X76092Y-47358D01*
X75934Y-47199D01*
X76092Y-47042D01*
X76184Y-46820D01*
X76184Y-46580D01*
X76092Y-46358D01*
X75934Y-46199D01*
X76092Y-46042D01*
X76184Y-45820D01*
X76184Y-45580D01*
X76092Y-45358D01*
X75934Y-45199D01*
X76092Y-45042D01*
X76184Y-44820D01*
X76184Y-44580D01*
X76092Y-44358D01*
X75922Y-44187D01*
X75914Y-44184D01*
X75934Y-44125D01*
X75580Y-43770D01*
X75509Y-43841D01*
X75509Y-43700D01*
X75154Y-43345D01*
X75053Y-43379D01*
X74971Y-43605D01*
X74981Y-43845D01*
X75053Y-44020D01*
X75154Y-44054D01*
X75509Y-43700D01*
X75509Y-43841D01*
X75225Y-44125D01*
X75245Y-44184D01*
X75238Y-44187D01*
X75067Y-44357D01*
X74975Y-44579D01*
X74975Y-44819D01*
X75067Y-45041D01*
X75225Y-45200D01*
X75067Y-45357D01*
X74975Y-45579D01*
X74975Y-45819D01*
X75067Y-46041D01*
X75225Y-46200D01*
X75067Y-46357D01*
X74975Y-46579D01*
X74975Y-46819D01*
X75067Y-47041D01*
X75225Y-47200D01*
X75067Y-47357D01*
X74975Y-47579D01*
X74975Y-47819D01*
X75067Y-48041D01*
X75225Y-48200D01*
X75067Y-48357D01*
X74975Y-48579D01*
X74975Y-48819D01*
X75067Y-49041D01*
X75225Y-49200D01*
X75067Y-49357D01*
X74975Y-49579D01*
X74975Y-49819D01*
X75067Y-50041D01*
X75225Y-50200D01*
X75067Y-50357D01*
X74975Y-50579D01*
X74975Y-50819D01*
X75067Y-51041D01*
X75225Y-51200D01*
X75067Y-51357D01*
X74975Y-51579D01*
X74975Y-51819D01*
X75067Y-52041D01*
X75225Y-52200D01*
X75067Y-52357D01*
X74975Y-52579D01*
X74975Y-52819D01*
X75067Y-53041D01*
X75137Y-53111D01*
X75084Y-53133D01*
X75013Y-53203D01*
X74975Y-53295D01*
X74975Y-53395D01*
X74975Y-54103D01*
X75013Y-54195D01*
X75083Y-54266D01*
X75175Y-54304D01*
X75275Y-54304D01*
X75983Y-54304D01*
X76075Y-54266D01*
X76146Y-54196D01*
X76184Y-54104D01*
X76184Y-54004D01*
X76184Y-53296D01*
X76146Y-53204D01*
X76076Y-53133D01*
X76022Y-53111D01*
X76092Y-53042D01*
X76184Y-52820D01*
X76184Y-52580D01*
X76184Y-54769D01*
X75722Y-55231D01*
X72124Y-55231D01*
X72124Y-28744D01*
X72124Y-28036D01*
X72086Y-27944D01*
X72016Y-27873D01*
X71924Y-27835D01*
X71824Y-27835D01*
X71116Y-27835D01*
X71024Y-27873D01*
X70953Y-27943D01*
X70931Y-27997D01*
X70862Y-27927D01*
X70640Y-27835D01*
X70400Y-27835D01*
X70178Y-27927D01*
X70019Y-28085D01*
X69862Y-27927D01*
X69640Y-27835D01*
X69400Y-27835D01*
X69178Y-27927D01*
X69019Y-28085D01*
X68862Y-27927D01*
X68640Y-27835D01*
X68400Y-27835D01*
X68178Y-27927D01*
X68019Y-28085D01*
X67862Y-27927D01*
X67640Y-27835D01*
X67400Y-27835D01*
X67178Y-27927D01*
X67019Y-28085D01*
X66862Y-27927D01*
X66640Y-27835D01*
X66400Y-27835D01*
X66178Y-27927D01*
X66019Y-28085D01*
X65862Y-27927D01*
X65640Y-27835D01*
X65400Y-27835D01*
X65178Y-27927D01*
X65019Y-28085D01*
X64862Y-27927D01*
X64640Y-27835D01*
X64400Y-27835D01*
X64178Y-27927D01*
X64019Y-28085D01*
X63862Y-27927D01*
X63640Y-27835D01*
X63400Y-27835D01*
X63178Y-27927D01*
X63007Y-28097D01*
X63004Y-28105D01*
X62945Y-28085D01*
X62874Y-28156D01*
X62874Y-28014D01*
X62840Y-27913D01*
X62614Y-27831D01*
X62374Y-27841D01*
X62199Y-27913D01*
X62165Y-28014D01*
X62520Y-28369D01*
X62874Y-28014D01*
X62874Y-28156D01*
X62590Y-28440D01*
X62945Y-28794D01*
X63004Y-28774D01*
X63007Y-28781D01*
X63177Y-28952D01*
X63399Y-29044D01*
X63639Y-29044D01*
X63861Y-28952D01*
X64020Y-28794D01*
X64177Y-28952D01*
X64399Y-29044D01*
X64639Y-29044D01*
X64861Y-28952D01*
X65020Y-28794D01*
X65177Y-28952D01*
X65399Y-29044D01*
X65639Y-29044D01*
X65861Y-28952D01*
X66020Y-28794D01*
X66177Y-28952D01*
X66399Y-29044D01*
X66639Y-29044D01*
X66861Y-28952D01*
X67020Y-28794D01*
X67177Y-28952D01*
X67399Y-29044D01*
X67639Y-29044D01*
X67861Y-28952D01*
X68020Y-28794D01*
X68177Y-28952D01*
X68399Y-29044D01*
X68639Y-29044D01*
X68861Y-28952D01*
X69020Y-28794D01*
X69177Y-28952D01*
X69399Y-29044D01*
X69639Y-29044D01*
X69861Y-28952D01*
X70020Y-28794D01*
X70177Y-28952D01*
X70399Y-29044D01*
X70639Y-29044D01*
X70861Y-28952D01*
X70931Y-28882D01*
X70953Y-28935D01*
X71023Y-29006D01*
X71115Y-29044D01*
X71215Y-29044D01*
X71923Y-29044D01*
X72015Y-29006D01*
X72086Y-28936D01*
X72124Y-28844D01*
X72124Y-28744D01*
X72124Y-55231D01*
X70698Y-55231D01*
X70698Y-34240D01*
X70698Y-32677D01*
X62874Y-32677D01*
X62874Y-28865D01*
X62520Y-28510D01*
X62449Y-28581D01*
X62449Y-28440D01*
X62094Y-28085D01*
X62035Y-28105D01*
X62032Y-28098D01*
X61862Y-27927D01*
X61640Y-27835D01*
X61400Y-27835D01*
X61178Y-27927D01*
X61019Y-28085D01*
X60862Y-27927D01*
X60640Y-27835D01*
X60400Y-27835D01*
X60178Y-27927D01*
X60019Y-28085D01*
X59862Y-27927D01*
X59640Y-27835D01*
X59400Y-27835D01*
X59178Y-27927D01*
X59019Y-28085D01*
X58862Y-27927D01*
X58640Y-27835D01*
X58400Y-27835D01*
X58178Y-27927D01*
X58019Y-28085D01*
X57862Y-27927D01*
X57640Y-27835D01*
X57400Y-27835D01*
X57178Y-27927D01*
X57019Y-28085D01*
X56862Y-27927D01*
X56640Y-27835D01*
X56400Y-27835D01*
X56178Y-27927D01*
X56019Y-28085D01*
X55862Y-27927D01*
X55640Y-27835D01*
X55400Y-27835D01*
X55178Y-27927D01*
X55019Y-28085D01*
X54862Y-27927D01*
X54640Y-27835D01*
X54400Y-27835D01*
X54178Y-27927D01*
X54019Y-28085D01*
X53862Y-27927D01*
X53640Y-27835D01*
X53400Y-27835D01*
X53178Y-27927D01*
X53019Y-28085D01*
X52862Y-27927D01*
X52640Y-27835D01*
X52400Y-27835D01*
X52178Y-27927D01*
X52007Y-28097D01*
X51915Y-28319D01*
X51915Y-28559D01*
X52007Y-28781D01*
X52177Y-28952D01*
X52399Y-29044D01*
X52639Y-29044D01*
X52861Y-28952D01*
X53020Y-28794D01*
X53177Y-28952D01*
X53399Y-29044D01*
X53639Y-29044D01*
X53861Y-28952D01*
X54020Y-28794D01*
X54177Y-28952D01*
X54399Y-29044D01*
X54639Y-29044D01*
X54861Y-28952D01*
X55020Y-28794D01*
X55177Y-28952D01*
X55399Y-29044D01*
X55639Y-29044D01*
X55861Y-28952D01*
X56020Y-28794D01*
X56177Y-28952D01*
X56399Y-29044D01*
X56639Y-29044D01*
X56861Y-28952D01*
X57020Y-28794D01*
X57177Y-28952D01*
X57399Y-29044D01*
X57639Y-29044D01*
X57861Y-28952D01*
X58020Y-28794D01*
X58177Y-28952D01*
X58399Y-29044D01*
X58639Y-29044D01*
X58861Y-28952D01*
X59020Y-28794D01*
X59177Y-28952D01*
X59399Y-29044D01*
X59639Y-29044D01*
X59861Y-28952D01*
X60020Y-28794D01*
X60177Y-28952D01*
X60399Y-29044D01*
X60639Y-29044D01*
X60861Y-28952D01*
X61020Y-28794D01*
X61177Y-28952D01*
X61399Y-29044D01*
X61639Y-29044D01*
X61861Y-28952D01*
X62032Y-28782D01*
X62035Y-28774D01*
X62094Y-28794D01*
X62449Y-28440D01*
X62449Y-28581D01*
X62165Y-28865D01*
X62199Y-28966D01*
X62425Y-29048D01*
X62665Y-29038D01*
X62840Y-28966D01*
X62874Y-28865D01*
X62874Y-32677D01*
X54501Y-32677D01*
X54501Y-34240D01*
X70698Y-34240D01*
X70698Y-55231D01*
X64059Y-55231D01*
X64059Y-45839D01*
X64059Y-45348D01*
X64059Y-45248D01*
X64020Y-45156D01*
X63950Y-45086D01*
X63934Y-45079D01*
X63948Y-45045D01*
X63948Y-44876D01*
X63919Y-44805D01*
X63976Y-44748D01*
X64014Y-44656D01*
X64014Y-44557D01*
X64014Y-44045D01*
X63985Y-43975D01*
X64014Y-43906D01*
X64014Y-43295D01*
X63976Y-43203D01*
X63906Y-43132D01*
X63814Y-43094D01*
X63714Y-43094D01*
X63581Y-43094D01*
X63519Y-43157D01*
X63519Y-43550D01*
X63951Y-43550D01*
X64014Y-43488D01*
X64014Y-43295D01*
X64014Y-43906D01*
X64014Y-43713D01*
X63951Y-43650D01*
X63519Y-43650D01*
X63519Y-43658D01*
X63419Y-43658D01*
X63419Y-43650D01*
X63419Y-43550D01*
X63419Y-43157D01*
X63356Y-43094D01*
X63223Y-43094D01*
X63209Y-43094D01*
X63216Y-43076D01*
X63216Y-42976D01*
X63216Y-42486D01*
X63216Y-42386D01*
X63178Y-42294D01*
X63108Y-42224D01*
X63016Y-42186D01*
X62823Y-42186D01*
X62760Y-42248D01*
X62760Y-42681D01*
X63154Y-42681D01*
X63216Y-42618D01*
X63216Y-42486D01*
X63216Y-42976D01*
X63216Y-42843D01*
X63154Y-42781D01*
X62760Y-42781D01*
X62760Y-43213D01*
X62823Y-43276D01*
X62932Y-43276D01*
X62924Y-43295D01*
X62924Y-43488D01*
X62986Y-43550D01*
X63419Y-43550D01*
X63419Y-43650D01*
X62986Y-43650D01*
X62924Y-43713D01*
X62924Y-43906D01*
X62953Y-43975D01*
X62924Y-44044D01*
X62924Y-44144D01*
X62924Y-44656D01*
X62962Y-44748D01*
X63032Y-44818D01*
X63109Y-44850D01*
X63098Y-44875D01*
X63098Y-45044D01*
X63100Y-45048D01*
X63009Y-45048D01*
X62660Y-45048D01*
X62660Y-43213D01*
X62660Y-42781D01*
X62652Y-42781D01*
X62652Y-42681D01*
X62660Y-42681D01*
X62660Y-42248D01*
X62598Y-42186D01*
X62405Y-42186D01*
X62335Y-42215D01*
X62266Y-42186D01*
X62167Y-42186D01*
X61655Y-42186D01*
X61563Y-42224D01*
X61496Y-42290D01*
X61403Y-42252D01*
X61234Y-42252D01*
X61078Y-42316D01*
X60958Y-42436D01*
X60893Y-42592D01*
X60893Y-42745D01*
X60826Y-42745D01*
X60763Y-42807D01*
X60763Y-43329D01*
X61196Y-43329D01*
X61259Y-43266D01*
X61259Y-43102D01*
X61403Y-43102D01*
X61456Y-43080D01*
X61492Y-43167D01*
X61562Y-43238D01*
X61654Y-43276D01*
X61754Y-43276D01*
X62266Y-43276D01*
X62335Y-43247D01*
X62405Y-43276D01*
X62598Y-43276D01*
X62660Y-43213D01*
X62660Y-45048D01*
X62497Y-45048D01*
X62405Y-45086D01*
X62335Y-45156D01*
X62297Y-45248D01*
X62297Y-45268D01*
X62191Y-45224D01*
X62022Y-45224D01*
X61954Y-45252D01*
X61926Y-45184D01*
X61856Y-45114D01*
X61764Y-45076D01*
X61571Y-45076D01*
X61508Y-45138D01*
X61508Y-45571D01*
X61516Y-45571D01*
X61516Y-45671D01*
X61508Y-45671D01*
X61508Y-46103D01*
X61571Y-46166D01*
X61764Y-46166D01*
X61856Y-46128D01*
X61926Y-46058D01*
X61934Y-46038D01*
X62021Y-46074D01*
X62190Y-46074D01*
X62329Y-46017D01*
X62335Y-46030D01*
X62405Y-46100D01*
X62497Y-46138D01*
X62596Y-46138D01*
X63108Y-46138D01*
X63178Y-46110D01*
X63247Y-46138D01*
X63440Y-46138D01*
X63503Y-46076D01*
X63503Y-45643D01*
X63495Y-45643D01*
X63495Y-45543D01*
X63503Y-45543D01*
X63503Y-45535D01*
X63603Y-45535D01*
X63603Y-45543D01*
X63996Y-45543D01*
X64059Y-45481D01*
X64059Y-45348D01*
X64059Y-45839D01*
X64059Y-45706D01*
X63996Y-45643D01*
X63603Y-45643D01*
X63603Y-46076D01*
X63665Y-46138D01*
X63858Y-46138D01*
X63950Y-46100D01*
X64020Y-46030D01*
X64059Y-45938D01*
X64059Y-45839D01*
X64059Y-55231D01*
X61755Y-55231D01*
X61408Y-54884D01*
X61408Y-46103D01*
X61408Y-45671D01*
X61400Y-45671D01*
X61400Y-45571D01*
X61408Y-45571D01*
X61408Y-45138D01*
X61346Y-45076D01*
X61153Y-45076D01*
X61083Y-45104D01*
X61059Y-45095D01*
X61150Y-45057D01*
X61220Y-44987D01*
X61258Y-44895D01*
X61259Y-44795D01*
X61259Y-44027D01*
X61221Y-43936D01*
X61205Y-43920D01*
X61221Y-43904D01*
X61259Y-43812D01*
X61259Y-43491D01*
X61196Y-43429D01*
X60763Y-43429D01*
X60763Y-43437D01*
X60663Y-43437D01*
X60663Y-43429D01*
X60663Y-43329D01*
X60663Y-42807D01*
X60601Y-42745D01*
X60467Y-42745D01*
X60368Y-42745D01*
X60276Y-42783D01*
X60205Y-42854D01*
X60168Y-42945D01*
X60168Y-43266D01*
X60230Y-43329D01*
X60663Y-43329D01*
X60663Y-43429D01*
X60230Y-43429D01*
X60168Y-43491D01*
X60168Y-43812D01*
X60205Y-43904D01*
X60221Y-43920D01*
X60206Y-43935D01*
X60168Y-44027D01*
X60168Y-44126D01*
X60168Y-44604D01*
X60118Y-44653D01*
X60033Y-44653D01*
X59877Y-44718D01*
X59758Y-44837D01*
X59693Y-44993D01*
X59693Y-45162D01*
X59757Y-45319D01*
X59877Y-45438D01*
X59914Y-45454D01*
X59860Y-45534D01*
X59837Y-45649D01*
X59837Y-45840D01*
X59758Y-45920D01*
X59693Y-46076D01*
X59693Y-46245D01*
X59757Y-46401D01*
X59877Y-46521D01*
X60033Y-46586D01*
X60202Y-46586D01*
X60358Y-46521D01*
X60478Y-46402D01*
X60543Y-46246D01*
X60543Y-46166D01*
X61014Y-46166D01*
X61083Y-46137D01*
X61153Y-46166D01*
X61346Y-46166D01*
X61408Y-46103D01*
X61408Y-54884D01*
X49286Y-42762D01*
X49304Y-42720D01*
X49304Y-42480D01*
X49212Y-42258D01*
X49054Y-42099D01*
X49212Y-41942D01*
X49304Y-41720D01*
X49304Y-41480D01*
X49212Y-41258D01*
X49054Y-41099D01*
X49212Y-40942D01*
X49304Y-40720D01*
X49304Y-40480D01*
X49212Y-40258D01*
X49054Y-40099D01*
X49212Y-39942D01*
X49304Y-39720D01*
X49304Y-39480D01*
X49212Y-39258D01*
X49054Y-39099D01*
X49212Y-38942D01*
X49304Y-38720D01*
X49304Y-38480D01*
X49212Y-38258D01*
X49054Y-38099D01*
X49212Y-37942D01*
X49304Y-37720D01*
X49304Y-37480D01*
X49212Y-37258D01*
X49054Y-37099D01*
X49212Y-36942D01*
X49304Y-36720D01*
X49304Y-36480D01*
X49212Y-36258D01*
X49054Y-36099D01*
X49212Y-35942D01*
X49304Y-35720D01*
X49304Y-35480D01*
X49212Y-35258D01*
X49142Y-35188D01*
X49195Y-35166D01*
X49266Y-35096D01*
X49304Y-35004D01*
X49304Y-34904D01*
X49304Y-34196D01*
X49266Y-34104D01*
X49196Y-34033D01*
X49104Y-33995D01*
X49004Y-33995D01*
X48296Y-33995D01*
X48204Y-34033D01*
X48133Y-34103D01*
X48095Y-34195D01*
X48095Y-34295D01*
X48095Y-35003D01*
X48133Y-35095D01*
X48203Y-35166D01*
X48257Y-35188D01*
X48187Y-35257D01*
X48095Y-35479D01*
X48095Y-35719D01*
X48187Y-35941D01*
X48345Y-36100D01*
X48187Y-36257D01*
X48095Y-36479D01*
X48095Y-36719D01*
X48187Y-36941D01*
X48345Y-37100D01*
X48187Y-37257D01*
X48095Y-37479D01*
X48095Y-37719D01*
X48187Y-37941D01*
X48345Y-38100D01*
X48187Y-38257D01*
X48095Y-38479D01*
X48095Y-38719D01*
X48187Y-38941D01*
X48345Y-39100D01*
X48187Y-39257D01*
X48095Y-39479D01*
X48095Y-39719D01*
X48187Y-39941D01*
X48345Y-40100D01*
X48187Y-40257D01*
X48095Y-40479D01*
X48095Y-40719D01*
X48187Y-40941D01*
X48345Y-41100D01*
X48187Y-41257D01*
X48095Y-41479D01*
X48095Y-41719D01*
X48187Y-41941D01*
X48345Y-42100D01*
X48187Y-42257D01*
X48095Y-42479D01*
X48095Y-42719D01*
X48187Y-42941D01*
X48345Y-43100D01*
X48187Y-43257D01*
X48095Y-43479D01*
X48095Y-43719D01*
X48187Y-43941D01*
X48357Y-44112D01*
X48365Y-44115D01*
X48345Y-44174D01*
X48700Y-44529D01*
X49054Y-44174D01*
X49034Y-44115D01*
X49041Y-44112D01*
X49212Y-43942D01*
X49304Y-43720D01*
X49304Y-43628D01*
X61419Y-55743D01*
X61419Y-55743D01*
X61516Y-55808D01*
X61631Y-55831D01*
X75846Y-55831D01*
X75846Y-55831D01*
X75961Y-55808D01*
X75961Y-55808D01*
X76058Y-55743D01*
X76885Y-54916D01*
X76885Y-54916D01*
X76950Y-54819D01*
X76973Y-54704D01*
X76973Y-54704D01*
X76973Y-46777D01*
X77394Y-46356D01*
X77403Y-46366D01*
X77495Y-46404D01*
X77594Y-46404D01*
X78264Y-46404D01*
X78356Y-46366D01*
X78426Y-46296D01*
X78464Y-46204D01*
X78464Y-46105D01*
X78464Y-45435D01*
X78426Y-45343D01*
X78356Y-45273D01*
X78283Y-45243D01*
X78375Y-45151D01*
X78464Y-44936D01*
X78464Y-44704D01*
X78464Y-61750D01*
X77850Y-61750D01*
X77850Y-59892D01*
X77690Y-59506D01*
X77395Y-59210D01*
X77009Y-59050D01*
X76592Y-59049D01*
X76206Y-59209D01*
X75910Y-59504D01*
X75750Y-59890D01*
X75749Y-60307D01*
X75909Y-60694D01*
X76204Y-60989D01*
X76590Y-61149D01*
X77007Y-61150D01*
X77394Y-60990D01*
X77689Y-60695D01*
X77849Y-60309D01*
X77850Y-59892D01*
X77850Y-61750D01*
X72144Y-61750D01*
X72144Y-60280D01*
X72052Y-60058D01*
X71882Y-59887D01*
X71660Y-59795D01*
X71420Y-59795D01*
X71198Y-59887D01*
X71039Y-60045D01*
X70882Y-59887D01*
X70660Y-59795D01*
X70420Y-59795D01*
X70198Y-59887D01*
X70039Y-60045D01*
X69882Y-59887D01*
X69660Y-59795D01*
X69420Y-59795D01*
X69198Y-59887D01*
X69039Y-60045D01*
X68882Y-59887D01*
X68660Y-59795D01*
X68420Y-59795D01*
X68198Y-59887D01*
X68039Y-60045D01*
X67882Y-59887D01*
X67660Y-59795D01*
X67420Y-59795D01*
X67198Y-59887D01*
X67039Y-60045D01*
X66882Y-59887D01*
X66660Y-59795D01*
X66420Y-59795D01*
X66198Y-59887D01*
X66039Y-60045D01*
X65882Y-59887D01*
X65840Y-59870D01*
X65840Y-58473D01*
X65839Y-58473D01*
X65817Y-58358D01*
X65752Y-58260D01*
X65752Y-58260D01*
X65487Y-57996D01*
X65447Y-57969D01*
X65447Y-57864D01*
X65409Y-57772D01*
X65339Y-57701D01*
X65247Y-57663D01*
X65148Y-57663D01*
X64636Y-57663D01*
X64566Y-57692D01*
X64497Y-57663D01*
X64398Y-57663D01*
X63886Y-57663D01*
X63794Y-57701D01*
X63724Y-57771D01*
X63685Y-57863D01*
X63685Y-57963D01*
X63685Y-58290D01*
X63327Y-58648D01*
X63262Y-58745D01*
X63240Y-58860D01*
X63240Y-59870D01*
X63198Y-59887D01*
X63027Y-60057D01*
X63024Y-60065D01*
X62965Y-60045D01*
X62894Y-60116D01*
X62894Y-59974D01*
X62860Y-59873D01*
X62634Y-59791D01*
X62394Y-59801D01*
X62219Y-59873D01*
X62185Y-59974D01*
X62540Y-60329D01*
X62894Y-59974D01*
X62894Y-60116D01*
X62610Y-60400D01*
X62965Y-60754D01*
X63024Y-60734D01*
X63027Y-60741D01*
X63197Y-60912D01*
X63419Y-61004D01*
X63659Y-61004D01*
X63881Y-60912D01*
X64040Y-60754D01*
X64197Y-60912D01*
X64419Y-61004D01*
X64659Y-61004D01*
X64881Y-60912D01*
X65040Y-60754D01*
X65197Y-60912D01*
X65419Y-61004D01*
X65659Y-61004D01*
X65881Y-60912D01*
X66040Y-60754D01*
X66197Y-60912D01*
X66419Y-61004D01*
X66659Y-61004D01*
X66881Y-60912D01*
X67040Y-60754D01*
X67197Y-60912D01*
X67419Y-61004D01*
X67659Y-61004D01*
X67881Y-60912D01*
X68040Y-60754D01*
X68197Y-60912D01*
X68419Y-61004D01*
X68659Y-61004D01*
X68881Y-60912D01*
X69040Y-60754D01*
X69197Y-60912D01*
X69419Y-61004D01*
X69659Y-61004D01*
X69881Y-60912D01*
X70040Y-60754D01*
X70197Y-60912D01*
X70419Y-61004D01*
X70659Y-61004D01*
X70881Y-60912D01*
X71040Y-60754D01*
X71197Y-60912D01*
X71419Y-61004D01*
X71659Y-61004D01*
X71881Y-60912D01*
X72052Y-60742D01*
X72144Y-60520D01*
X72144Y-60280D01*
X72144Y-61750D01*
X62894Y-61750D01*
X62894Y-60825D01*
X62540Y-60470D01*
X62469Y-60541D01*
X62469Y-60400D01*
X62114Y-60045D01*
X62055Y-60065D01*
X62052Y-60058D01*
X61882Y-59887D01*
X61660Y-59795D01*
X61420Y-59795D01*
X61198Y-59887D01*
X61039Y-60045D01*
X60882Y-59887D01*
X60660Y-59795D01*
X60420Y-59795D01*
X60198Y-59887D01*
X60039Y-60045D01*
X59882Y-59887D01*
X59660Y-59795D01*
X59420Y-59795D01*
X59198Y-59887D01*
X59039Y-60045D01*
X58882Y-59887D01*
X58660Y-59795D01*
X58420Y-59795D01*
X58198Y-59887D01*
X58027Y-60057D01*
X58024Y-60065D01*
X57965Y-60045D01*
X57894Y-60116D01*
X57894Y-59974D01*
X57860Y-59873D01*
X57634Y-59791D01*
X57394Y-59801D01*
X57219Y-59873D01*
X57185Y-59974D01*
X57540Y-60329D01*
X57894Y-59974D01*
X57894Y-60116D01*
X57610Y-60400D01*
X57965Y-60754D01*
X58024Y-60734D01*
X58027Y-60741D01*
X58197Y-60912D01*
X58419Y-61004D01*
X58659Y-61004D01*
X58881Y-60912D01*
X59040Y-60754D01*
X59197Y-60912D01*
X59419Y-61004D01*
X59659Y-61004D01*
X59881Y-60912D01*
X60040Y-60754D01*
X60197Y-60912D01*
X60419Y-61004D01*
X60659Y-61004D01*
X60881Y-60912D01*
X61040Y-60754D01*
X61197Y-60912D01*
X61419Y-61004D01*
X61659Y-61004D01*
X61881Y-60912D01*
X62052Y-60742D01*
X62055Y-60734D01*
X62114Y-60754D01*
X62469Y-60400D01*
X62469Y-60541D01*
X62185Y-60825D01*
X62219Y-60926D01*
X62445Y-61008D01*
X62685Y-60998D01*
X62860Y-60926D01*
X62894Y-60825D01*
X62894Y-61750D01*
X57894Y-61750D01*
X57894Y-60825D01*
X57540Y-60470D01*
X57469Y-60541D01*
X57469Y-60400D01*
X57114Y-60045D01*
X57055Y-60065D01*
X57052Y-60058D01*
X56882Y-59887D01*
X56660Y-59795D01*
X56420Y-59795D01*
X56198Y-59887D01*
X56039Y-60045D01*
X55882Y-59887D01*
X55660Y-59795D01*
X55420Y-59795D01*
X55198Y-59887D01*
X55039Y-60045D01*
X54882Y-59887D01*
X54660Y-59795D01*
X54420Y-59795D01*
X54198Y-59887D01*
X54039Y-60045D01*
X53882Y-59887D01*
X53660Y-59795D01*
X53420Y-59795D01*
X53198Y-59887D01*
X53128Y-59957D01*
X53106Y-59904D01*
X53036Y-59833D01*
X52944Y-59795D01*
X52844Y-59795D01*
X52136Y-59795D01*
X52044Y-59833D01*
X51973Y-59903D01*
X51935Y-59995D01*
X51935Y-60095D01*
X51935Y-60803D01*
X51973Y-60895D01*
X52043Y-60966D01*
X52135Y-61004D01*
X52235Y-61004D01*
X52943Y-61004D01*
X53035Y-60966D01*
X53106Y-60896D01*
X53128Y-60842D01*
X53197Y-60912D01*
X53419Y-61004D01*
X53659Y-61004D01*
X53881Y-60912D01*
X54040Y-60754D01*
X54197Y-60912D01*
X54419Y-61004D01*
X54659Y-61004D01*
X54881Y-60912D01*
X55040Y-60754D01*
X55197Y-60912D01*
X55419Y-61004D01*
X55659Y-61004D01*
X55881Y-60912D01*
X56040Y-60754D01*
X56197Y-60912D01*
X56419Y-61004D01*
X56659Y-61004D01*
X56881Y-60912D01*
X57052Y-60742D01*
X57055Y-60734D01*
X57114Y-60754D01*
X57469Y-60400D01*
X57469Y-60541D01*
X57185Y-60825D01*
X57219Y-60926D01*
X57445Y-61008D01*
X57685Y-60998D01*
X57860Y-60926D01*
X57894Y-60825D01*
X57894Y-61750D01*
X49308Y-61750D01*
X49308Y-44694D01*
X49298Y-44454D01*
X49226Y-44279D01*
X49125Y-44245D01*
X48770Y-44600D01*
X49125Y-44954D01*
X49226Y-44920D01*
X49308Y-44694D01*
X49308Y-61750D01*
X49304Y-61750D01*
X49304Y-53480D01*
X49212Y-53258D01*
X49054Y-53099D01*
X49212Y-52942D01*
X49304Y-52720D01*
X49304Y-52480D01*
X49212Y-52258D01*
X49054Y-52099D01*
X49212Y-51942D01*
X49304Y-51720D01*
X49304Y-51480D01*
X49212Y-51258D01*
X49054Y-51099D01*
X49212Y-50942D01*
X49304Y-50720D01*
X49304Y-50480D01*
X49212Y-50258D01*
X49054Y-50099D01*
X49212Y-49942D01*
X49304Y-49720D01*
X49304Y-49480D01*
X49212Y-49258D01*
X49054Y-49099D01*
X49212Y-48942D01*
X49304Y-48720D01*
X49304Y-48480D01*
X49212Y-48258D01*
X49054Y-48099D01*
X49212Y-47942D01*
X49304Y-47720D01*
X49304Y-47480D01*
X49212Y-47258D01*
X49054Y-47099D01*
X49212Y-46942D01*
X49304Y-46720D01*
X49304Y-46480D01*
X49212Y-46258D01*
X49054Y-46099D01*
X49212Y-45942D01*
X49304Y-45720D01*
X49304Y-45480D01*
X49212Y-45258D01*
X49042Y-45087D01*
X49034Y-45084D01*
X49054Y-45025D01*
X48700Y-44670D01*
X48629Y-44741D01*
X48629Y-44600D01*
X48274Y-44245D01*
X48173Y-44279D01*
X48091Y-44505D01*
X48101Y-44745D01*
X48173Y-44920D01*
X48274Y-44954D01*
X48629Y-44600D01*
X48629Y-44741D01*
X48345Y-45025D01*
X48365Y-45084D01*
X48358Y-45087D01*
X48187Y-45257D01*
X48095Y-45479D01*
X48095Y-45719D01*
X48187Y-45941D01*
X48345Y-46100D01*
X48187Y-46257D01*
X48095Y-46479D01*
X48095Y-46719D01*
X48187Y-46941D01*
X48345Y-47100D01*
X48187Y-47257D01*
X48095Y-47479D01*
X48095Y-47719D01*
X48187Y-47941D01*
X48345Y-48100D01*
X48187Y-48257D01*
X48095Y-48479D01*
X48095Y-48719D01*
X48187Y-48941D01*
X48345Y-49100D01*
X48187Y-49257D01*
X48095Y-49479D01*
X48095Y-49719D01*
X48187Y-49941D01*
X48345Y-50100D01*
X48187Y-50257D01*
X48095Y-50479D01*
X48095Y-50719D01*
X48187Y-50941D01*
X48345Y-51100D01*
X48187Y-51257D01*
X48095Y-51479D01*
X48095Y-51719D01*
X48187Y-51941D01*
X48345Y-52100D01*
X48187Y-52257D01*
X48095Y-52479D01*
X48095Y-52719D01*
X48187Y-52941D01*
X48345Y-53100D01*
X48187Y-53257D01*
X48095Y-53479D01*
X48095Y-53719D01*
X48187Y-53941D01*
X48357Y-54112D01*
X48579Y-54204D01*
X48819Y-54204D01*
X49041Y-54112D01*
X49212Y-53942D01*
X49304Y-53720D01*
X49304Y-53480D01*
X49304Y-61750D01*
X46270Y-61750D01*
X46270Y-28112D01*
X46110Y-27726D01*
X45815Y-27430D01*
X45429Y-27270D01*
X45012Y-27269D01*
X44626Y-27429D01*
X44330Y-27724D01*
X44170Y-28110D01*
X44169Y-28527D01*
X44329Y-28914D01*
X44624Y-29209D01*
X45010Y-29369D01*
X45427Y-29370D01*
X45814Y-29210D01*
X46109Y-28915D01*
X46269Y-28529D01*
X46270Y-28112D01*
X46270Y-61750D01*
X46080Y-61750D01*
X46080Y-34913D01*
X46080Y-34913D01*
X46080Y-33720D01*
X46080Y-32439D01*
X46042Y-32348D01*
X45972Y-32277D01*
X45880Y-32239D01*
X45780Y-32239D01*
X45352Y-32239D01*
X45290Y-32302D01*
X45290Y-33030D01*
X46018Y-33030D01*
X46080Y-32967D01*
X46080Y-32439D01*
X46080Y-33720D01*
X46080Y-33192D01*
X46018Y-33130D01*
X45290Y-33130D01*
X45290Y-33858D01*
X45352Y-33920D01*
X45780Y-33920D01*
X45880Y-33920D01*
X45972Y-33882D01*
X46042Y-33811D01*
X46080Y-33720D01*
X46080Y-34913D01*
X45952Y-34604D01*
X45716Y-34367D01*
X45407Y-34239D01*
X45190Y-34239D01*
X45190Y-33858D01*
X45190Y-33130D01*
X45190Y-33030D01*
X45190Y-32302D01*
X45127Y-32239D01*
X44699Y-32239D01*
X44599Y-32239D01*
X44507Y-32277D01*
X44437Y-32348D01*
X44399Y-32439D01*
X44399Y-32967D01*
X44462Y-33030D01*
X45190Y-33030D01*
X45190Y-33130D01*
X44462Y-33130D01*
X44399Y-33192D01*
X44399Y-33720D01*
X44437Y-33811D01*
X44507Y-33882D01*
X44599Y-33920D01*
X44699Y-33920D01*
X45127Y-33920D01*
X45190Y-33858D01*
X45190Y-34239D01*
X45073Y-34239D01*
X44764Y-34367D01*
X44527Y-34603D01*
X44399Y-34912D01*
X44399Y-35246D01*
X44527Y-35555D01*
X44763Y-35792D01*
X45072Y-35920D01*
X45406Y-35920D01*
X45715Y-35792D01*
X45952Y-35556D01*
X46080Y-35247D01*
X46080Y-34913D01*
X46080Y-61750D01*
X46050Y-61750D01*
X46050Y-59992D01*
X46040Y-59968D01*
X46040Y-54493D01*
X46040Y-54493D01*
X46040Y-53300D01*
X46040Y-52019D01*
X46002Y-51928D01*
X45932Y-51857D01*
X45840Y-51819D01*
X45740Y-51819D01*
X45312Y-51819D01*
X45250Y-51882D01*
X45250Y-52610D01*
X45978Y-52610D01*
X46040Y-52547D01*
X46040Y-52019D01*
X46040Y-53300D01*
X46040Y-52772D01*
X45978Y-52710D01*
X45250Y-52710D01*
X45250Y-53438D01*
X45312Y-53500D01*
X45740Y-53500D01*
X45840Y-53500D01*
X45932Y-53462D01*
X46002Y-53391D01*
X46040Y-53300D01*
X46040Y-54493D01*
X45912Y-54184D01*
X45676Y-53947D01*
X45367Y-53819D01*
X45150Y-53819D01*
X45150Y-53438D01*
X45150Y-52710D01*
X45150Y-52610D01*
X45150Y-51882D01*
X45087Y-51819D01*
X44659Y-51819D01*
X44559Y-51819D01*
X44467Y-51857D01*
X44397Y-51928D01*
X44359Y-52019D01*
X44359Y-52547D01*
X44422Y-52610D01*
X45150Y-52610D01*
X45150Y-52710D01*
X44422Y-52710D01*
X44359Y-52772D01*
X44359Y-53300D01*
X44397Y-53391D01*
X44467Y-53462D01*
X44559Y-53500D01*
X44659Y-53500D01*
X45087Y-53500D01*
X45150Y-53438D01*
X45150Y-53819D01*
X45033Y-53819D01*
X44724Y-53947D01*
X44487Y-54183D01*
X44359Y-54492D01*
X44359Y-54826D01*
X44487Y-55135D01*
X44723Y-55372D01*
X45032Y-55500D01*
X45366Y-55500D01*
X45675Y-55372D01*
X45912Y-55136D01*
X46040Y-54827D01*
X46040Y-54493D01*
X46040Y-59968D01*
X45890Y-59606D01*
X45595Y-59310D01*
X45209Y-59150D01*
X44792Y-59149D01*
X44406Y-59309D01*
X44110Y-59604D01*
X43950Y-59990D01*
X43949Y-60407D01*
X44109Y-60794D01*
X44404Y-61089D01*
X44790Y-61249D01*
X45207Y-61250D01*
X45594Y-61090D01*
X45889Y-60795D01*
X46049Y-60409D01*
X46050Y-59992D01*
X46050Y-61750D01*
X43550Y-61750D01*
X43550Y-26750D01*
X78550Y-26750D01*
X78550Y-61750D01*
X78550Y-61750D01*
G37*
G54D23*
X78550Y-61750D02*
X78469Y-61750D01*
X78469Y-43910D01*
X78464Y-43809D01*
X78464Y-42704D01*
X78375Y-42489D01*
X78211Y-42324D01*
X78200Y-42320D01*
X78210Y-42315D01*
X78375Y-42151D01*
X78464Y-41936D01*
X78464Y-41704D01*
X78375Y-41489D01*
X78211Y-41324D01*
X78050Y-41257D01*
X78050Y-27992D01*
X77890Y-27606D01*
X77595Y-27310D01*
X77209Y-27150D01*
X76792Y-27149D01*
X76406Y-27309D01*
X76110Y-27604D01*
X75950Y-27990D01*
X75949Y-28407D01*
X76109Y-28794D01*
X76404Y-29089D01*
X76790Y-29249D01*
X77207Y-29250D01*
X77594Y-29090D01*
X77889Y-28795D01*
X78049Y-28409D01*
X78050Y-27992D01*
X78050Y-41257D01*
X77996Y-41235D01*
X77764Y-41235D01*
X77549Y-41324D01*
X77384Y-41488D01*
X77295Y-41703D01*
X77295Y-41935D01*
X77384Y-42150D01*
X77548Y-42315D01*
X77559Y-42319D01*
X77549Y-42324D01*
X77384Y-42488D01*
X77295Y-42703D01*
X77295Y-42935D01*
X77384Y-43150D01*
X77548Y-43315D01*
X77567Y-43323D01*
X77539Y-43408D01*
X77880Y-43749D01*
X78220Y-43408D01*
X78192Y-43323D01*
X78210Y-43315D01*
X78375Y-43151D01*
X78464Y-42936D01*
X78464Y-42704D01*
X78464Y-43809D01*
X78458Y-43677D01*
X78389Y-43511D01*
X78291Y-43479D01*
X77950Y-43820D01*
X78291Y-44160D01*
X78389Y-44128D01*
X78469Y-43910D01*
X78469Y-61750D01*
X78464Y-61750D01*
X78464Y-44704D01*
X78375Y-44489D01*
X78211Y-44324D01*
X78192Y-44316D01*
X78220Y-44231D01*
X77880Y-43890D01*
X77809Y-43961D01*
X77809Y-43820D01*
X77468Y-43479D01*
X77370Y-43511D01*
X77290Y-43729D01*
X77301Y-43962D01*
X77370Y-44128D01*
X77468Y-44160D01*
X77809Y-43820D01*
X77809Y-43961D01*
X77539Y-44231D01*
X77567Y-44316D01*
X77549Y-44324D01*
X77384Y-44488D01*
X77295Y-44703D01*
X77295Y-44935D01*
X77384Y-45150D01*
X77476Y-45243D01*
X77403Y-45273D01*
X77333Y-45343D01*
X77295Y-45435D01*
X77295Y-45534D01*
X77295Y-45607D01*
X77294Y-45607D01*
X76461Y-46441D01*
X76396Y-46538D01*
X76373Y-46653D01*
X76373Y-54580D01*
X76188Y-54764D01*
X76188Y-43794D01*
X76184Y-43689D01*
X76184Y-42580D01*
X76092Y-42358D01*
X75934Y-42199D01*
X76092Y-42042D01*
X76184Y-41820D01*
X76184Y-41580D01*
X76092Y-41358D01*
X75934Y-41199D01*
X76092Y-41042D01*
X76184Y-40820D01*
X76184Y-40580D01*
X76092Y-40358D01*
X75934Y-40199D01*
X76092Y-40042D01*
X76184Y-39820D01*
X76184Y-39580D01*
X76092Y-39358D01*
X75934Y-39199D01*
X76092Y-39042D01*
X76184Y-38820D01*
X76184Y-38580D01*
X76092Y-38358D01*
X75934Y-38199D01*
X76092Y-38042D01*
X76184Y-37820D01*
X76184Y-37580D01*
X76092Y-37358D01*
X75934Y-37199D01*
X76092Y-37042D01*
X76184Y-36820D01*
X76184Y-36580D01*
X76092Y-36358D01*
X75934Y-36199D01*
X76092Y-36042D01*
X76184Y-35820D01*
X76184Y-35580D01*
X76092Y-35358D01*
X75934Y-35199D01*
X76092Y-35042D01*
X76184Y-34820D01*
X76184Y-34580D01*
X76092Y-34358D01*
X75922Y-34187D01*
X75700Y-34095D01*
X75460Y-34095D01*
X75238Y-34187D01*
X75067Y-34357D01*
X74975Y-34579D01*
X74975Y-34819D01*
X75067Y-35041D01*
X75225Y-35200D01*
X75067Y-35357D01*
X74975Y-35579D01*
X74975Y-35819D01*
X75067Y-36041D01*
X75225Y-36200D01*
X75067Y-36357D01*
X74975Y-36579D01*
X74975Y-36819D01*
X75067Y-37041D01*
X75225Y-37200D01*
X75067Y-37357D01*
X74975Y-37579D01*
X74975Y-37819D01*
X75067Y-38041D01*
X75225Y-38200D01*
X75067Y-38357D01*
X74975Y-38579D01*
X74975Y-38819D01*
X75067Y-39041D01*
X75225Y-39200D01*
X75067Y-39357D01*
X74975Y-39579D01*
X74975Y-39819D01*
X75067Y-40041D01*
X75225Y-40200D01*
X75067Y-40357D01*
X74975Y-40579D01*
X74975Y-40819D01*
X75067Y-41041D01*
X75225Y-41200D01*
X75067Y-41357D01*
X74975Y-41579D01*
X74975Y-41819D01*
X75067Y-42041D01*
X75225Y-42200D01*
X75067Y-42357D01*
X74975Y-42579D01*
X74975Y-42819D01*
X75067Y-43041D01*
X75237Y-43212D01*
X75245Y-43215D01*
X75225Y-43274D01*
X75580Y-43629D01*
X75934Y-43274D01*
X75914Y-43215D01*
X75921Y-43212D01*
X76092Y-43042D01*
X76184Y-42820D01*
X76184Y-42580D01*
X76184Y-43689D01*
X76178Y-43554D01*
X76106Y-43379D01*
X76005Y-43345D01*
X75650Y-43700D01*
X76005Y-44054D01*
X76106Y-44020D01*
X76188Y-43794D01*
X76188Y-54764D01*
X76184Y-54769D01*
X76184Y-52580D01*
X76092Y-52358D01*
X75934Y-52199D01*
X76092Y-52042D01*
X76184Y-51820D01*
X76184Y-51580D01*
X76092Y-51358D01*
X75934Y-51199D01*
X76092Y-51042D01*
X76184Y-50820D01*
X76184Y-50580D01*
X76092Y-50358D01*
X75934Y-50199D01*
X76092Y-50042D01*
X76184Y-49820D01*
X76184Y-49580D01*
X76092Y-49358D01*
X75934Y-49199D01*
X76092Y-49042D01*
X76184Y-48820D01*
X76184Y-48580D01*
X76092Y-48358D01*
X75934Y-48199D01*
X76092Y-48042D01*
X76184Y-47820D01*
X76184Y-47580D01*
X76092Y-47358D01*
X75934Y-47199D01*
X76092Y-47042D01*
X76184Y-46820D01*
X76184Y-46580D01*
X76092Y-46358D01*
X75934Y-46199D01*
X76092Y-46042D01*
X76184Y-45820D01*
X76184Y-45580D01*
X76092Y-45358D01*
X75934Y-45199D01*
X76092Y-45042D01*
X76184Y-44820D01*
X76184Y-44580D01*
X76092Y-44358D01*
X75922Y-44187D01*
X75914Y-44184D01*
X75934Y-44125D01*
X75580Y-43770D01*
X75509Y-43841D01*
X75509Y-43700D01*
X75154Y-43345D01*
X75053Y-43379D01*
X74971Y-43605D01*
X74981Y-43845D01*
X75053Y-44020D01*
X75154Y-44054D01*
X75509Y-43700D01*
X75509Y-43841D01*
X75225Y-44125D01*
X75245Y-44184D01*
X75238Y-44187D01*
X75067Y-44357D01*
X74975Y-44579D01*
X74975Y-44819D01*
X75067Y-45041D01*
X75225Y-45200D01*
X75067Y-45357D01*
X74975Y-45579D01*
X74975Y-45819D01*
X75067Y-46041D01*
X75225Y-46200D01*
X75067Y-46357D01*
X74975Y-46579D01*
X74975Y-46819D01*
X75067Y-47041D01*
X75225Y-47200D01*
X75067Y-47357D01*
X74975Y-47579D01*
X74975Y-47819D01*
X75067Y-48041D01*
X75225Y-48200D01*
X75067Y-48357D01*
X74975Y-48579D01*
X74975Y-48819D01*
X75067Y-49041D01*
X75225Y-49200D01*
X75067Y-49357D01*
X74975Y-49579D01*
X74975Y-49819D01*
X75067Y-50041D01*
X75225Y-50200D01*
X75067Y-50357D01*
X74975Y-50579D01*
X74975Y-50819D01*
X75067Y-51041D01*
X75225Y-51200D01*
X75067Y-51357D01*
X74975Y-51579D01*
X74975Y-51819D01*
X75067Y-52041D01*
X75225Y-52200D01*
X75067Y-52357D01*
X74975Y-52579D01*
X74975Y-52819D01*
X75067Y-53041D01*
X75137Y-53111D01*
X75084Y-53133D01*
X75013Y-53203D01*
X74975Y-53295D01*
X74975Y-53395D01*
X74975Y-54103D01*
X75013Y-54195D01*
X75083Y-54266D01*
X75175Y-54304D01*
X75275Y-54304D01*
X75983Y-54304D01*
X76075Y-54266D01*
X76146Y-54196D01*
X76184Y-54104D01*
X76184Y-54004D01*
X76184Y-53296D01*
X76146Y-53204D01*
X76076Y-53133D01*
X76022Y-53111D01*
X76092Y-53042D01*
X76184Y-52820D01*
X76184Y-52580D01*
X76184Y-54769D01*
X75722Y-55231D01*
X72124Y-55231D01*
X72124Y-28744D01*
X72124Y-28036D01*
X72086Y-27944D01*
X72016Y-27873D01*
X71924Y-27835D01*
X71824Y-27835D01*
X71116Y-27835D01*
X71024Y-27873D01*
X70953Y-27943D01*
X70931Y-27997D01*
X70862Y-27927D01*
X70640Y-27835D01*
X70400Y-27835D01*
X70178Y-27927D01*
X70019Y-28085D01*
X69862Y-27927D01*
X69640Y-27835D01*
X69400Y-27835D01*
X69178Y-27927D01*
X69019Y-28085D01*
X68862Y-27927D01*
X68640Y-27835D01*
X68400Y-27835D01*
X68178Y-27927D01*
X68019Y-28085D01*
X67862Y-27927D01*
X67640Y-27835D01*
X67400Y-27835D01*
X67178Y-27927D01*
X67019Y-28085D01*
X66862Y-27927D01*
X66640Y-27835D01*
X66400Y-27835D01*
X66178Y-27927D01*
X66019Y-28085D01*
X65862Y-27927D01*
X65640Y-27835D01*
X65400Y-27835D01*
X65178Y-27927D01*
X65019Y-28085D01*
X64862Y-27927D01*
X64640Y-27835D01*
X64400Y-27835D01*
X64178Y-27927D01*
X64019Y-28085D01*
X63862Y-27927D01*
X63640Y-27835D01*
X63400Y-27835D01*
X63178Y-27927D01*
X63007Y-28097D01*
X63004Y-28105D01*
X62945Y-28085D01*
X62874Y-28156D01*
X62874Y-28014D01*
X62840Y-27913D01*
X62614Y-27831D01*
X62374Y-27841D01*
X62199Y-27913D01*
X62165Y-28014D01*
X62520Y-28369D01*
X62874Y-28014D01*
X62874Y-28156D01*
X62590Y-28440D01*
X62945Y-28794D01*
X63004Y-28774D01*
X63007Y-28781D01*
X63177Y-28952D01*
X63399Y-29044D01*
X63639Y-29044D01*
X63861Y-28952D01*
X64020Y-28794D01*
X64177Y-28952D01*
X64399Y-29044D01*
X64639Y-29044D01*
X64861Y-28952D01*
X65020Y-28794D01*
X65177Y-28952D01*
X65399Y-29044D01*
X65639Y-29044D01*
X65861Y-28952D01*
X66020Y-28794D01*
X66177Y-28952D01*
X66399Y-29044D01*
X66639Y-29044D01*
X66861Y-28952D01*
X67020Y-28794D01*
X67177Y-28952D01*
X67399Y-29044D01*
X67639Y-29044D01*
X67861Y-28952D01*
X68020Y-28794D01*
X68177Y-28952D01*
X68399Y-29044D01*
X68639Y-29044D01*
X68861Y-28952D01*
X69020Y-28794D01*
X69177Y-28952D01*
X69399Y-29044D01*
X69639Y-29044D01*
X69861Y-28952D01*
X70020Y-28794D01*
X70177Y-28952D01*
X70399Y-29044D01*
X70639Y-29044D01*
X70861Y-28952D01*
X70931Y-28882D01*
X70953Y-28935D01*
X71023Y-29006D01*
X71115Y-29044D01*
X71215Y-29044D01*
X71923Y-29044D01*
X72015Y-29006D01*
X72086Y-28936D01*
X72124Y-28844D01*
X72124Y-28744D01*
X72124Y-55231D01*
X70698Y-55231D01*
X70698Y-34240D01*
X70698Y-32677D01*
X62874Y-32677D01*
X62874Y-28865D01*
X62520Y-28510D01*
X62449Y-28581D01*
X62449Y-28440D01*
X62094Y-28085D01*
X62035Y-28105D01*
X62032Y-28098D01*
X61862Y-27927D01*
X61640Y-27835D01*
X61400Y-27835D01*
X61178Y-27927D01*
X61019Y-28085D01*
X60862Y-27927D01*
X60640Y-27835D01*
X60400Y-27835D01*
X60178Y-27927D01*
X60019Y-28085D01*
X59862Y-27927D01*
X59640Y-27835D01*
X59400Y-27835D01*
X59178Y-27927D01*
X59019Y-28085D01*
X58862Y-27927D01*
X58640Y-27835D01*
X58400Y-27835D01*
X58178Y-27927D01*
X58019Y-28085D01*
X57862Y-27927D01*
X57640Y-27835D01*
X57400Y-27835D01*
X57178Y-27927D01*
X57019Y-28085D01*
X56862Y-27927D01*
X56640Y-27835D01*
X56400Y-27835D01*
X56178Y-27927D01*
X56019Y-28085D01*
X55862Y-27927D01*
X55640Y-27835D01*
X55400Y-27835D01*
X55178Y-27927D01*
X55019Y-28085D01*
X54862Y-27927D01*
X54640Y-27835D01*
X54400Y-27835D01*
X54178Y-27927D01*
X54019Y-28085D01*
X53862Y-27927D01*
X53640Y-27835D01*
X53400Y-27835D01*
X53178Y-27927D01*
X53019Y-28085D01*
X52862Y-27927D01*
X52640Y-27835D01*
X52400Y-27835D01*
X52178Y-27927D01*
X52007Y-28097D01*
X51915Y-28319D01*
X51915Y-28559D01*
X52007Y-28781D01*
X52177Y-28952D01*
X52399Y-29044D01*
X52639Y-29044D01*
X52861Y-28952D01*
X53020Y-28794D01*
X53177Y-28952D01*
X53399Y-29044D01*
X53639Y-29044D01*
X53861Y-28952D01*
X54020Y-28794D01*
X54177Y-28952D01*
X54399Y-29044D01*
X54639Y-29044D01*
X54861Y-28952D01*
X55020Y-28794D01*
X55177Y-28952D01*
X55399Y-29044D01*
X55639Y-29044D01*
X55861Y-28952D01*
X56020Y-28794D01*
X56177Y-28952D01*
X56399Y-29044D01*
X56639Y-29044D01*
X56861Y-28952D01*
X57020Y-28794D01*
X57177Y-28952D01*
X57399Y-29044D01*
X57639Y-29044D01*
X57861Y-28952D01*
X58020Y-28794D01*
X58177Y-28952D01*
X58399Y-29044D01*
X58639Y-29044D01*
X58861Y-28952D01*
X59020Y-28794D01*
X59177Y-28952D01*
X59399Y-29044D01*
X59639Y-29044D01*
X59861Y-28952D01*
X60020Y-28794D01*
X60177Y-28952D01*
X60399Y-29044D01*
X60639Y-29044D01*
X60861Y-28952D01*
X61020Y-28794D01*
X61177Y-28952D01*
X61399Y-29044D01*
X61639Y-29044D01*
X61861Y-28952D01*
X62032Y-28782D01*
X62035Y-28774D01*
X62094Y-28794D01*
X62449Y-28440D01*
X62449Y-28581D01*
X62165Y-28865D01*
X62199Y-28966D01*
X62425Y-29048D01*
X62665Y-29038D01*
X62840Y-28966D01*
X62874Y-28865D01*
X62874Y-32677D01*
X54501Y-32677D01*
X54501Y-34240D01*
X70698Y-34240D01*
X70698Y-55231D01*
X64059Y-55231D01*
X64059Y-45839D01*
X64059Y-45348D01*
X64059Y-45248D01*
X64020Y-45156D01*
X63950Y-45086D01*
X63934Y-45079D01*
X63948Y-45045D01*
X63948Y-44876D01*
X63919Y-44805D01*
X63976Y-44748D01*
X64014Y-44656D01*
X64014Y-44557D01*
X64014Y-44045D01*
X63985Y-43975D01*
X64014Y-43906D01*
X64014Y-43295D01*
X63976Y-43203D01*
X63906Y-43132D01*
X63814Y-43094D01*
X63714Y-43094D01*
X63581Y-43094D01*
X63519Y-43157D01*
X63519Y-43550D01*
X63951Y-43550D01*
X64014Y-43488D01*
X64014Y-43295D01*
X64014Y-43906D01*
X64014Y-43713D01*
X63951Y-43650D01*
X63519Y-43650D01*
X63519Y-43658D01*
X63419Y-43658D01*
X63419Y-43650D01*
X63419Y-43550D01*
X63419Y-43157D01*
X63356Y-43094D01*
X63223Y-43094D01*
X63209Y-43094D01*
X63216Y-43076D01*
X63216Y-42976D01*
X63216Y-42486D01*
X63216Y-42386D01*
X63178Y-42294D01*
X63108Y-42224D01*
X63016Y-42186D01*
X62823Y-42186D01*
X62760Y-42248D01*
X62760Y-42681D01*
X63154Y-42681D01*
X63216Y-42618D01*
X63216Y-42486D01*
X63216Y-42976D01*
X63216Y-42843D01*
X63154Y-42781D01*
X62760Y-42781D01*
X62760Y-43213D01*
X62823Y-43276D01*
X62932Y-43276D01*
X62924Y-43295D01*
X62924Y-43488D01*
X62986Y-43550D01*
X63419Y-43550D01*
X63419Y-43650D01*
X62986Y-43650D01*
X62924Y-43713D01*
X62924Y-43906D01*
X62953Y-43975D01*
X62924Y-44044D01*
X62924Y-44144D01*
X62924Y-44656D01*
X62962Y-44748D01*
X63032Y-44818D01*
X63109Y-44850D01*
X63098Y-44875D01*
X63098Y-45044D01*
X63100Y-45048D01*
X63009Y-45048D01*
X62660Y-45048D01*
X62660Y-43213D01*
X62660Y-42781D01*
X62652Y-42781D01*
X62652Y-42681D01*
X62660Y-42681D01*
X62660Y-42248D01*
X62598Y-42186D01*
X62405Y-42186D01*
X62335Y-42215D01*
X62266Y-42186D01*
X62167Y-42186D01*
X61655Y-42186D01*
X61563Y-42224D01*
X61496Y-42290D01*
X61403Y-42252D01*
X61234Y-42252D01*
X61078Y-42316D01*
X60958Y-42436D01*
X60893Y-42592D01*
X60893Y-42745D01*
X60826Y-42745D01*
X60763Y-42807D01*
X60763Y-43329D01*
X61196Y-43329D01*
X61259Y-43266D01*
X61259Y-43102D01*
X61403Y-43102D01*
X61456Y-43080D01*
X61492Y-43167D01*
X61562Y-43238D01*
X61654Y-43276D01*
X61754Y-43276D01*
X62266Y-43276D01*
X62335Y-43247D01*
X62405Y-43276D01*
X62598Y-43276D01*
X62660Y-43213D01*
X62660Y-45048D01*
X62497Y-45048D01*
X62405Y-45086D01*
X62335Y-45156D01*
X62297Y-45248D01*
X62297Y-45268D01*
X62191Y-45224D01*
X62022Y-45224D01*
X61954Y-45252D01*
X61926Y-45184D01*
X61856Y-45114D01*
X61764Y-45076D01*
X61571Y-45076D01*
X61508Y-45138D01*
X61508Y-45571D01*
X61516Y-45571D01*
X61516Y-45671D01*
X61508Y-45671D01*
X61508Y-46103D01*
X61571Y-46166D01*
X61764Y-46166D01*
X61856Y-46128D01*
X61926Y-46058D01*
X61934Y-46038D01*
X62021Y-46074D01*
X62190Y-46074D01*
X62329Y-46017D01*
X62335Y-46030D01*
X62405Y-46100D01*
X62497Y-46138D01*
X62596Y-46138D01*
X63108Y-46138D01*
X63178Y-46110D01*
X63247Y-46138D01*
X63440Y-46138D01*
X63503Y-46076D01*
X63503Y-45643D01*
X63495Y-45643D01*
X63495Y-45543D01*
X63503Y-45543D01*
X63503Y-45535D01*
X63603Y-45535D01*
X63603Y-45543D01*
X63996Y-45543D01*
X64059Y-45481D01*
X64059Y-45348D01*
X64059Y-45839D01*
X64059Y-45706D01*
X63996Y-45643D01*
X63603Y-45643D01*
X63603Y-46076D01*
X63665Y-46138D01*
X63858Y-46138D01*
X63950Y-46100D01*
X64020Y-46030D01*
X64059Y-45938D01*
X64059Y-45839D01*
X64059Y-55231D01*
X61755Y-55231D01*
X61408Y-54884D01*
X61408Y-46103D01*
X61408Y-45671D01*
X61400Y-45671D01*
X61400Y-45571D01*
X61408Y-45571D01*
X61408Y-45138D01*
X61346Y-45076D01*
X61153Y-45076D01*
X61083Y-45104D01*
X61059Y-45095D01*
X61150Y-45057D01*
X61220Y-44987D01*
X61258Y-44895D01*
X61259Y-44795D01*
X61259Y-44027D01*
X61221Y-43936D01*
X61205Y-43920D01*
X61221Y-43904D01*
X61259Y-43812D01*
X61259Y-43491D01*
X61196Y-43429D01*
X60763Y-43429D01*
X60763Y-43437D01*
X60663Y-43437D01*
X60663Y-43429D01*
X60663Y-43329D01*
X60663Y-42807D01*
X60601Y-42745D01*
X60467Y-42745D01*
X60368Y-42745D01*
X60276Y-42783D01*
X60205Y-42854D01*
X60168Y-42945D01*
X60168Y-43266D01*
X60230Y-43329D01*
X60663Y-43329D01*
X60663Y-43429D01*
X60230Y-43429D01*
X60168Y-43491D01*
X60168Y-43812D01*
X60205Y-43904D01*
X60221Y-43920D01*
X60206Y-43935D01*
X60168Y-44027D01*
X60168Y-44126D01*
X60168Y-44604D01*
X60118Y-44653D01*
X60033Y-44653D01*
X59877Y-44718D01*
X59758Y-44837D01*
X59693Y-44993D01*
X59693Y-45162D01*
X59757Y-45319D01*
X59877Y-45438D01*
X59914Y-45454D01*
X59860Y-45534D01*
X59837Y-45649D01*
X59837Y-45840D01*
X59758Y-45920D01*
X59693Y-46076D01*
X59693Y-46245D01*
X59757Y-46401D01*
X59877Y-46521D01*
X60033Y-46586D01*
X60202Y-46586D01*
X60358Y-46521D01*
X60478Y-46402D01*
X60543Y-46246D01*
X60543Y-46166D01*
X61014Y-46166D01*
X61083Y-46137D01*
X61153Y-46166D01*
X61346Y-46166D01*
X61408Y-46103D01*
X61408Y-54884D01*
X49286Y-42762D01*
X49304Y-42720D01*
X49304Y-42480D01*
X49212Y-42258D01*
X49054Y-42099D01*
X49212Y-41942D01*
X49304Y-41720D01*
X49304Y-41480D01*
X49212Y-41258D01*
X49054Y-41099D01*
X49212Y-40942D01*
X49304Y-40720D01*
X49304Y-40480D01*
X49212Y-40258D01*
X49054Y-40099D01*
X49212Y-39942D01*
X49304Y-39720D01*
X49304Y-39480D01*
X49212Y-39258D01*
X49054Y-39099D01*
X49212Y-38942D01*
X49304Y-38720D01*
X49304Y-38480D01*
X49212Y-38258D01*
X49054Y-38099D01*
X49212Y-37942D01*
X49304Y-37720D01*
X49304Y-37480D01*
X49212Y-37258D01*
X49054Y-37099D01*
X49212Y-36942D01*
X49304Y-36720D01*
X49304Y-36480D01*
X49212Y-36258D01*
X49054Y-36099D01*
X49212Y-35942D01*
X49304Y-35720D01*
X49304Y-35480D01*
X49212Y-35258D01*
X49142Y-35188D01*
X49195Y-35166D01*
X49266Y-35096D01*
X49304Y-35004D01*
X49304Y-34904D01*
X49304Y-34196D01*
X49266Y-34104D01*
X49196Y-34033D01*
X49104Y-33995D01*
X49004Y-33995D01*
X48296Y-33995D01*
X48204Y-34033D01*
X48133Y-34103D01*
X48095Y-34195D01*
X48095Y-34295D01*
X48095Y-35003D01*
X48133Y-35095D01*
X48203Y-35166D01*
X48257Y-35188D01*
X48187Y-35257D01*
X48095Y-35479D01*
X48095Y-35719D01*
X48187Y-35941D01*
X48345Y-36100D01*
X48187Y-36257D01*
X48095Y-36479D01*
X48095Y-36719D01*
X48187Y-36941D01*
X48345Y-37100D01*
X48187Y-37257D01*
X48095Y-37479D01*
X48095Y-37719D01*
X48187Y-37941D01*
X48345Y-38100D01*
X48187Y-38257D01*
X48095Y-38479D01*
X48095Y-38719D01*
X48187Y-38941D01*
X48345Y-39100D01*
X48187Y-39257D01*
X48095Y-39479D01*
X48095Y-39719D01*
X48187Y-39941D01*
X48345Y-40100D01*
X48187Y-40257D01*
X48095Y-40479D01*
X48095Y-40719D01*
X48187Y-40941D01*
X48345Y-41100D01*
X48187Y-41257D01*
X48095Y-41479D01*
X48095Y-41719D01*
X48187Y-41941D01*
X48345Y-42100D01*
X48187Y-42257D01*
X48095Y-42479D01*
X48095Y-42719D01*
X48187Y-42941D01*
X48345Y-43100D01*
X48187Y-43257D01*
X48095Y-43479D01*
X48095Y-43719D01*
X48187Y-43941D01*
X48357Y-44112D01*
X48365Y-44115D01*
X48345Y-44174D01*
X48700Y-44529D01*
X49054Y-44174D01*
X49034Y-44115D01*
X49041Y-44112D01*
X49212Y-43942D01*
X49304Y-43720D01*
X49304Y-43628D01*
X61419Y-55743D01*
X61419Y-55743D01*
X61516Y-55808D01*
X61631Y-55831D01*
X75846Y-55831D01*
X75846Y-55831D01*
X75961Y-55808D01*
X75961Y-55808D01*
X76058Y-55743D01*
X76885Y-54916D01*
X76885Y-54916D01*
X76950Y-54819D01*
X76973Y-54704D01*
X76973Y-54704D01*
X76973Y-46777D01*
X77394Y-46356D01*
X77403Y-46366D01*
X77495Y-46404D01*
X77594Y-46404D01*
X78264Y-46404D01*
X78356Y-46366D01*
X78426Y-46296D01*
X78464Y-46204D01*
X78464Y-46105D01*
X78464Y-45435D01*
X78426Y-45343D01*
X78356Y-45273D01*
X78283Y-45243D01*
X78375Y-45151D01*
X78464Y-44936D01*
X78464Y-44704D01*
X78464Y-61750D01*
X77850Y-61750D01*
X77850Y-59892D01*
X77690Y-59506D01*
X77395Y-59210D01*
X77009Y-59050D01*
X76592Y-59049D01*
X76206Y-59209D01*
X75910Y-59504D01*
X75750Y-59890D01*
X75749Y-60307D01*
X75909Y-60694D01*
X76204Y-60989D01*
X76590Y-61149D01*
X77007Y-61150D01*
X77394Y-60990D01*
X77689Y-60695D01*
X77849Y-60309D01*
X77850Y-59892D01*
X77850Y-61750D01*
X72144Y-61750D01*
X72144Y-60280D01*
X72052Y-60058D01*
X71882Y-59887D01*
X71660Y-59795D01*
X71420Y-59795D01*
X71198Y-59887D01*
X71039Y-60045D01*
X70882Y-59887D01*
X70660Y-59795D01*
X70420Y-59795D01*
X70198Y-59887D01*
X70039Y-60045D01*
X69882Y-59887D01*
X69660Y-59795D01*
X69420Y-59795D01*
X69198Y-59887D01*
X69039Y-60045D01*
X68882Y-59887D01*
X68660Y-59795D01*
X68420Y-59795D01*
X68198Y-59887D01*
X68039Y-60045D01*
X67882Y-59887D01*
X67660Y-59795D01*
X67420Y-59795D01*
X67198Y-59887D01*
X67039Y-60045D01*
X66882Y-59887D01*
X66660Y-59795D01*
X66420Y-59795D01*
X66198Y-59887D01*
X66039Y-60045D01*
X65882Y-59887D01*
X65840Y-59870D01*
X65840Y-58473D01*
X65839Y-58473D01*
X65817Y-58358D01*
X65752Y-58260D01*
X65752Y-58260D01*
X65487Y-57996D01*
X65447Y-57969D01*
X65447Y-57864D01*
X65409Y-57772D01*
X65339Y-57701D01*
X65247Y-57663D01*
X65148Y-57663D01*
X64636Y-57663D01*
X64566Y-57692D01*
X64497Y-57663D01*
X64398Y-57663D01*
X63886Y-57663D01*
X63794Y-57701D01*
X63724Y-57771D01*
X63685Y-57863D01*
X63685Y-57963D01*
X63685Y-58290D01*
X63327Y-58648D01*
X63262Y-58745D01*
X63240Y-58860D01*
X63240Y-59870D01*
X63198Y-59887D01*
X63027Y-60057D01*
X63024Y-60065D01*
X62965Y-60045D01*
X62894Y-60116D01*
X62894Y-59974D01*
X62860Y-59873D01*
X62634Y-59791D01*
X62394Y-59801D01*
X62219Y-59873D01*
X62185Y-59974D01*
X62540Y-60329D01*
X62894Y-59974D01*
X62894Y-60116D01*
X62610Y-60400D01*
X62965Y-60754D01*
X63024Y-60734D01*
X63027Y-60741D01*
X63197Y-60912D01*
X63419Y-61004D01*
X63659Y-61004D01*
X63881Y-60912D01*
X64040Y-60754D01*
X64197Y-60912D01*
X64419Y-61004D01*
X64659Y-61004D01*
X64881Y-60912D01*
X65040Y-60754D01*
X65197Y-60912D01*
X65419Y-61004D01*
X65659Y-61004D01*
X65881Y-60912D01*
X66040Y-60754D01*
X66197Y-60912D01*
X66419Y-61004D01*
X66659Y-61004D01*
X66881Y-60912D01*
X67040Y-60754D01*
X67197Y-60912D01*
X67419Y-61004D01*
X67659Y-61004D01*
X67881Y-60912D01*
X68040Y-60754D01*
X68197Y-60912D01*
X68419Y-61004D01*
X68659Y-61004D01*
X68881Y-60912D01*
X69040Y-60754D01*
X69197Y-60912D01*
X69419Y-61004D01*
X69659Y-61004D01*
X69881Y-60912D01*
X70040Y-60754D01*
X70197Y-60912D01*
X70419Y-61004D01*
X70659Y-61004D01*
X70881Y-60912D01*
X71040Y-60754D01*
X71197Y-60912D01*
X71419Y-61004D01*
X71659Y-61004D01*
X71881Y-60912D01*
X72052Y-60742D01*
X72144Y-60520D01*
X72144Y-60280D01*
X72144Y-61750D01*
X62894Y-61750D01*
X62894Y-60825D01*
X62540Y-60470D01*
X62469Y-60541D01*
X62469Y-60400D01*
X62114Y-60045D01*
X62055Y-60065D01*
X62052Y-60058D01*
X61882Y-59887D01*
X61660Y-59795D01*
X61420Y-59795D01*
X61198Y-59887D01*
X61039Y-60045D01*
X60882Y-59887D01*
X60660Y-59795D01*
X60420Y-59795D01*
X60198Y-59887D01*
X60039Y-60045D01*
X59882Y-59887D01*
X59660Y-59795D01*
X59420Y-59795D01*
X59198Y-59887D01*
X59039Y-60045D01*
X58882Y-59887D01*
X58660Y-59795D01*
X58420Y-59795D01*
X58198Y-59887D01*
X58027Y-60057D01*
X58024Y-60065D01*
X57965Y-60045D01*
X57894Y-60116D01*
X57894Y-59974D01*
X57860Y-59873D01*
X57634Y-59791D01*
X57394Y-59801D01*
X57219Y-59873D01*
X57185Y-59974D01*
X57540Y-60329D01*
X57894Y-59974D01*
X57894Y-60116D01*
X57610Y-60400D01*
X57965Y-60754D01*
X58024Y-60734D01*
X58027Y-60741D01*
X58197Y-60912D01*
X58419Y-61004D01*
X58659Y-61004D01*
X58881Y-60912D01*
X59040Y-60754D01*
X59197Y-60912D01*
X59419Y-61004D01*
X59659Y-61004D01*
X59881Y-60912D01*
X60040Y-60754D01*
X60197Y-60912D01*
X60419Y-61004D01*
X60659Y-61004D01*
X60881Y-60912D01*
X61040Y-60754D01*
X61197Y-60912D01*
X61419Y-61004D01*
X61659Y-61004D01*
X61881Y-60912D01*
X62052Y-60742D01*
X62055Y-60734D01*
X62114Y-60754D01*
X62469Y-60400D01*
X62469Y-60541D01*
X62185Y-60825D01*
X62219Y-60926D01*
X62445Y-61008D01*
X62685Y-60998D01*
X62860Y-60926D01*
X62894Y-60825D01*
X62894Y-61750D01*
X57894Y-61750D01*
X57894Y-60825D01*
X57540Y-60470D01*
X57469Y-60541D01*
X57469Y-60400D01*
X57114Y-60045D01*
X57055Y-60065D01*
X57052Y-60058D01*
X56882Y-59887D01*
X56660Y-59795D01*
X56420Y-59795D01*
X56198Y-59887D01*
X56039Y-60045D01*
X55882Y-59887D01*
X55660Y-59795D01*
X55420Y-59795D01*
X55198Y-59887D01*
X55039Y-60045D01*
X54882Y-59887D01*
X54660Y-59795D01*
X54420Y-59795D01*
X54198Y-59887D01*
X54039Y-60045D01*
X53882Y-59887D01*
X53660Y-59795D01*
X53420Y-59795D01*
X53198Y-59887D01*
X53128Y-59957D01*
X53106Y-59904D01*
X53036Y-59833D01*
X52944Y-59795D01*
X52844Y-59795D01*
X52136Y-59795D01*
X52044Y-59833D01*
X51973Y-59903D01*
X51935Y-59995D01*
X51935Y-60095D01*
X51935Y-60803D01*
X51973Y-60895D01*
X52043Y-60966D01*
X52135Y-61004D01*
X52235Y-61004D01*
X52943Y-61004D01*
X53035Y-60966D01*
X53106Y-60896D01*
X53128Y-60842D01*
X53197Y-60912D01*
X53419Y-61004D01*
X53659Y-61004D01*
X53881Y-60912D01*
X54040Y-60754D01*
X54197Y-60912D01*
X54419Y-61004D01*
X54659Y-61004D01*
X54881Y-60912D01*
X55040Y-60754D01*
X55197Y-60912D01*
X55419Y-61004D01*
X55659Y-61004D01*
X55881Y-60912D01*
X56040Y-60754D01*
X56197Y-60912D01*
X56419Y-61004D01*
X56659Y-61004D01*
X56881Y-60912D01*
X57052Y-60742D01*
X57055Y-60734D01*
X57114Y-60754D01*
X57469Y-60400D01*
X57469Y-60541D01*
X57185Y-60825D01*
X57219Y-60926D01*
X57445Y-61008D01*
X57685Y-60998D01*
X57860Y-60926D01*
X57894Y-60825D01*
X57894Y-61750D01*
X49308Y-61750D01*
X49308Y-44694D01*
X49298Y-44454D01*
X49226Y-44279D01*
X49125Y-44245D01*
X48770Y-44600D01*
X49125Y-44954D01*
X49226Y-44920D01*
X49308Y-44694D01*
X49308Y-61750D01*
X49304Y-61750D01*
X49304Y-53480D01*
X49212Y-53258D01*
X49054Y-53099D01*
X49212Y-52942D01*
X49304Y-52720D01*
X49304Y-52480D01*
X49212Y-52258D01*
X49054Y-52099D01*
X49212Y-51942D01*
X49304Y-51720D01*
X49304Y-51480D01*
X49212Y-51258D01*
X49054Y-51099D01*
X49212Y-50942D01*
X49304Y-50720D01*
X49304Y-50480D01*
X49212Y-50258D01*
X49054Y-50099D01*
X49212Y-49942D01*
X49304Y-49720D01*
X49304Y-49480D01*
X49212Y-49258D01*
X49054Y-49099D01*
X49212Y-48942D01*
X49304Y-48720D01*
X49304Y-48480D01*
X49212Y-48258D01*
X49054Y-48099D01*
X49212Y-47942D01*
X49304Y-47720D01*
X49304Y-47480D01*
X49212Y-47258D01*
X49054Y-47099D01*
X49212Y-46942D01*
X49304Y-46720D01*
X49304Y-46480D01*
X49212Y-46258D01*
X49054Y-46099D01*
X49212Y-45942D01*
X49304Y-45720D01*
X49304Y-45480D01*
X49212Y-45258D01*
X49042Y-45087D01*
X49034Y-45084D01*
X49054Y-45025D01*
X48700Y-44670D01*
X48629Y-44741D01*
X48629Y-44600D01*
X48274Y-44245D01*
X48173Y-44279D01*
X48091Y-44505D01*
X48101Y-44745D01*
X48173Y-44920D01*
X48274Y-44954D01*
X48629Y-44600D01*
X48629Y-44741D01*
X48345Y-45025D01*
X48365Y-45084D01*
X48358Y-45087D01*
X48187Y-45257D01*
X48095Y-45479D01*
X48095Y-45719D01*
X48187Y-45941D01*
X48345Y-46100D01*
X48187Y-46257D01*
X48095Y-46479D01*
X48095Y-46719D01*
X48187Y-46941D01*
X48345Y-47100D01*
X48187Y-47257D01*
X48095Y-47479D01*
X48095Y-47719D01*
X48187Y-47941D01*
X48345Y-48100D01*
X48187Y-48257D01*
X48095Y-48479D01*
X48095Y-48719D01*
X48187Y-48941D01*
X48345Y-49100D01*
X48187Y-49257D01*
X48095Y-49479D01*
X48095Y-49719D01*
X48187Y-49941D01*
X48345Y-50100D01*
X48187Y-50257D01*
X48095Y-50479D01*
X48095Y-50719D01*
X48187Y-50941D01*
X48345Y-51100D01*
X48187Y-51257D01*
X48095Y-51479D01*
X48095Y-51719D01*
X48187Y-51941D01*
X48345Y-52100D01*
X48187Y-52257D01*
X48095Y-52479D01*
X48095Y-52719D01*
X48187Y-52941D01*
X48345Y-53100D01*
X48187Y-53257D01*
X48095Y-53479D01*
X48095Y-53719D01*
X48187Y-53941D01*
X48357Y-54112D01*
X48579Y-54204D01*
X48819Y-54204D01*
X49041Y-54112D01*
X49212Y-53942D01*
X49304Y-53720D01*
X49304Y-53480D01*
X49304Y-61750D01*
X46270Y-61750D01*
X46270Y-28112D01*
X46110Y-27726D01*
X45815Y-27430D01*
X45429Y-27270D01*
X45012Y-27269D01*
X44626Y-27429D01*
X44330Y-27724D01*
X44170Y-28110D01*
X44169Y-28527D01*
X44329Y-28914D01*
X44624Y-29209D01*
X45010Y-29369D01*
X45427Y-29370D01*
X45814Y-29210D01*
X46109Y-28915D01*
X46269Y-28529D01*
X46270Y-28112D01*
X46270Y-61750D01*
X46080Y-61750D01*
X46080Y-34913D01*
X46080Y-34913D01*
X46080Y-33720D01*
X46080Y-32439D01*
X46042Y-32348D01*
X45972Y-32277D01*
X45880Y-32239D01*
X45780Y-32239D01*
X45352Y-32239D01*
X45290Y-32302D01*
X45290Y-33030D01*
X46018Y-33030D01*
X46080Y-32967D01*
X46080Y-32439D01*
X46080Y-33720D01*
X46080Y-33192D01*
X46018Y-33130D01*
X45290Y-33130D01*
X45290Y-33858D01*
X45352Y-33920D01*
X45780Y-33920D01*
X45880Y-33920D01*
X45972Y-33882D01*
X46042Y-33811D01*
X46080Y-33720D01*
X46080Y-34913D01*
X45952Y-34604D01*
X45716Y-34367D01*
X45407Y-34239D01*
X45190Y-34239D01*
X45190Y-33858D01*
X45190Y-33130D01*
X45190Y-33030D01*
X45190Y-32302D01*
X45127Y-32239D01*
X44699Y-32239D01*
X44599Y-32239D01*
X44507Y-32277D01*
X44437Y-32348D01*
X44399Y-32439D01*
X44399Y-32967D01*
X44462Y-33030D01*
X45190Y-33030D01*
X45190Y-33130D01*
X44462Y-33130D01*
X44399Y-33192D01*
X44399Y-33720D01*
X44437Y-33811D01*
X44507Y-33882D01*
X44599Y-33920D01*
X44699Y-33920D01*
X45127Y-33920D01*
X45190Y-33858D01*
X45190Y-34239D01*
X45073Y-34239D01*
X44764Y-34367D01*
X44527Y-34603D01*
X44399Y-34912D01*
X44399Y-35246D01*
X44527Y-35555D01*
X44763Y-35792D01*
X45072Y-35920D01*
X45406Y-35920D01*
X45715Y-35792D01*
X45952Y-35556D01*
X46080Y-35247D01*
X46080Y-34913D01*
X46080Y-61750D01*
X46050Y-61750D01*
X46050Y-59992D01*
X46040Y-59968D01*
X46040Y-54493D01*
X46040Y-54493D01*
X46040Y-53300D01*
X46040Y-52019D01*
X46002Y-51928D01*
X45932Y-51857D01*
X45840Y-51819D01*
X45740Y-51819D01*
X45312Y-51819D01*
X45250Y-51882D01*
X45250Y-52610D01*
X45978Y-52610D01*
X46040Y-52547D01*
X46040Y-52019D01*
X46040Y-53300D01*
X46040Y-52772D01*
X45978Y-52710D01*
X45250Y-52710D01*
X45250Y-53438D01*
X45312Y-53500D01*
X45740Y-53500D01*
X45840Y-53500D01*
X45932Y-53462D01*
X46002Y-53391D01*
X46040Y-53300D01*
X46040Y-54493D01*
X45912Y-54184D01*
X45676Y-53947D01*
X45367Y-53819D01*
X45150Y-53819D01*
X45150Y-53438D01*
X45150Y-52710D01*
X45150Y-52610D01*
X45150Y-51882D01*
X45087Y-51819D01*
X44659Y-51819D01*
X44559Y-51819D01*
X44467Y-51857D01*
X44397Y-51928D01*
X44359Y-52019D01*
X44359Y-52547D01*
X44422Y-52610D01*
X45150Y-52610D01*
X45150Y-52710D01*
X44422Y-52710D01*
X44359Y-52772D01*
X44359Y-53300D01*
X44397Y-53391D01*
X44467Y-53462D01*
X44559Y-53500D01*
X44659Y-53500D01*
X45087Y-53500D01*
X45150Y-53438D01*
X45150Y-53819D01*
X45033Y-53819D01*
X44724Y-53947D01*
X44487Y-54183D01*
X44359Y-54492D01*
X44359Y-54826D01*
X44487Y-55135D01*
X44723Y-55372D01*
X45032Y-55500D01*
X45366Y-55500D01*
X45675Y-55372D01*
X45912Y-55136D01*
X46040Y-54827D01*
X46040Y-54493D01*
X46040Y-59968D01*
X45890Y-59606D01*
X45595Y-59310D01*
X45209Y-59150D01*
X44792Y-59149D01*
X44406Y-59309D01*
X44110Y-59604D01*
X43950Y-59990D01*
X43949Y-60407D01*
X44109Y-60794D01*
X44404Y-61089D01*
X44790Y-61249D01*
X45207Y-61250D01*
X45594Y-61090D01*
X45889Y-60795D01*
X46049Y-60409D01*
X46050Y-59992D01*
X46050Y-61750D01*
X43550Y-61750D01*
X43550Y-26750D01*
X78550Y-26750D01*
X78550Y-61750D01*
M02*
