G04 (created by PCBNEW (2013-07-07 BZR 4022)-stable) date 3/13/2015 2:12:22 PM*
%MOIN*%
G04 Gerber Fmt 3.4, Leading zero omitted, Abs format*
%FSLAX34Y34*%
G01*
G70*
G90*
G04 APERTURE LIST*
%ADD10C,0.00590551*%
%ADD11R,0.0394X0.0394*%
%ADD12R,0.0669291X0.0669291*%
%ADD13C,0.0669291*%
%ADD14R,0.0512X0.059*%
%ADD15R,0.059X0.0512*%
%ADD16R,0.1181X0.1181*%
%ADD17C,0.1181*%
%ADD18R,0.0629X0.0709*%
%ADD19R,0.0591X0.0768*%
%ADD20R,0.0511X0.0137*%
%ADD21R,0.0137X0.0511*%
%ADD22C,0.16*%
%ADD23R,0.0708661X0.0708661*%
%ADD24C,0.0708661*%
%ADD25C,0.035*%
%ADD26C,0.01*%
G04 APERTURE END LIST*
G54D10*
G54D11*
X44271Y-38838D03*
X47105Y-38838D03*
G54D12*
X77880Y-45820D03*
G54D13*
X77880Y-44820D03*
X77880Y-43820D03*
X77880Y-42820D03*
X77880Y-41820D03*
G54D14*
X45097Y-46771D03*
X45847Y-46771D03*
G54D15*
X49822Y-31949D03*
X49822Y-31199D03*
X48444Y-31969D03*
X48444Y-31219D03*
X77445Y-48888D03*
X77445Y-48138D03*
G54D14*
X44979Y-44173D03*
X45729Y-44173D03*
G54D16*
X45200Y-52660D03*
G54D17*
X45200Y-54660D03*
G54D18*
X45952Y-41909D03*
X44834Y-41909D03*
X46011Y-49035D03*
X44893Y-49035D03*
G54D19*
X77465Y-50412D03*
X77465Y-51494D03*
G54D20*
X59504Y-42350D03*
X59504Y-42547D03*
X59504Y-42744D03*
X59504Y-42941D03*
X59504Y-43138D03*
X59504Y-43335D03*
X59504Y-43532D03*
X59504Y-43728D03*
X59504Y-43925D03*
X59504Y-44122D03*
X59504Y-44318D03*
X59504Y-44515D03*
X59504Y-44712D03*
X59504Y-44908D03*
X59504Y-45105D03*
X59504Y-45302D03*
X59504Y-45499D03*
X59504Y-45696D03*
X59504Y-45893D03*
X59504Y-46090D03*
G54D21*
X60230Y-46816D03*
X60427Y-46816D03*
X60624Y-46816D03*
X60821Y-46816D03*
X61018Y-46816D03*
X61215Y-46816D03*
X61412Y-46816D03*
X61608Y-46816D03*
X61805Y-46816D03*
X62002Y-46816D03*
X62198Y-46816D03*
X62395Y-46816D03*
X62592Y-46816D03*
X62788Y-46816D03*
X62985Y-46816D03*
X63182Y-46816D03*
X63379Y-46816D03*
X63576Y-46816D03*
X63773Y-46816D03*
X63970Y-46816D03*
G54D20*
X64696Y-46090D03*
X64696Y-45893D03*
X64696Y-45696D03*
X64696Y-45499D03*
X64696Y-45302D03*
X64696Y-45105D03*
X64696Y-44908D03*
X64696Y-44712D03*
X64696Y-44515D03*
X64696Y-44318D03*
X64696Y-44122D03*
X64696Y-43925D03*
X64696Y-43728D03*
X64696Y-43532D03*
X64696Y-43335D03*
X64696Y-43138D03*
X64696Y-42941D03*
X64696Y-42744D03*
X64696Y-42547D03*
X64696Y-42350D03*
G54D21*
X63970Y-41624D03*
X63773Y-41624D03*
X63576Y-41624D03*
X63379Y-41624D03*
X63182Y-41624D03*
X62985Y-41624D03*
X62788Y-41624D03*
X62592Y-41624D03*
X62395Y-41624D03*
X62198Y-41624D03*
X62002Y-41624D03*
X61805Y-41624D03*
X61608Y-41624D03*
X61412Y-41624D03*
X61215Y-41624D03*
X61018Y-41624D03*
X60821Y-41624D03*
X60624Y-41624D03*
X60427Y-41624D03*
X60230Y-41624D03*
G54D22*
X45220Y-28320D03*
X45000Y-60200D03*
X77000Y-28200D03*
X76800Y-60100D03*
G54D23*
X52540Y-60400D03*
G54D24*
X53540Y-60400D03*
X54540Y-60400D03*
X55540Y-60400D03*
X56540Y-60400D03*
X57540Y-60400D03*
X58540Y-60400D03*
X59540Y-60400D03*
X60540Y-60400D03*
X61540Y-60400D03*
X62540Y-60400D03*
X63540Y-60400D03*
X64540Y-60400D03*
X65540Y-60400D03*
X66540Y-60400D03*
X67540Y-60400D03*
X68540Y-60400D03*
X69540Y-60400D03*
X70540Y-60400D03*
X71540Y-60400D03*
G54D23*
X48700Y-34600D03*
G54D24*
X48700Y-35600D03*
X48700Y-36600D03*
X48700Y-37600D03*
X48700Y-38600D03*
X48700Y-39600D03*
X48700Y-40600D03*
X48700Y-41600D03*
X48700Y-42600D03*
X48700Y-43600D03*
X48700Y-44600D03*
X48700Y-45600D03*
X48700Y-46600D03*
X48700Y-47600D03*
X48700Y-48600D03*
X48700Y-49600D03*
X48700Y-50600D03*
X48700Y-51600D03*
X48700Y-52600D03*
X48700Y-53600D03*
G54D23*
X75580Y-53700D03*
G54D24*
X75580Y-52700D03*
X75580Y-51700D03*
X75580Y-50700D03*
X75580Y-49700D03*
X75580Y-48700D03*
X75580Y-47700D03*
X75580Y-46700D03*
X75580Y-45700D03*
X75580Y-44700D03*
X75580Y-43700D03*
X75580Y-42700D03*
X75580Y-41700D03*
X75580Y-40700D03*
X75580Y-39700D03*
X75580Y-38700D03*
X75580Y-37700D03*
X75580Y-36700D03*
X75580Y-35700D03*
X75580Y-34700D03*
G54D23*
X71520Y-28440D03*
G54D24*
X70520Y-28440D03*
X69520Y-28440D03*
X68520Y-28440D03*
X67520Y-28440D03*
X66520Y-28440D03*
X65520Y-28440D03*
X64520Y-28440D03*
X63520Y-28440D03*
X62520Y-28440D03*
X61520Y-28440D03*
X60520Y-28440D03*
X59520Y-28440D03*
X58520Y-28440D03*
X57520Y-28440D03*
X56520Y-28440D03*
X55520Y-28440D03*
X54520Y-28440D03*
X53520Y-28440D03*
X52520Y-28440D03*
G54D16*
X45240Y-33080D03*
G54D17*
X45240Y-35080D03*
G54D25*
X63523Y-44960D03*
X62106Y-45649D03*
X60118Y-46161D03*
X60118Y-45078D03*
X61318Y-42677D03*
X77401Y-53877D03*
X44842Y-40551D03*
X44704Y-50511D03*
X51279Y-31318D03*
G54D26*
X64696Y-44712D02*
X69377Y-44712D01*
X71365Y-46700D02*
X75580Y-46700D01*
X69377Y-44712D02*
X71365Y-46700D01*
X62002Y-41624D02*
X62002Y-34068D01*
X61520Y-33586D02*
X61520Y-28440D01*
X62002Y-34068D02*
X61520Y-33586D01*
X56540Y-60400D02*
X56540Y-52967D01*
X61018Y-48489D02*
X61018Y-46816D01*
X56540Y-52967D02*
X61018Y-48489D01*
X63540Y-60400D02*
X63540Y-52673D01*
X62395Y-51528D02*
X62395Y-46816D01*
X63540Y-52673D02*
X62395Y-51528D01*
X45097Y-46771D02*
X45097Y-44291D01*
X45097Y-44291D02*
X44979Y-44173D01*
X64696Y-44712D02*
X64185Y-44712D01*
X63937Y-44960D02*
X63523Y-44960D01*
X64185Y-44712D02*
X63937Y-44960D01*
X62395Y-46816D02*
X62395Y-46253D01*
X62395Y-46253D02*
X62106Y-45964D01*
X62106Y-45964D02*
X62106Y-45649D01*
X61018Y-46816D02*
X61018Y-46372D01*
X60807Y-46161D02*
X60118Y-46161D01*
X61018Y-46372D02*
X60807Y-46161D01*
X59504Y-44515D02*
X60007Y-44515D01*
X60118Y-44625D02*
X60118Y-45078D01*
X60007Y-44515D02*
X60118Y-44625D01*
X62002Y-41624D02*
X62002Y-42072D01*
X61318Y-42401D02*
X61318Y-42677D01*
X61515Y-42204D02*
X61318Y-42401D01*
X61870Y-42204D02*
X61515Y-42204D01*
X62002Y-42072D02*
X61870Y-42204D01*
X59504Y-44515D02*
X50957Y-44515D01*
X49872Y-45600D02*
X48700Y-45600D01*
X50957Y-44515D02*
X49872Y-45600D01*
X44834Y-41909D02*
X44055Y-41909D01*
X48029Y-38600D02*
X48700Y-38600D01*
X46692Y-37263D02*
X48029Y-38600D01*
X44094Y-37263D02*
X46692Y-37263D01*
X43602Y-37755D02*
X44094Y-37263D01*
X43602Y-41456D02*
X43602Y-37755D01*
X44055Y-41909D02*
X43602Y-41456D01*
X59504Y-43138D02*
X55775Y-43138D01*
X51237Y-38600D02*
X48700Y-38600D01*
X55775Y-43138D02*
X51237Y-38600D01*
X77880Y-45820D02*
X77880Y-47704D01*
X77880Y-47704D02*
X77445Y-48138D01*
X47105Y-38838D02*
X47105Y-41633D01*
X48072Y-42600D02*
X48700Y-42600D01*
X47105Y-41633D02*
X48072Y-42600D01*
X77465Y-50412D02*
X77698Y-50412D01*
X77764Y-48138D02*
X77445Y-48138D01*
X78070Y-48444D02*
X77764Y-48138D01*
X78070Y-50039D02*
X78070Y-48444D01*
X77698Y-50412D02*
X78070Y-50039D01*
X59504Y-43925D02*
X50972Y-43925D01*
X50972Y-43925D02*
X49647Y-42600D01*
X49647Y-42600D02*
X48700Y-42600D01*
X75580Y-42700D02*
X77000Y-42700D01*
X77000Y-42700D02*
X77880Y-41820D01*
X64696Y-43925D02*
X70031Y-43925D01*
X71256Y-42700D02*
X75580Y-42700D01*
X70031Y-43925D02*
X71256Y-42700D01*
X75580Y-47700D02*
X75823Y-47700D01*
X76791Y-43908D02*
X77880Y-42820D01*
X76791Y-46732D02*
X76791Y-43908D01*
X75823Y-47700D02*
X76791Y-46732D01*
X64696Y-44908D02*
X68490Y-44908D01*
X71282Y-47700D02*
X75580Y-47700D01*
X68490Y-44908D02*
X71282Y-47700D01*
X61540Y-60400D02*
X61540Y-52574D01*
X62002Y-52112D02*
X62002Y-46816D01*
X61540Y-52574D02*
X62002Y-52112D01*
X61805Y-46816D02*
X61805Y-51187D01*
X60540Y-52452D02*
X60540Y-60400D01*
X61805Y-51187D02*
X60540Y-52452D01*
X61608Y-46816D02*
X61608Y-50281D01*
X59540Y-52349D02*
X59540Y-60400D01*
X61608Y-50281D02*
X59540Y-52349D01*
X58540Y-60400D02*
X58540Y-52267D01*
X61412Y-49395D02*
X61412Y-46816D01*
X58540Y-52267D02*
X61412Y-49395D01*
X62788Y-46816D02*
X62788Y-49599D01*
X65540Y-52351D02*
X65540Y-60400D01*
X62788Y-49599D02*
X65540Y-52351D01*
X62592Y-46816D02*
X62592Y-50347D01*
X64540Y-52295D02*
X64540Y-60400D01*
X62592Y-50347D02*
X64540Y-52295D01*
X64696Y-44318D02*
X72113Y-44318D01*
X72495Y-44700D02*
X75580Y-44700D01*
X72113Y-44318D02*
X72495Y-44700D01*
X64696Y-44515D02*
X70125Y-44515D01*
X71310Y-45700D02*
X75580Y-45700D01*
X70125Y-44515D02*
X71310Y-45700D01*
X64696Y-42744D02*
X66193Y-42744D01*
X72237Y-36700D02*
X75580Y-36700D01*
X66193Y-42744D02*
X72237Y-36700D01*
X64696Y-42941D02*
X66606Y-42941D01*
X71847Y-37700D02*
X75580Y-37700D01*
X66606Y-42941D02*
X71847Y-37700D01*
X64696Y-43138D02*
X67117Y-43138D01*
X71555Y-38700D02*
X75580Y-38700D01*
X67117Y-43138D02*
X71555Y-38700D01*
X64696Y-43335D02*
X67905Y-43335D01*
X71540Y-39700D02*
X75580Y-39700D01*
X67905Y-43335D02*
X71540Y-39700D01*
X64696Y-43532D02*
X68731Y-43532D01*
X71563Y-40700D02*
X75580Y-40700D01*
X68731Y-43532D02*
X71563Y-40700D01*
X64696Y-43728D02*
X69480Y-43728D01*
X71508Y-41700D02*
X75580Y-41700D01*
X69480Y-43728D02*
X71508Y-41700D01*
X63182Y-46816D02*
X63182Y-48556D01*
X67540Y-52914D02*
X67540Y-60400D01*
X63182Y-48556D02*
X67540Y-52914D01*
X62985Y-46816D02*
X62985Y-49126D01*
X66540Y-52681D02*
X66540Y-60400D01*
X62985Y-49126D02*
X66540Y-52681D01*
X64696Y-45696D02*
X66070Y-45696D01*
X72074Y-51700D02*
X75580Y-51700D01*
X66070Y-45696D02*
X72074Y-51700D01*
X64696Y-45499D02*
X66601Y-45499D01*
X71802Y-50700D02*
X75580Y-50700D01*
X66601Y-45499D02*
X71802Y-50700D01*
X64696Y-45302D02*
X67231Y-45302D01*
X71629Y-49700D02*
X75580Y-49700D01*
X67231Y-45302D02*
X71629Y-49700D01*
X64696Y-45105D02*
X67939Y-45105D01*
X71534Y-48700D02*
X75580Y-48700D01*
X67939Y-45105D02*
X71534Y-48700D01*
X63379Y-46816D02*
X63379Y-48162D01*
X68540Y-53323D02*
X68540Y-60400D01*
X63379Y-48162D02*
X68540Y-53323D01*
X63576Y-46816D02*
X63576Y-47965D01*
X69540Y-53929D02*
X69540Y-60400D01*
X63576Y-47965D02*
X69540Y-53929D01*
X61805Y-41624D02*
X61805Y-35466D01*
X60520Y-34181D02*
X60520Y-28440D01*
X61805Y-35466D02*
X60520Y-34181D01*
X62395Y-41624D02*
X62395Y-35459D01*
X63520Y-34334D02*
X63520Y-28440D01*
X62395Y-35459D02*
X63520Y-34334D01*
X62592Y-41624D02*
X62592Y-36463D01*
X64520Y-34535D02*
X64520Y-28440D01*
X62592Y-36463D02*
X64520Y-34535D01*
X62788Y-41624D02*
X62788Y-37389D01*
X65520Y-34657D02*
X65520Y-28440D01*
X62788Y-37389D02*
X65520Y-34657D01*
X62985Y-41624D02*
X62985Y-38294D01*
X66520Y-34759D02*
X66520Y-28440D01*
X62985Y-38294D02*
X66520Y-34759D01*
X63182Y-41624D02*
X63182Y-38924D01*
X67520Y-34586D02*
X67520Y-28440D01*
X63182Y-38924D02*
X67520Y-34586D01*
X63379Y-41624D02*
X63379Y-39416D01*
X68520Y-34275D02*
X68520Y-28440D01*
X63379Y-39416D02*
X68520Y-34275D01*
X63576Y-41624D02*
X63576Y-39790D01*
X69520Y-33846D02*
X69520Y-28440D01*
X63576Y-39790D02*
X69520Y-33846D01*
X48700Y-37600D02*
X51025Y-37600D01*
X56366Y-42941D02*
X59504Y-42941D01*
X51025Y-37600D02*
X56366Y-42941D01*
X59504Y-42744D02*
X56877Y-42744D01*
X50733Y-36600D02*
X48700Y-36600D01*
X56877Y-42744D02*
X50733Y-36600D01*
X60624Y-41624D02*
X60624Y-39836D01*
X54520Y-33732D02*
X54520Y-28440D01*
X60624Y-39836D02*
X54520Y-33732D01*
X60821Y-41624D02*
X60821Y-39246D01*
X55520Y-33945D02*
X55520Y-28440D01*
X60821Y-39246D02*
X55520Y-33945D01*
X61018Y-41624D02*
X61018Y-38714D01*
X56520Y-34216D02*
X56520Y-28440D01*
X61018Y-38714D02*
X56520Y-34216D01*
X61215Y-41624D02*
X61215Y-38163D01*
X57520Y-34468D02*
X57520Y-28440D01*
X61215Y-38163D02*
X57520Y-34468D01*
X61412Y-41624D02*
X61412Y-37356D01*
X58520Y-34464D02*
X58520Y-28440D01*
X61412Y-37356D02*
X58520Y-34464D01*
X61608Y-41624D02*
X61608Y-36450D01*
X59520Y-34362D02*
X59520Y-28440D01*
X61608Y-36450D02*
X59520Y-34362D01*
X60821Y-46816D02*
X60821Y-48194D01*
X55540Y-53475D02*
X55540Y-60400D01*
X60821Y-48194D02*
X55540Y-53475D01*
X60624Y-46816D02*
X60624Y-47938D01*
X54540Y-54022D02*
X54540Y-60400D01*
X60624Y-47938D02*
X54540Y-54022D01*
X59504Y-45696D02*
X57118Y-45696D01*
X51214Y-51600D02*
X48700Y-51600D01*
X57118Y-45696D02*
X51214Y-51600D01*
X48700Y-50600D02*
X51348Y-50600D01*
X56449Y-45499D02*
X59504Y-45499D01*
X51348Y-50600D02*
X56449Y-45499D01*
X59504Y-45302D02*
X55918Y-45302D01*
X51620Y-49600D02*
X48700Y-49600D01*
X55918Y-45302D02*
X51620Y-49600D01*
X48700Y-48600D02*
X51163Y-48600D01*
X54658Y-45105D02*
X59504Y-45105D01*
X51163Y-48600D02*
X54658Y-45105D01*
X48700Y-47600D02*
X50333Y-47600D01*
X53025Y-44908D02*
X59504Y-44908D01*
X50333Y-47600D02*
X53025Y-44908D01*
X48700Y-46600D02*
X49955Y-46600D01*
X51843Y-44712D02*
X59504Y-44712D01*
X49955Y-46600D02*
X51843Y-44712D01*
X48700Y-39600D02*
X50820Y-39600D01*
X54555Y-43335D02*
X59504Y-43335D01*
X50820Y-39600D02*
X54555Y-43335D01*
X59504Y-43532D02*
X53079Y-43532D01*
X50147Y-40600D02*
X48700Y-40600D01*
X53079Y-43532D02*
X50147Y-40600D01*
X48700Y-41600D02*
X49788Y-41600D01*
X51916Y-43728D02*
X59504Y-43728D01*
X49788Y-41600D02*
X51916Y-43728D01*
X48700Y-43600D02*
X49722Y-43600D01*
X50244Y-44122D02*
X59504Y-44122D01*
X49722Y-43600D02*
X50244Y-44122D01*
X60427Y-41624D02*
X60427Y-40466D01*
X53520Y-33559D02*
X53520Y-28440D01*
X60427Y-40466D02*
X53520Y-33559D01*
X60230Y-41624D02*
X60230Y-40997D01*
X52520Y-33287D02*
X52520Y-28440D01*
X60230Y-40997D02*
X52520Y-33287D01*
X59504Y-42350D02*
X58334Y-42350D01*
X50584Y-34600D02*
X48700Y-34600D01*
X58334Y-42350D02*
X50584Y-34600D01*
X48700Y-35600D02*
X50895Y-35600D01*
X57842Y-42547D02*
X59504Y-42547D01*
X50895Y-35600D02*
X57842Y-42547D01*
X53540Y-60400D02*
X53540Y-54609D01*
X60427Y-47722D02*
X60427Y-46816D01*
X53540Y-54609D02*
X60427Y-47722D01*
X60230Y-46816D02*
X60230Y-47486D01*
X52540Y-55176D02*
X52540Y-60400D01*
X60230Y-47486D02*
X52540Y-55176D01*
X59504Y-46090D02*
X58378Y-46090D01*
X50868Y-53600D02*
X48700Y-53600D01*
X58378Y-46090D02*
X50868Y-53600D01*
X48700Y-52600D02*
X51297Y-52600D01*
X58004Y-45893D02*
X59504Y-45893D01*
X51297Y-52600D02*
X58004Y-45893D01*
X63773Y-41624D02*
X63773Y-40301D01*
X70520Y-33554D02*
X70520Y-28440D01*
X63773Y-40301D02*
X70520Y-33554D01*
X63970Y-41624D02*
X63970Y-40951D01*
X71520Y-33401D02*
X71520Y-28440D01*
X63970Y-40951D02*
X71520Y-33401D01*
X64696Y-42350D02*
X65405Y-42350D01*
X73055Y-34700D02*
X75580Y-34700D01*
X65405Y-42350D02*
X73055Y-34700D01*
X64696Y-42547D02*
X65740Y-42547D01*
X72587Y-35700D02*
X75580Y-35700D01*
X65740Y-42547D02*
X72587Y-35700D01*
X63773Y-46816D02*
X63773Y-47690D01*
X70540Y-54457D02*
X70540Y-60400D01*
X63773Y-47690D02*
X70540Y-54457D01*
X63970Y-46816D02*
X63970Y-47375D01*
X71540Y-54945D02*
X71540Y-60400D01*
X63970Y-47375D02*
X71540Y-54945D01*
X64696Y-46090D02*
X65322Y-46090D01*
X72932Y-53700D02*
X75580Y-53700D01*
X65322Y-46090D02*
X72932Y-53700D01*
X64696Y-45893D02*
X65715Y-45893D01*
X72522Y-52700D02*
X75580Y-52700D01*
X65715Y-45893D02*
X72522Y-52700D01*
X77465Y-51494D02*
X77465Y-53813D01*
X77465Y-53813D02*
X77401Y-53877D01*
X44271Y-38838D02*
X44271Y-39980D01*
X44271Y-39980D02*
X44842Y-40551D01*
X64696Y-44122D02*
X72059Y-44122D01*
X72481Y-43700D02*
X75580Y-43700D01*
X72059Y-44122D02*
X72481Y-43700D01*
X62198Y-41624D02*
X62198Y-34101D01*
X62520Y-33779D02*
X62520Y-28440D01*
X62198Y-34101D02*
X62520Y-33779D01*
X61215Y-46816D02*
X61215Y-49021D01*
X57540Y-52696D02*
X57540Y-60400D01*
X61215Y-49021D02*
X57540Y-52696D01*
X62540Y-60400D02*
X62540Y-52441D01*
X62198Y-52099D02*
X62198Y-46816D01*
X62540Y-52441D02*
X62198Y-52099D01*
X44893Y-49035D02*
X44893Y-50322D01*
X44893Y-50322D02*
X44704Y-50511D01*
X49822Y-31199D02*
X51160Y-31199D01*
X51160Y-31199D02*
X51279Y-31318D01*
X48444Y-31219D02*
X48444Y-30551D01*
X49822Y-30492D02*
X49822Y-31199D01*
X49488Y-30157D02*
X49822Y-30492D01*
X48838Y-30157D02*
X49488Y-30157D01*
X48444Y-30551D02*
X48838Y-30157D01*
X48700Y-44600D02*
X49750Y-44600D01*
X50032Y-44318D02*
X59504Y-44318D01*
X49750Y-44600D02*
X50032Y-44318D01*
X46011Y-49035D02*
X46011Y-46935D01*
X46011Y-46935D02*
X45847Y-46771D01*
X45952Y-41909D02*
X45952Y-43949D01*
X45952Y-43949D02*
X45729Y-44173D01*
G54D10*
G36*
X77308Y-42967D02*
X76579Y-43696D01*
X76514Y-43793D01*
X76491Y-43908D01*
X76491Y-46608D01*
X76122Y-46977D01*
X76188Y-46794D01*
X76178Y-46554D01*
X76106Y-46379D01*
X76005Y-46345D01*
X75650Y-46700D01*
X75656Y-46705D01*
X75585Y-46776D01*
X75580Y-46770D01*
X75509Y-46841D01*
X75509Y-46700D01*
X75154Y-46345D01*
X75053Y-46379D01*
X74971Y-46605D01*
X74981Y-46845D01*
X75053Y-47020D01*
X75154Y-47054D01*
X75509Y-46700D01*
X75509Y-46841D01*
X75225Y-47125D01*
X75245Y-47184D01*
X75238Y-47187D01*
X75067Y-47357D01*
X75050Y-47400D01*
X71406Y-47400D01*
X68821Y-44815D01*
X70000Y-44815D01*
X71098Y-45912D01*
X71098Y-45912D01*
X71195Y-45977D01*
X71310Y-46000D01*
X75050Y-46000D01*
X75067Y-46041D01*
X75237Y-46212D01*
X75245Y-46215D01*
X75225Y-46274D01*
X75580Y-46629D01*
X75934Y-46274D01*
X75914Y-46215D01*
X75921Y-46212D01*
X76092Y-46042D01*
X76184Y-45820D01*
X76184Y-45580D01*
X76092Y-45358D01*
X75934Y-45199D01*
X76092Y-45042D01*
X76184Y-44820D01*
X76184Y-44580D01*
X76092Y-44358D01*
X75934Y-44199D01*
X76092Y-44042D01*
X76184Y-43820D01*
X76184Y-43580D01*
X76092Y-43358D01*
X75934Y-43199D01*
X76092Y-43042D01*
X76109Y-43000D01*
X77000Y-43000D01*
X77000Y-42999D01*
X77114Y-42977D01*
X77114Y-42977D01*
X77212Y-42912D01*
X77295Y-42828D01*
X77295Y-42935D01*
X77308Y-42967D01*
X77308Y-42967D01*
G37*
G54D26*
X77308Y-42967D02*
X76579Y-43696D01*
X76514Y-43793D01*
X76491Y-43908D01*
X76491Y-46608D01*
X76122Y-46977D01*
X76188Y-46794D01*
X76178Y-46554D01*
X76106Y-46379D01*
X76005Y-46345D01*
X75650Y-46700D01*
X75656Y-46705D01*
X75585Y-46776D01*
X75580Y-46770D01*
X75509Y-46841D01*
X75509Y-46700D01*
X75154Y-46345D01*
X75053Y-46379D01*
X74971Y-46605D01*
X74981Y-46845D01*
X75053Y-47020D01*
X75154Y-47054D01*
X75509Y-46700D01*
X75509Y-46841D01*
X75225Y-47125D01*
X75245Y-47184D01*
X75238Y-47187D01*
X75067Y-47357D01*
X75050Y-47400D01*
X71406Y-47400D01*
X68821Y-44815D01*
X70000Y-44815D01*
X71098Y-45912D01*
X71098Y-45912D01*
X71195Y-45977D01*
X71310Y-46000D01*
X75050Y-46000D01*
X75067Y-46041D01*
X75237Y-46212D01*
X75245Y-46215D01*
X75225Y-46274D01*
X75580Y-46629D01*
X75934Y-46274D01*
X75914Y-46215D01*
X75921Y-46212D01*
X76092Y-46042D01*
X76184Y-45820D01*
X76184Y-45580D01*
X76092Y-45358D01*
X75934Y-45199D01*
X76092Y-45042D01*
X76184Y-44820D01*
X76184Y-44580D01*
X76092Y-44358D01*
X75934Y-44199D01*
X76092Y-44042D01*
X76184Y-43820D01*
X76184Y-43580D01*
X76092Y-43358D01*
X75934Y-43199D01*
X76092Y-43042D01*
X76109Y-43000D01*
X77000Y-43000D01*
X77000Y-42999D01*
X77114Y-42977D01*
X77114Y-42977D01*
X77212Y-42912D01*
X77295Y-42828D01*
X77295Y-42935D01*
X77308Y-42967D01*
G54D10*
G36*
X78550Y-61750D02*
X78469Y-61750D01*
X78469Y-44910D01*
X78464Y-44809D01*
X78464Y-43704D01*
X78375Y-43489D01*
X78211Y-43324D01*
X78200Y-43320D01*
X78210Y-43315D01*
X78375Y-43151D01*
X78464Y-42936D01*
X78464Y-42704D01*
X78375Y-42489D01*
X78211Y-42324D01*
X78200Y-42320D01*
X78210Y-42315D01*
X78375Y-42151D01*
X78464Y-41936D01*
X78464Y-41704D01*
X78375Y-41489D01*
X78211Y-41324D01*
X78050Y-41257D01*
X78050Y-27992D01*
X77890Y-27606D01*
X77595Y-27310D01*
X77209Y-27150D01*
X76792Y-27149D01*
X76406Y-27309D01*
X76110Y-27604D01*
X75950Y-27990D01*
X75949Y-28407D01*
X76109Y-28794D01*
X76404Y-29089D01*
X76790Y-29249D01*
X77207Y-29250D01*
X77594Y-29090D01*
X77889Y-28795D01*
X78049Y-28409D01*
X78050Y-27992D01*
X78050Y-41257D01*
X77996Y-41235D01*
X77764Y-41235D01*
X77549Y-41324D01*
X77384Y-41488D01*
X77295Y-41703D01*
X77295Y-41935D01*
X77308Y-41967D01*
X76875Y-42400D01*
X76109Y-42400D01*
X76092Y-42358D01*
X75934Y-42199D01*
X76092Y-42042D01*
X76184Y-41820D01*
X76184Y-41580D01*
X76092Y-41358D01*
X75934Y-41199D01*
X76092Y-41042D01*
X76184Y-40820D01*
X76184Y-40580D01*
X76092Y-40358D01*
X75934Y-40199D01*
X76092Y-40042D01*
X76184Y-39820D01*
X76184Y-39580D01*
X76092Y-39358D01*
X75934Y-39199D01*
X76092Y-39042D01*
X76184Y-38820D01*
X76184Y-38580D01*
X76092Y-38358D01*
X75934Y-38199D01*
X76092Y-38042D01*
X76184Y-37820D01*
X76184Y-37580D01*
X76092Y-37358D01*
X75934Y-37199D01*
X76092Y-37042D01*
X76184Y-36820D01*
X76184Y-36580D01*
X76092Y-36358D01*
X75934Y-36199D01*
X76092Y-36042D01*
X76184Y-35820D01*
X76184Y-35580D01*
X76092Y-35358D01*
X75934Y-35199D01*
X76092Y-35042D01*
X76184Y-34820D01*
X76184Y-34580D01*
X76092Y-34358D01*
X75922Y-34187D01*
X75700Y-34095D01*
X75460Y-34095D01*
X75238Y-34187D01*
X75067Y-34357D01*
X75050Y-34400D01*
X73055Y-34400D01*
X72941Y-34422D01*
X72843Y-34487D01*
X72124Y-35207D01*
X72124Y-28744D01*
X72124Y-28036D01*
X72086Y-27944D01*
X72016Y-27873D01*
X71924Y-27835D01*
X71824Y-27835D01*
X71116Y-27835D01*
X71024Y-27873D01*
X70953Y-27943D01*
X70931Y-27997D01*
X70862Y-27927D01*
X70640Y-27835D01*
X70400Y-27835D01*
X70178Y-27927D01*
X70019Y-28085D01*
X69862Y-27927D01*
X69640Y-27835D01*
X69400Y-27835D01*
X69178Y-27927D01*
X69019Y-28085D01*
X68862Y-27927D01*
X68640Y-27835D01*
X68400Y-27835D01*
X68178Y-27927D01*
X68019Y-28085D01*
X67862Y-27927D01*
X67640Y-27835D01*
X67400Y-27835D01*
X67178Y-27927D01*
X67019Y-28085D01*
X66862Y-27927D01*
X66640Y-27835D01*
X66400Y-27835D01*
X66178Y-27927D01*
X66019Y-28085D01*
X65862Y-27927D01*
X65640Y-27835D01*
X65400Y-27835D01*
X65178Y-27927D01*
X65019Y-28085D01*
X64862Y-27927D01*
X64640Y-27835D01*
X64400Y-27835D01*
X64178Y-27927D01*
X64019Y-28085D01*
X63862Y-27927D01*
X63640Y-27835D01*
X63400Y-27835D01*
X63178Y-27927D01*
X63019Y-28085D01*
X62862Y-27927D01*
X62640Y-27835D01*
X62400Y-27835D01*
X62178Y-27927D01*
X62007Y-28097D01*
X62004Y-28105D01*
X61945Y-28085D01*
X61874Y-28156D01*
X61874Y-28014D01*
X61840Y-27913D01*
X61614Y-27831D01*
X61374Y-27841D01*
X61199Y-27913D01*
X61165Y-28014D01*
X61520Y-28369D01*
X61874Y-28014D01*
X61874Y-28156D01*
X61590Y-28440D01*
X61945Y-28794D01*
X62004Y-28774D01*
X62007Y-28781D01*
X62177Y-28952D01*
X62220Y-28969D01*
X62220Y-33654D01*
X61985Y-33889D01*
X61920Y-33986D01*
X61898Y-34101D01*
X61898Y-35135D01*
X61874Y-35111D01*
X61874Y-28865D01*
X61520Y-28510D01*
X61165Y-28865D01*
X61199Y-28966D01*
X61425Y-29048D01*
X61665Y-29038D01*
X61840Y-28966D01*
X61874Y-28865D01*
X61874Y-35111D01*
X60820Y-34057D01*
X60820Y-28969D01*
X60861Y-28952D01*
X61032Y-28782D01*
X61035Y-28774D01*
X61094Y-28794D01*
X61449Y-28440D01*
X61094Y-28085D01*
X61035Y-28105D01*
X61032Y-28098D01*
X60862Y-27927D01*
X60640Y-27835D01*
X60400Y-27835D01*
X60178Y-27927D01*
X60019Y-28085D01*
X59862Y-27927D01*
X59640Y-27835D01*
X59400Y-27835D01*
X59178Y-27927D01*
X59019Y-28085D01*
X58862Y-27927D01*
X58640Y-27835D01*
X58400Y-27835D01*
X58178Y-27927D01*
X58019Y-28085D01*
X57862Y-27927D01*
X57640Y-27835D01*
X57400Y-27835D01*
X57178Y-27927D01*
X57019Y-28085D01*
X56862Y-27927D01*
X56640Y-27835D01*
X56400Y-27835D01*
X56178Y-27927D01*
X56019Y-28085D01*
X55862Y-27927D01*
X55640Y-27835D01*
X55400Y-27835D01*
X55178Y-27927D01*
X55019Y-28085D01*
X54862Y-27927D01*
X54640Y-27835D01*
X54400Y-27835D01*
X54178Y-27927D01*
X54019Y-28085D01*
X53862Y-27927D01*
X53640Y-27835D01*
X53400Y-27835D01*
X53178Y-27927D01*
X53019Y-28085D01*
X52862Y-27927D01*
X52640Y-27835D01*
X52400Y-27835D01*
X52178Y-27927D01*
X52007Y-28097D01*
X51915Y-28319D01*
X51915Y-28559D01*
X52007Y-28781D01*
X52177Y-28952D01*
X52220Y-28969D01*
X52220Y-33287D01*
X52242Y-33402D01*
X52307Y-33499D01*
X59930Y-41121D01*
X59930Y-41274D01*
X59911Y-41318D01*
X59911Y-41418D01*
X59911Y-41929D01*
X59949Y-42020D01*
X60019Y-42091D01*
X60111Y-42129D01*
X60211Y-42129D01*
X60348Y-42129D01*
X60348Y-42129D01*
X60408Y-42129D01*
X60545Y-42129D01*
X60545Y-42129D01*
X60605Y-42129D01*
X60742Y-42129D01*
X60742Y-42129D01*
X60802Y-42129D01*
X60939Y-42129D01*
X60939Y-42129D01*
X60999Y-42129D01*
X61136Y-42129D01*
X61136Y-42129D01*
X61196Y-42129D01*
X61333Y-42129D01*
X61333Y-42129D01*
X61393Y-42129D01*
X61530Y-42129D01*
X61530Y-42129D01*
X61589Y-42129D01*
X61726Y-42129D01*
X61726Y-42129D01*
X61786Y-42129D01*
X61883Y-42129D01*
X61923Y-42129D01*
X62001Y-42097D01*
X62079Y-42129D01*
X62098Y-42129D01*
X62098Y-42129D01*
X62120Y-42129D01*
X62120Y-42129D01*
X62179Y-42129D01*
X62316Y-42129D01*
X62316Y-42129D01*
X62376Y-42129D01*
X62513Y-42129D01*
X62513Y-42129D01*
X62573Y-42129D01*
X62710Y-42129D01*
X62710Y-42129D01*
X62769Y-42129D01*
X62906Y-42129D01*
X62906Y-42129D01*
X62966Y-42129D01*
X63103Y-42129D01*
X63103Y-42129D01*
X63163Y-42129D01*
X63300Y-42129D01*
X63300Y-42129D01*
X63360Y-42129D01*
X63497Y-42129D01*
X63497Y-42129D01*
X63557Y-42129D01*
X63694Y-42129D01*
X63694Y-42129D01*
X63754Y-42129D01*
X63891Y-42129D01*
X63891Y-42129D01*
X63951Y-42129D01*
X64088Y-42129D01*
X64179Y-42091D01*
X64250Y-42021D01*
X64288Y-41929D01*
X64288Y-41829D01*
X64288Y-41318D01*
X64270Y-41274D01*
X64270Y-41075D01*
X71732Y-33613D01*
X71732Y-33613D01*
X71797Y-33516D01*
X71819Y-33401D01*
X71820Y-33401D01*
X71820Y-29044D01*
X71923Y-29044D01*
X72015Y-29006D01*
X72086Y-28936D01*
X72124Y-28844D01*
X72124Y-28744D01*
X72124Y-35207D01*
X65281Y-42050D01*
X65045Y-42050D01*
X65001Y-42031D01*
X64901Y-42031D01*
X64390Y-42031D01*
X64299Y-42069D01*
X64228Y-42139D01*
X64190Y-42231D01*
X64190Y-42331D01*
X64190Y-42468D01*
X64190Y-42468D01*
X64190Y-42528D01*
X64190Y-42665D01*
X64190Y-42665D01*
X64190Y-42725D01*
X64190Y-42862D01*
X64190Y-42862D01*
X64190Y-42922D01*
X64190Y-43059D01*
X64190Y-43059D01*
X64190Y-43119D01*
X64190Y-43256D01*
X64190Y-43256D01*
X64190Y-43316D01*
X64190Y-43453D01*
X64190Y-43453D01*
X64190Y-43513D01*
X64190Y-43650D01*
X64190Y-43650D01*
X64190Y-43709D01*
X64190Y-43846D01*
X64190Y-43846D01*
X64190Y-43906D01*
X64190Y-44043D01*
X64190Y-44043D01*
X64190Y-44103D01*
X64190Y-44240D01*
X64190Y-44240D01*
X64190Y-44299D01*
X64190Y-44436D01*
X64190Y-44436D01*
X64190Y-44496D01*
X64190Y-44633D01*
X64190Y-44633D01*
X64190Y-44615D01*
X64190Y-44615D01*
X64190Y-44633D01*
X64222Y-44711D01*
X64190Y-44789D01*
X64190Y-44808D01*
X64190Y-44808D01*
X64190Y-44810D01*
X64190Y-44889D01*
X64190Y-45026D01*
X64190Y-45026D01*
X64190Y-45086D01*
X64190Y-45223D01*
X64190Y-45223D01*
X64190Y-45283D01*
X64190Y-45420D01*
X64190Y-45420D01*
X64190Y-45480D01*
X64190Y-45617D01*
X64190Y-45617D01*
X64190Y-45677D01*
X64190Y-45814D01*
X64190Y-45814D01*
X64190Y-45874D01*
X64190Y-46011D01*
X64190Y-46011D01*
X64190Y-46071D01*
X64190Y-46208D01*
X64228Y-46299D01*
X64298Y-46370D01*
X64390Y-46408D01*
X64490Y-46408D01*
X65001Y-46408D01*
X65045Y-46390D01*
X65198Y-46390D01*
X72720Y-53912D01*
X72720Y-53912D01*
X72817Y-53977D01*
X72932Y-54000D01*
X74975Y-54000D01*
X74975Y-54103D01*
X75013Y-54195D01*
X75083Y-54266D01*
X75175Y-54304D01*
X75275Y-54304D01*
X75983Y-54304D01*
X76075Y-54266D01*
X76146Y-54196D01*
X76184Y-54104D01*
X76184Y-54004D01*
X76184Y-53296D01*
X76146Y-53204D01*
X76076Y-53133D01*
X76022Y-53111D01*
X76092Y-53042D01*
X76184Y-52820D01*
X76184Y-52580D01*
X76092Y-52358D01*
X75934Y-52199D01*
X76092Y-52042D01*
X76184Y-51820D01*
X76184Y-51580D01*
X76092Y-51358D01*
X75934Y-51199D01*
X76092Y-51042D01*
X76184Y-50820D01*
X76184Y-50580D01*
X76092Y-50358D01*
X75934Y-50199D01*
X76092Y-50042D01*
X76184Y-49820D01*
X76184Y-49580D01*
X76092Y-49358D01*
X75934Y-49199D01*
X76092Y-49042D01*
X76184Y-48820D01*
X76184Y-48580D01*
X76092Y-48358D01*
X75934Y-48199D01*
X76092Y-48042D01*
X76184Y-47820D01*
X76184Y-47763D01*
X77003Y-46944D01*
X77003Y-46944D01*
X77068Y-46847D01*
X77091Y-46732D01*
X77091Y-46732D01*
X77091Y-44032D01*
X77295Y-43828D01*
X77295Y-43935D01*
X77384Y-44150D01*
X77548Y-44315D01*
X77567Y-44323D01*
X77539Y-44408D01*
X77880Y-44749D01*
X78220Y-44408D01*
X78192Y-44323D01*
X78210Y-44315D01*
X78375Y-44151D01*
X78464Y-43936D01*
X78464Y-43704D01*
X78464Y-44809D01*
X78458Y-44677D01*
X78389Y-44511D01*
X78291Y-44479D01*
X77950Y-44820D01*
X78291Y-45160D01*
X78389Y-45128D01*
X78469Y-44910D01*
X78469Y-61750D01*
X78464Y-61750D01*
X78464Y-46105D01*
X78464Y-45435D01*
X78426Y-45343D01*
X78356Y-45273D01*
X78264Y-45235D01*
X78218Y-45235D01*
X78220Y-45231D01*
X77880Y-44890D01*
X77809Y-44961D01*
X77809Y-44820D01*
X77468Y-44479D01*
X77370Y-44511D01*
X77290Y-44729D01*
X77301Y-44962D01*
X77370Y-45128D01*
X77468Y-45160D01*
X77809Y-44820D01*
X77809Y-44961D01*
X77539Y-45231D01*
X77541Y-45235D01*
X77495Y-45235D01*
X77403Y-45273D01*
X77333Y-45343D01*
X77295Y-45435D01*
X77295Y-45534D01*
X77295Y-46204D01*
X77333Y-46296D01*
X77403Y-46366D01*
X77495Y-46404D01*
X77580Y-46404D01*
X77580Y-47579D01*
X77527Y-47632D01*
X77101Y-47632D01*
X77009Y-47670D01*
X76939Y-47740D01*
X76901Y-47832D01*
X76900Y-47931D01*
X76900Y-48443D01*
X76929Y-48513D01*
X76900Y-48582D01*
X76900Y-48775D01*
X76963Y-48838D01*
X77395Y-48838D01*
X77395Y-48830D01*
X77495Y-48830D01*
X77495Y-48838D01*
X77503Y-48838D01*
X77503Y-48938D01*
X77495Y-48938D01*
X77495Y-49331D01*
X77558Y-49394D01*
X77691Y-49394D01*
X77770Y-49394D01*
X77770Y-49778D01*
X77711Y-49778D01*
X77395Y-49778D01*
X77395Y-49331D01*
X77395Y-48938D01*
X76963Y-48938D01*
X76900Y-49000D01*
X76900Y-49193D01*
X76938Y-49285D01*
X77009Y-49355D01*
X77101Y-49394D01*
X77200Y-49394D01*
X77333Y-49394D01*
X77395Y-49331D01*
X77395Y-49778D01*
X77120Y-49778D01*
X77029Y-49816D01*
X76958Y-49886D01*
X76920Y-49978D01*
X76920Y-50077D01*
X76920Y-50845D01*
X76958Y-50937D01*
X76973Y-50953D01*
X76958Y-50968D01*
X76920Y-51060D01*
X76920Y-51159D01*
X76920Y-51927D01*
X76958Y-52019D01*
X77028Y-52089D01*
X77120Y-52128D01*
X77165Y-52128D01*
X77165Y-53515D01*
X77161Y-53517D01*
X77041Y-53636D01*
X76976Y-53793D01*
X76976Y-53962D01*
X77041Y-54118D01*
X77160Y-54238D01*
X77316Y-54302D01*
X77485Y-54303D01*
X77642Y-54238D01*
X77761Y-54119D01*
X77826Y-53962D01*
X77826Y-53793D01*
X77765Y-53646D01*
X77765Y-52128D01*
X77810Y-52128D01*
X77902Y-52090D01*
X77973Y-52019D01*
X78011Y-51928D01*
X78011Y-51828D01*
X78011Y-51060D01*
X77973Y-50968D01*
X77958Y-50953D01*
X77973Y-50937D01*
X78011Y-50846D01*
X78011Y-50746D01*
X78011Y-50522D01*
X78282Y-50251D01*
X78282Y-50251D01*
X78348Y-50154D01*
X78370Y-50039D01*
X78370Y-50039D01*
X78370Y-48444D01*
X78348Y-48330D01*
X78282Y-48232D01*
X78282Y-48232D01*
X78029Y-47979D01*
X78092Y-47916D01*
X78157Y-47818D01*
X78157Y-47818D01*
X78179Y-47704D01*
X78180Y-47704D01*
X78180Y-46404D01*
X78264Y-46404D01*
X78356Y-46366D01*
X78426Y-46296D01*
X78464Y-46204D01*
X78464Y-46105D01*
X78464Y-61750D01*
X77850Y-61750D01*
X77850Y-59892D01*
X77690Y-59506D01*
X77395Y-59210D01*
X77009Y-59050D01*
X76592Y-59049D01*
X76206Y-59209D01*
X75910Y-59504D01*
X75750Y-59890D01*
X75749Y-60307D01*
X75909Y-60694D01*
X76204Y-60989D01*
X76590Y-61149D01*
X77007Y-61150D01*
X77394Y-60990D01*
X77689Y-60695D01*
X77849Y-60309D01*
X77850Y-59892D01*
X77850Y-61750D01*
X72144Y-61750D01*
X72144Y-60280D01*
X72052Y-60058D01*
X71882Y-59887D01*
X71840Y-59870D01*
X71840Y-54945D01*
X71817Y-54830D01*
X71752Y-54733D01*
X71752Y-54733D01*
X64270Y-47251D01*
X64270Y-47165D01*
X64288Y-47121D01*
X64288Y-47021D01*
X64288Y-46510D01*
X64250Y-46419D01*
X64180Y-46348D01*
X64088Y-46310D01*
X63988Y-46310D01*
X63851Y-46310D01*
X63851Y-46310D01*
X63791Y-46310D01*
X63654Y-46310D01*
X63654Y-46310D01*
X63594Y-46310D01*
X63457Y-46310D01*
X63457Y-46310D01*
X63397Y-46310D01*
X63260Y-46310D01*
X63260Y-46310D01*
X63200Y-46310D01*
X63063Y-46310D01*
X63063Y-46310D01*
X63003Y-46310D01*
X62866Y-46310D01*
X62866Y-46310D01*
X62806Y-46310D01*
X62669Y-46310D01*
X62669Y-46310D01*
X62610Y-46310D01*
X62513Y-46310D01*
X62473Y-46310D01*
X62394Y-46343D01*
X62316Y-46310D01*
X62298Y-46310D01*
X62298Y-46310D01*
X62276Y-46310D01*
X62276Y-46310D01*
X62216Y-46310D01*
X62079Y-46310D01*
X62079Y-46310D01*
X62020Y-46310D01*
X61883Y-46310D01*
X61883Y-46310D01*
X61823Y-46310D01*
X61686Y-46310D01*
X61686Y-46310D01*
X61626Y-46310D01*
X61489Y-46310D01*
X61489Y-46310D01*
X61430Y-46310D01*
X61293Y-46310D01*
X61293Y-46310D01*
X61233Y-46310D01*
X61136Y-46310D01*
X61096Y-46310D01*
X61017Y-46343D01*
X60939Y-46310D01*
X60921Y-46310D01*
X60921Y-46310D01*
X60899Y-46310D01*
X60899Y-46310D01*
X60839Y-46310D01*
X60702Y-46310D01*
X60702Y-46310D01*
X60642Y-46310D01*
X60505Y-46310D01*
X60505Y-46310D01*
X60445Y-46310D01*
X60308Y-46310D01*
X60308Y-46310D01*
X60248Y-46310D01*
X60111Y-46310D01*
X60020Y-46348D01*
X59949Y-46418D01*
X59911Y-46510D01*
X59911Y-46610D01*
X59911Y-47121D01*
X59930Y-47165D01*
X59930Y-47362D01*
X52327Y-54964D01*
X52262Y-55061D01*
X52240Y-55176D01*
X52240Y-59795D01*
X52136Y-59795D01*
X52044Y-59833D01*
X51973Y-59903D01*
X51935Y-59995D01*
X51935Y-60095D01*
X51935Y-60803D01*
X51973Y-60895D01*
X52043Y-60966D01*
X52135Y-61004D01*
X52235Y-61004D01*
X52943Y-61004D01*
X53035Y-60966D01*
X53106Y-60896D01*
X53128Y-60842D01*
X53197Y-60912D01*
X53419Y-61004D01*
X53659Y-61004D01*
X53881Y-60912D01*
X54040Y-60754D01*
X54197Y-60912D01*
X54419Y-61004D01*
X54659Y-61004D01*
X54881Y-60912D01*
X55040Y-60754D01*
X55197Y-60912D01*
X55419Y-61004D01*
X55659Y-61004D01*
X55881Y-60912D01*
X56052Y-60742D01*
X56055Y-60734D01*
X56114Y-60754D01*
X56469Y-60400D01*
X56114Y-60045D01*
X56055Y-60065D01*
X56052Y-60058D01*
X55882Y-59887D01*
X55840Y-59870D01*
X55840Y-53600D01*
X60915Y-48525D01*
X60915Y-48896D01*
X57327Y-52484D01*
X57262Y-52581D01*
X57240Y-52696D01*
X57240Y-59870D01*
X57198Y-59887D01*
X57027Y-60057D01*
X57024Y-60065D01*
X56965Y-60045D01*
X56894Y-60116D01*
X56894Y-59974D01*
X56860Y-59873D01*
X56634Y-59791D01*
X56394Y-59801D01*
X56219Y-59873D01*
X56185Y-59974D01*
X56540Y-60329D01*
X56894Y-59974D01*
X56894Y-60116D01*
X56610Y-60400D01*
X56965Y-60754D01*
X57024Y-60734D01*
X57027Y-60741D01*
X57197Y-60912D01*
X57419Y-61004D01*
X57659Y-61004D01*
X57881Y-60912D01*
X58040Y-60754D01*
X58197Y-60912D01*
X58419Y-61004D01*
X58659Y-61004D01*
X58881Y-60912D01*
X59040Y-60754D01*
X59197Y-60912D01*
X59419Y-61004D01*
X59659Y-61004D01*
X59881Y-60912D01*
X60040Y-60754D01*
X60197Y-60912D01*
X60419Y-61004D01*
X60659Y-61004D01*
X60881Y-60912D01*
X61040Y-60754D01*
X61197Y-60912D01*
X61419Y-61004D01*
X61659Y-61004D01*
X61881Y-60912D01*
X62040Y-60754D01*
X62197Y-60912D01*
X62419Y-61004D01*
X62659Y-61004D01*
X62881Y-60912D01*
X63052Y-60742D01*
X63055Y-60734D01*
X63114Y-60754D01*
X63469Y-60400D01*
X63114Y-60045D01*
X63055Y-60065D01*
X63052Y-60058D01*
X62882Y-59887D01*
X62840Y-59870D01*
X62840Y-52441D01*
X62817Y-52326D01*
X62817Y-52326D01*
X62752Y-52229D01*
X62498Y-51975D01*
X62498Y-50678D01*
X64240Y-52420D01*
X64240Y-59870D01*
X64198Y-59887D01*
X64027Y-60057D01*
X64024Y-60065D01*
X63965Y-60045D01*
X63894Y-60116D01*
X63894Y-59974D01*
X63860Y-59873D01*
X63634Y-59791D01*
X63394Y-59801D01*
X63219Y-59873D01*
X63185Y-59974D01*
X63540Y-60329D01*
X63894Y-59974D01*
X63894Y-60116D01*
X63610Y-60400D01*
X63965Y-60754D01*
X64024Y-60734D01*
X64027Y-60741D01*
X64197Y-60912D01*
X64419Y-61004D01*
X64659Y-61004D01*
X64881Y-60912D01*
X65040Y-60754D01*
X65197Y-60912D01*
X65419Y-61004D01*
X65659Y-61004D01*
X65881Y-60912D01*
X66040Y-60754D01*
X66197Y-60912D01*
X66419Y-61004D01*
X66659Y-61004D01*
X66881Y-60912D01*
X67040Y-60754D01*
X67197Y-60912D01*
X67419Y-61004D01*
X67659Y-61004D01*
X67881Y-60912D01*
X68040Y-60754D01*
X68197Y-60912D01*
X68419Y-61004D01*
X68659Y-61004D01*
X68881Y-60912D01*
X69040Y-60754D01*
X69197Y-60912D01*
X69419Y-61004D01*
X69659Y-61004D01*
X69881Y-60912D01*
X70040Y-60754D01*
X70197Y-60912D01*
X70419Y-61004D01*
X70659Y-61004D01*
X70881Y-60912D01*
X71040Y-60754D01*
X71197Y-60912D01*
X71419Y-61004D01*
X71659Y-61004D01*
X71881Y-60912D01*
X72052Y-60742D01*
X72144Y-60520D01*
X72144Y-60280D01*
X72144Y-61750D01*
X63894Y-61750D01*
X63894Y-60825D01*
X63540Y-60470D01*
X63185Y-60825D01*
X63219Y-60926D01*
X63445Y-61008D01*
X63685Y-60998D01*
X63860Y-60926D01*
X63894Y-60825D01*
X63894Y-61750D01*
X56894Y-61750D01*
X56894Y-60825D01*
X56540Y-60470D01*
X56185Y-60825D01*
X56219Y-60926D01*
X56445Y-61008D01*
X56685Y-60998D01*
X56860Y-60926D01*
X56894Y-60825D01*
X56894Y-61750D01*
X46576Y-61750D01*
X46576Y-49340D01*
X46576Y-48631D01*
X46538Y-48539D01*
X46468Y-48469D01*
X46376Y-48430D01*
X46311Y-48430D01*
X46311Y-47211D01*
X46315Y-47208D01*
X46353Y-47116D01*
X46353Y-47017D01*
X46353Y-46427D01*
X46315Y-46335D01*
X46245Y-46264D01*
X46153Y-46226D01*
X46053Y-46226D01*
X45541Y-46226D01*
X45472Y-46255D01*
X45402Y-46226D01*
X45209Y-46226D01*
X45147Y-46289D01*
X45147Y-46721D01*
X45155Y-46721D01*
X45155Y-46821D01*
X45147Y-46821D01*
X45147Y-47254D01*
X45209Y-47316D01*
X45402Y-47316D01*
X45472Y-47287D01*
X45541Y-47316D01*
X45640Y-47316D01*
X45711Y-47316D01*
X45711Y-48430D01*
X45647Y-48430D01*
X45555Y-48468D01*
X45485Y-48539D01*
X45452Y-48617D01*
X45420Y-48539D01*
X45350Y-48469D01*
X45258Y-48430D01*
X45158Y-48430D01*
X45047Y-48430D01*
X45047Y-47254D01*
X45047Y-46821D01*
X45047Y-46721D01*
X45047Y-46289D01*
X44984Y-46226D01*
X44929Y-46226D01*
X44929Y-44655D01*
X44929Y-44223D01*
X44929Y-44123D01*
X44929Y-43690D01*
X44866Y-43628D01*
X44673Y-43628D01*
X44581Y-43666D01*
X44511Y-43736D01*
X44473Y-43828D01*
X44473Y-43927D01*
X44473Y-44060D01*
X44535Y-44123D01*
X44929Y-44123D01*
X44929Y-44223D01*
X44535Y-44223D01*
X44473Y-44285D01*
X44473Y-44418D01*
X44473Y-44518D01*
X44511Y-44610D01*
X44581Y-44680D01*
X44673Y-44718D01*
X44866Y-44718D01*
X44929Y-44655D01*
X44929Y-46226D01*
X44791Y-46226D01*
X44700Y-46264D01*
X44629Y-46334D01*
X44591Y-46426D01*
X44591Y-46526D01*
X44591Y-46659D01*
X44653Y-46721D01*
X45047Y-46721D01*
X45047Y-46821D01*
X44653Y-46821D01*
X44591Y-46884D01*
X44591Y-47017D01*
X44591Y-47116D01*
X44629Y-47208D01*
X44700Y-47278D01*
X44791Y-47316D01*
X44984Y-47316D01*
X45047Y-47254D01*
X45047Y-48430D01*
X44529Y-48430D01*
X44437Y-48468D01*
X44367Y-48539D01*
X44329Y-48630D01*
X44329Y-48730D01*
X44329Y-49439D01*
X44367Y-49531D01*
X44437Y-49601D01*
X44529Y-49639D01*
X44593Y-49639D01*
X44593Y-50097D01*
X44464Y-50151D01*
X44344Y-50270D01*
X44279Y-50426D01*
X44279Y-50595D01*
X44344Y-50752D01*
X44463Y-50871D01*
X44619Y-50936D01*
X44788Y-50936D01*
X44945Y-50872D01*
X45064Y-50752D01*
X45129Y-50596D01*
X45129Y-50499D01*
X45129Y-50499D01*
X45170Y-50437D01*
X45193Y-50322D01*
X45193Y-50322D01*
X45193Y-49639D01*
X45257Y-49639D01*
X45349Y-49601D01*
X45420Y-49531D01*
X45452Y-49452D01*
X45485Y-49531D01*
X45555Y-49601D01*
X45647Y-49639D01*
X45746Y-49639D01*
X46375Y-49639D01*
X46467Y-49601D01*
X46538Y-49531D01*
X46576Y-49439D01*
X46576Y-49340D01*
X46576Y-61750D01*
X46050Y-61750D01*
X46050Y-59992D01*
X46043Y-59975D01*
X46043Y-54811D01*
X46040Y-54654D01*
X46040Y-53200D01*
X46040Y-52019D01*
X46002Y-51928D01*
X45932Y-51857D01*
X45840Y-51819D01*
X45740Y-51819D01*
X44559Y-51819D01*
X44468Y-51857D01*
X44397Y-51927D01*
X44359Y-52019D01*
X44359Y-52119D01*
X44359Y-53300D01*
X44397Y-53391D01*
X44467Y-53462D01*
X44559Y-53500D01*
X44659Y-53500D01*
X45840Y-53500D01*
X45931Y-53462D01*
X46002Y-53392D01*
X46040Y-53300D01*
X46040Y-53200D01*
X46040Y-54654D01*
X46037Y-54476D01*
X45921Y-54197D01*
X45796Y-54134D01*
X45725Y-54205D01*
X45725Y-54063D01*
X45662Y-53938D01*
X45351Y-53816D01*
X45016Y-53822D01*
X44737Y-53938D01*
X44674Y-54063D01*
X45200Y-54589D01*
X45725Y-54063D01*
X45725Y-54205D01*
X45270Y-54660D01*
X45796Y-55185D01*
X45921Y-55122D01*
X46043Y-54811D01*
X46043Y-59975D01*
X45890Y-59606D01*
X45725Y-59440D01*
X45725Y-55256D01*
X45200Y-54730D01*
X45129Y-54801D01*
X45129Y-54660D01*
X44603Y-54134D01*
X44478Y-54197D01*
X44356Y-54508D01*
X44362Y-54843D01*
X44478Y-55122D01*
X44603Y-55185D01*
X45129Y-54660D01*
X45129Y-54801D01*
X44674Y-55256D01*
X44737Y-55381D01*
X45048Y-55503D01*
X45383Y-55497D01*
X45662Y-55381D01*
X45725Y-55256D01*
X45725Y-59440D01*
X45595Y-59310D01*
X45209Y-59150D01*
X44792Y-59149D01*
X44406Y-59309D01*
X44110Y-59604D01*
X43950Y-59990D01*
X43949Y-60407D01*
X44109Y-60794D01*
X44404Y-61089D01*
X44790Y-61249D01*
X45207Y-61250D01*
X45594Y-61090D01*
X45889Y-60795D01*
X46049Y-60409D01*
X46050Y-59992D01*
X46050Y-61750D01*
X43550Y-61750D01*
X43550Y-41828D01*
X43842Y-42121D01*
X43842Y-42121D01*
X43940Y-42186D01*
X44055Y-42209D01*
X44270Y-42209D01*
X44270Y-42313D01*
X44308Y-42405D01*
X44378Y-42475D01*
X44470Y-42513D01*
X44569Y-42513D01*
X45198Y-42513D01*
X45290Y-42476D01*
X45361Y-42405D01*
X45393Y-42326D01*
X45426Y-42405D01*
X45496Y-42475D01*
X45588Y-42513D01*
X45652Y-42513D01*
X45652Y-43628D01*
X45423Y-43628D01*
X45354Y-43656D01*
X45284Y-43628D01*
X45091Y-43628D01*
X45029Y-43690D01*
X45029Y-44123D01*
X45037Y-44123D01*
X45037Y-44223D01*
X45029Y-44223D01*
X45029Y-44655D01*
X45091Y-44718D01*
X45284Y-44718D01*
X45354Y-44689D01*
X45423Y-44718D01*
X45522Y-44718D01*
X46034Y-44718D01*
X46126Y-44680D01*
X46197Y-44610D01*
X46235Y-44518D01*
X46235Y-44418D01*
X46235Y-44036D01*
X46235Y-44036D01*
X46252Y-43949D01*
X46252Y-43949D01*
X46252Y-42513D01*
X46316Y-42513D01*
X46408Y-42476D01*
X46479Y-42405D01*
X46517Y-42313D01*
X46517Y-42214D01*
X46517Y-41505D01*
X46479Y-41413D01*
X46408Y-41343D01*
X46317Y-41304D01*
X46217Y-41304D01*
X45588Y-41304D01*
X45496Y-41342D01*
X45426Y-41413D01*
X45393Y-41491D01*
X45361Y-41413D01*
X45290Y-41343D01*
X45199Y-41304D01*
X45099Y-41304D01*
X44470Y-41304D01*
X44378Y-41342D01*
X44308Y-41413D01*
X44270Y-41505D01*
X44270Y-41604D01*
X44270Y-41609D01*
X44179Y-41609D01*
X43902Y-41332D01*
X43902Y-39216D01*
X43933Y-39247D01*
X43971Y-39263D01*
X43971Y-39980D01*
X43994Y-40095D01*
X44059Y-40192D01*
X44417Y-40550D01*
X44417Y-40635D01*
X44482Y-40791D01*
X44601Y-40911D01*
X44757Y-40976D01*
X44926Y-40976D01*
X45082Y-40911D01*
X45202Y-40792D01*
X45267Y-40636D01*
X45267Y-40467D01*
X45203Y-40310D01*
X45083Y-40191D01*
X44927Y-40126D01*
X44841Y-40126D01*
X44571Y-39856D01*
X44571Y-39263D01*
X44610Y-39247D01*
X44680Y-39177D01*
X44718Y-39085D01*
X44719Y-38986D01*
X44719Y-38592D01*
X44681Y-38500D01*
X44610Y-38429D01*
X44518Y-38391D01*
X44419Y-38391D01*
X44025Y-38391D01*
X43933Y-38429D01*
X43902Y-38460D01*
X43902Y-37880D01*
X44218Y-37563D01*
X46568Y-37563D01*
X47427Y-38422D01*
X47352Y-38391D01*
X47253Y-38391D01*
X46859Y-38391D01*
X46767Y-38429D01*
X46697Y-38499D01*
X46659Y-38591D01*
X46658Y-38691D01*
X46658Y-39085D01*
X46696Y-39177D01*
X46767Y-39247D01*
X46805Y-39263D01*
X46805Y-41633D01*
X46828Y-41748D01*
X46893Y-41845D01*
X47860Y-42812D01*
X47860Y-42812D01*
X47957Y-42877D01*
X48072Y-42899D01*
X48072Y-42900D01*
X48170Y-42900D01*
X48187Y-42941D01*
X48345Y-43100D01*
X48187Y-43257D01*
X48095Y-43479D01*
X48095Y-43719D01*
X48187Y-43941D01*
X48345Y-44100D01*
X48187Y-44257D01*
X48095Y-44479D01*
X48095Y-44719D01*
X48187Y-44941D01*
X48357Y-45112D01*
X48365Y-45115D01*
X48345Y-45174D01*
X48700Y-45529D01*
X49054Y-45174D01*
X49034Y-45115D01*
X49041Y-45112D01*
X49212Y-44942D01*
X49229Y-44900D01*
X49750Y-44900D01*
X49750Y-44899D01*
X49865Y-44877D01*
X49865Y-44877D01*
X49962Y-44812D01*
X50156Y-44618D01*
X51512Y-44618D01*
X49830Y-46300D01*
X49308Y-46300D01*
X49308Y-45694D01*
X49298Y-45454D01*
X49226Y-45279D01*
X49125Y-45245D01*
X48770Y-45600D01*
X49125Y-45954D01*
X49226Y-45920D01*
X49308Y-45694D01*
X49308Y-46300D01*
X49229Y-46300D01*
X49212Y-46258D01*
X49042Y-46087D01*
X49034Y-46084D01*
X49054Y-46025D01*
X48700Y-45670D01*
X48629Y-45741D01*
X48629Y-45600D01*
X48274Y-45245D01*
X48173Y-45279D01*
X48091Y-45505D01*
X48101Y-45745D01*
X48173Y-45920D01*
X48274Y-45954D01*
X48629Y-45600D01*
X48629Y-45741D01*
X48345Y-46025D01*
X48365Y-46084D01*
X48358Y-46087D01*
X48187Y-46257D01*
X48095Y-46479D01*
X48095Y-46719D01*
X48187Y-46941D01*
X48345Y-47100D01*
X48187Y-47257D01*
X48095Y-47479D01*
X48095Y-47719D01*
X48187Y-47941D01*
X48345Y-48100D01*
X48187Y-48257D01*
X48095Y-48479D01*
X48095Y-48719D01*
X48187Y-48941D01*
X48345Y-49100D01*
X48187Y-49257D01*
X48095Y-49479D01*
X48095Y-49719D01*
X48187Y-49941D01*
X48345Y-50100D01*
X48187Y-50257D01*
X48095Y-50479D01*
X48095Y-50719D01*
X48187Y-50941D01*
X48345Y-51100D01*
X48187Y-51257D01*
X48095Y-51479D01*
X48095Y-51719D01*
X48187Y-51941D01*
X48345Y-52100D01*
X48187Y-52257D01*
X48095Y-52479D01*
X48095Y-52719D01*
X48187Y-52941D01*
X48345Y-53100D01*
X48187Y-53257D01*
X48095Y-53479D01*
X48095Y-53719D01*
X48187Y-53941D01*
X48357Y-54112D01*
X48579Y-54204D01*
X48819Y-54204D01*
X49041Y-54112D01*
X49212Y-53942D01*
X49229Y-53900D01*
X50868Y-53900D01*
X50868Y-53899D01*
X50983Y-53877D01*
X50983Y-53877D01*
X51080Y-53812D01*
X58502Y-46390D01*
X59154Y-46390D01*
X59198Y-46408D01*
X59298Y-46408D01*
X59809Y-46408D01*
X59900Y-46370D01*
X59971Y-46300D01*
X60009Y-46208D01*
X60009Y-46108D01*
X60009Y-45971D01*
X60009Y-45971D01*
X60009Y-45911D01*
X60009Y-45774D01*
X60009Y-45774D01*
X60009Y-45714D01*
X60009Y-45577D01*
X60009Y-45577D01*
X60009Y-45517D01*
X60009Y-45380D01*
X60009Y-45380D01*
X60009Y-45320D01*
X60009Y-45183D01*
X60009Y-45183D01*
X60009Y-45123D01*
X60009Y-44986D01*
X60009Y-44986D01*
X60009Y-44926D01*
X60009Y-44789D01*
X60009Y-44789D01*
X60009Y-44730D01*
X60009Y-44593D01*
X60009Y-44593D01*
X60009Y-44611D01*
X60009Y-44611D01*
X60009Y-44593D01*
X59976Y-44514D01*
X60009Y-44436D01*
X60009Y-44418D01*
X60009Y-44418D01*
X60009Y-44416D01*
X60009Y-44336D01*
X60009Y-44199D01*
X60009Y-44199D01*
X60009Y-44140D01*
X60009Y-44003D01*
X60009Y-44003D01*
X60009Y-43943D01*
X60009Y-43806D01*
X60009Y-43806D01*
X60009Y-43746D01*
X60009Y-43609D01*
X60009Y-43609D01*
X60009Y-43550D01*
X60009Y-43413D01*
X60009Y-43413D01*
X60009Y-43353D01*
X60009Y-43216D01*
X60009Y-43216D01*
X60009Y-43156D01*
X60009Y-43019D01*
X60009Y-43019D01*
X60009Y-42959D01*
X60009Y-42822D01*
X60009Y-42822D01*
X60009Y-42762D01*
X60009Y-42625D01*
X60009Y-42625D01*
X60009Y-42565D01*
X60009Y-42428D01*
X60009Y-42428D01*
X60009Y-42368D01*
X60009Y-42231D01*
X59971Y-42140D01*
X59901Y-42069D01*
X59809Y-42031D01*
X59709Y-42031D01*
X59198Y-42031D01*
X59154Y-42050D01*
X58458Y-42050D01*
X51704Y-35296D01*
X51704Y-31234D01*
X51640Y-31078D01*
X51520Y-30958D01*
X51364Y-30893D01*
X51195Y-30893D01*
X51174Y-30902D01*
X51160Y-30899D01*
X50367Y-30899D01*
X50367Y-30894D01*
X50329Y-30802D01*
X50259Y-30731D01*
X50167Y-30693D01*
X50122Y-30693D01*
X50122Y-30492D01*
X50099Y-30377D01*
X50034Y-30279D01*
X50034Y-30279D01*
X49700Y-29945D01*
X49602Y-29880D01*
X49488Y-29857D01*
X48838Y-29857D01*
X48723Y-29880D01*
X48626Y-29945D01*
X48232Y-30339D01*
X48167Y-30436D01*
X48144Y-30551D01*
X48144Y-30713D01*
X48100Y-30713D01*
X48008Y-30751D01*
X47938Y-30821D01*
X47899Y-30913D01*
X47899Y-31012D01*
X47899Y-31524D01*
X47928Y-31594D01*
X47899Y-31663D01*
X47899Y-31856D01*
X47962Y-31919D01*
X48394Y-31919D01*
X48394Y-31911D01*
X48494Y-31911D01*
X48494Y-31919D01*
X48927Y-31919D01*
X48989Y-31856D01*
X48989Y-31663D01*
X48961Y-31594D01*
X48989Y-31525D01*
X48989Y-31425D01*
X48989Y-30913D01*
X48951Y-30822D01*
X48881Y-30751D01*
X48789Y-30713D01*
X48744Y-30713D01*
X48744Y-30675D01*
X48962Y-30457D01*
X49363Y-30457D01*
X49522Y-30616D01*
X49522Y-30693D01*
X49478Y-30693D01*
X49386Y-30731D01*
X49316Y-30802D01*
X49277Y-30893D01*
X49277Y-30993D01*
X49277Y-31505D01*
X49306Y-31574D01*
X49277Y-31644D01*
X49277Y-31837D01*
X49340Y-31899D01*
X49772Y-31899D01*
X49772Y-31891D01*
X49872Y-31891D01*
X49872Y-31899D01*
X50305Y-31899D01*
X50367Y-31837D01*
X50367Y-31644D01*
X50339Y-31574D01*
X50367Y-31505D01*
X50367Y-31499D01*
X50894Y-31499D01*
X50919Y-31559D01*
X51038Y-31678D01*
X51194Y-31743D01*
X51363Y-31743D01*
X51519Y-31679D01*
X51639Y-31559D01*
X51704Y-31403D01*
X51704Y-31234D01*
X51704Y-35296D01*
X50796Y-34387D01*
X50699Y-34322D01*
X50584Y-34300D01*
X50367Y-34300D01*
X50367Y-32255D01*
X50367Y-32062D01*
X50305Y-31999D01*
X49872Y-31999D01*
X49872Y-32393D01*
X49935Y-32455D01*
X50068Y-32455D01*
X50167Y-32455D01*
X50259Y-32417D01*
X50329Y-32347D01*
X50367Y-32255D01*
X50367Y-34300D01*
X49772Y-34300D01*
X49772Y-32393D01*
X49772Y-31999D01*
X49340Y-31999D01*
X49277Y-32062D01*
X49277Y-32255D01*
X49315Y-32347D01*
X49386Y-32417D01*
X49477Y-32455D01*
X49577Y-32455D01*
X49710Y-32455D01*
X49772Y-32393D01*
X49772Y-34300D01*
X49304Y-34300D01*
X49304Y-34196D01*
X49266Y-34104D01*
X49196Y-34033D01*
X49104Y-33995D01*
X49004Y-33995D01*
X48989Y-33995D01*
X48989Y-32274D01*
X48989Y-32081D01*
X48927Y-32019D01*
X48494Y-32019D01*
X48494Y-32412D01*
X48557Y-32475D01*
X48690Y-32475D01*
X48789Y-32475D01*
X48881Y-32437D01*
X48951Y-32366D01*
X48989Y-32274D01*
X48989Y-33995D01*
X48394Y-33995D01*
X48394Y-32412D01*
X48394Y-32019D01*
X47962Y-32019D01*
X47899Y-32081D01*
X47899Y-32274D01*
X47937Y-32366D01*
X48008Y-32437D01*
X48099Y-32475D01*
X48199Y-32475D01*
X48332Y-32475D01*
X48394Y-32412D01*
X48394Y-33995D01*
X48296Y-33995D01*
X48204Y-34033D01*
X48133Y-34103D01*
X48095Y-34195D01*
X48095Y-34295D01*
X48095Y-35003D01*
X48133Y-35095D01*
X48203Y-35166D01*
X48257Y-35188D01*
X48187Y-35257D01*
X48095Y-35479D01*
X48095Y-35719D01*
X48187Y-35941D01*
X48345Y-36100D01*
X48187Y-36257D01*
X48095Y-36479D01*
X48095Y-36719D01*
X48187Y-36941D01*
X48345Y-37100D01*
X48187Y-37257D01*
X48095Y-37479D01*
X48095Y-37719D01*
X48187Y-37941D01*
X48345Y-38100D01*
X48187Y-38257D01*
X48170Y-38300D01*
X48153Y-38300D01*
X46905Y-37051D01*
X46807Y-36986D01*
X46692Y-36963D01*
X46270Y-36963D01*
X46270Y-28112D01*
X46110Y-27726D01*
X45815Y-27430D01*
X45429Y-27270D01*
X45012Y-27269D01*
X44626Y-27429D01*
X44330Y-27724D01*
X44170Y-28110D01*
X44169Y-28527D01*
X44329Y-28914D01*
X44624Y-29209D01*
X45010Y-29369D01*
X45427Y-29370D01*
X45814Y-29210D01*
X46109Y-28915D01*
X46269Y-28529D01*
X46270Y-28112D01*
X46270Y-36963D01*
X46083Y-36963D01*
X46083Y-35231D01*
X46080Y-35074D01*
X46080Y-33620D01*
X46080Y-32439D01*
X46042Y-32348D01*
X45972Y-32277D01*
X45880Y-32239D01*
X45780Y-32239D01*
X44599Y-32239D01*
X44508Y-32277D01*
X44437Y-32347D01*
X44399Y-32439D01*
X44399Y-32539D01*
X44399Y-33720D01*
X44437Y-33811D01*
X44507Y-33882D01*
X44599Y-33920D01*
X44699Y-33920D01*
X45880Y-33920D01*
X45971Y-33882D01*
X46042Y-33812D01*
X46080Y-33720D01*
X46080Y-33620D01*
X46080Y-35074D01*
X46077Y-34896D01*
X45961Y-34617D01*
X45836Y-34554D01*
X45765Y-34625D01*
X45765Y-34483D01*
X45702Y-34358D01*
X45391Y-34236D01*
X45056Y-34242D01*
X44777Y-34358D01*
X44714Y-34483D01*
X45240Y-35009D01*
X45765Y-34483D01*
X45765Y-34625D01*
X45310Y-35080D01*
X45836Y-35605D01*
X45961Y-35542D01*
X46083Y-35231D01*
X46083Y-36963D01*
X45765Y-36963D01*
X45765Y-35676D01*
X45240Y-35150D01*
X45169Y-35221D01*
X45169Y-35080D01*
X44643Y-34554D01*
X44518Y-34617D01*
X44396Y-34928D01*
X44402Y-35263D01*
X44518Y-35542D01*
X44643Y-35605D01*
X45169Y-35080D01*
X45169Y-35221D01*
X44714Y-35676D01*
X44777Y-35801D01*
X45088Y-35923D01*
X45423Y-35917D01*
X45702Y-35801D01*
X45765Y-35676D01*
X45765Y-36963D01*
X44094Y-36963D01*
X43979Y-36986D01*
X43882Y-37051D01*
X43550Y-37384D01*
X43550Y-26750D01*
X43600Y-26750D01*
X78550Y-26750D01*
X78550Y-61750D01*
X78550Y-61750D01*
G37*
G54D26*
X78550Y-61750D02*
X78469Y-61750D01*
X78469Y-44910D01*
X78464Y-44809D01*
X78464Y-43704D01*
X78375Y-43489D01*
X78211Y-43324D01*
X78200Y-43320D01*
X78210Y-43315D01*
X78375Y-43151D01*
X78464Y-42936D01*
X78464Y-42704D01*
X78375Y-42489D01*
X78211Y-42324D01*
X78200Y-42320D01*
X78210Y-42315D01*
X78375Y-42151D01*
X78464Y-41936D01*
X78464Y-41704D01*
X78375Y-41489D01*
X78211Y-41324D01*
X78050Y-41257D01*
X78050Y-27992D01*
X77890Y-27606D01*
X77595Y-27310D01*
X77209Y-27150D01*
X76792Y-27149D01*
X76406Y-27309D01*
X76110Y-27604D01*
X75950Y-27990D01*
X75949Y-28407D01*
X76109Y-28794D01*
X76404Y-29089D01*
X76790Y-29249D01*
X77207Y-29250D01*
X77594Y-29090D01*
X77889Y-28795D01*
X78049Y-28409D01*
X78050Y-27992D01*
X78050Y-41257D01*
X77996Y-41235D01*
X77764Y-41235D01*
X77549Y-41324D01*
X77384Y-41488D01*
X77295Y-41703D01*
X77295Y-41935D01*
X77308Y-41967D01*
X76875Y-42400D01*
X76109Y-42400D01*
X76092Y-42358D01*
X75934Y-42199D01*
X76092Y-42042D01*
X76184Y-41820D01*
X76184Y-41580D01*
X76092Y-41358D01*
X75934Y-41199D01*
X76092Y-41042D01*
X76184Y-40820D01*
X76184Y-40580D01*
X76092Y-40358D01*
X75934Y-40199D01*
X76092Y-40042D01*
X76184Y-39820D01*
X76184Y-39580D01*
X76092Y-39358D01*
X75934Y-39199D01*
X76092Y-39042D01*
X76184Y-38820D01*
X76184Y-38580D01*
X76092Y-38358D01*
X75934Y-38199D01*
X76092Y-38042D01*
X76184Y-37820D01*
X76184Y-37580D01*
X76092Y-37358D01*
X75934Y-37199D01*
X76092Y-37042D01*
X76184Y-36820D01*
X76184Y-36580D01*
X76092Y-36358D01*
X75934Y-36199D01*
X76092Y-36042D01*
X76184Y-35820D01*
X76184Y-35580D01*
X76092Y-35358D01*
X75934Y-35199D01*
X76092Y-35042D01*
X76184Y-34820D01*
X76184Y-34580D01*
X76092Y-34358D01*
X75922Y-34187D01*
X75700Y-34095D01*
X75460Y-34095D01*
X75238Y-34187D01*
X75067Y-34357D01*
X75050Y-34400D01*
X73055Y-34400D01*
X72941Y-34422D01*
X72843Y-34487D01*
X72124Y-35207D01*
X72124Y-28744D01*
X72124Y-28036D01*
X72086Y-27944D01*
X72016Y-27873D01*
X71924Y-27835D01*
X71824Y-27835D01*
X71116Y-27835D01*
X71024Y-27873D01*
X70953Y-27943D01*
X70931Y-27997D01*
X70862Y-27927D01*
X70640Y-27835D01*
X70400Y-27835D01*
X70178Y-27927D01*
X70019Y-28085D01*
X69862Y-27927D01*
X69640Y-27835D01*
X69400Y-27835D01*
X69178Y-27927D01*
X69019Y-28085D01*
X68862Y-27927D01*
X68640Y-27835D01*
X68400Y-27835D01*
X68178Y-27927D01*
X68019Y-28085D01*
X67862Y-27927D01*
X67640Y-27835D01*
X67400Y-27835D01*
X67178Y-27927D01*
X67019Y-28085D01*
X66862Y-27927D01*
X66640Y-27835D01*
X66400Y-27835D01*
X66178Y-27927D01*
X66019Y-28085D01*
X65862Y-27927D01*
X65640Y-27835D01*
X65400Y-27835D01*
X65178Y-27927D01*
X65019Y-28085D01*
X64862Y-27927D01*
X64640Y-27835D01*
X64400Y-27835D01*
X64178Y-27927D01*
X64019Y-28085D01*
X63862Y-27927D01*
X63640Y-27835D01*
X63400Y-27835D01*
X63178Y-27927D01*
X63019Y-28085D01*
X62862Y-27927D01*
X62640Y-27835D01*
X62400Y-27835D01*
X62178Y-27927D01*
X62007Y-28097D01*
X62004Y-28105D01*
X61945Y-28085D01*
X61874Y-28156D01*
X61874Y-28014D01*
X61840Y-27913D01*
X61614Y-27831D01*
X61374Y-27841D01*
X61199Y-27913D01*
X61165Y-28014D01*
X61520Y-28369D01*
X61874Y-28014D01*
X61874Y-28156D01*
X61590Y-28440D01*
X61945Y-28794D01*
X62004Y-28774D01*
X62007Y-28781D01*
X62177Y-28952D01*
X62220Y-28969D01*
X62220Y-33654D01*
X61985Y-33889D01*
X61920Y-33986D01*
X61898Y-34101D01*
X61898Y-35135D01*
X61874Y-35111D01*
X61874Y-28865D01*
X61520Y-28510D01*
X61165Y-28865D01*
X61199Y-28966D01*
X61425Y-29048D01*
X61665Y-29038D01*
X61840Y-28966D01*
X61874Y-28865D01*
X61874Y-35111D01*
X60820Y-34057D01*
X60820Y-28969D01*
X60861Y-28952D01*
X61032Y-28782D01*
X61035Y-28774D01*
X61094Y-28794D01*
X61449Y-28440D01*
X61094Y-28085D01*
X61035Y-28105D01*
X61032Y-28098D01*
X60862Y-27927D01*
X60640Y-27835D01*
X60400Y-27835D01*
X60178Y-27927D01*
X60019Y-28085D01*
X59862Y-27927D01*
X59640Y-27835D01*
X59400Y-27835D01*
X59178Y-27927D01*
X59019Y-28085D01*
X58862Y-27927D01*
X58640Y-27835D01*
X58400Y-27835D01*
X58178Y-27927D01*
X58019Y-28085D01*
X57862Y-27927D01*
X57640Y-27835D01*
X57400Y-27835D01*
X57178Y-27927D01*
X57019Y-28085D01*
X56862Y-27927D01*
X56640Y-27835D01*
X56400Y-27835D01*
X56178Y-27927D01*
X56019Y-28085D01*
X55862Y-27927D01*
X55640Y-27835D01*
X55400Y-27835D01*
X55178Y-27927D01*
X55019Y-28085D01*
X54862Y-27927D01*
X54640Y-27835D01*
X54400Y-27835D01*
X54178Y-27927D01*
X54019Y-28085D01*
X53862Y-27927D01*
X53640Y-27835D01*
X53400Y-27835D01*
X53178Y-27927D01*
X53019Y-28085D01*
X52862Y-27927D01*
X52640Y-27835D01*
X52400Y-27835D01*
X52178Y-27927D01*
X52007Y-28097D01*
X51915Y-28319D01*
X51915Y-28559D01*
X52007Y-28781D01*
X52177Y-28952D01*
X52220Y-28969D01*
X52220Y-33287D01*
X52242Y-33402D01*
X52307Y-33499D01*
X59930Y-41121D01*
X59930Y-41274D01*
X59911Y-41318D01*
X59911Y-41418D01*
X59911Y-41929D01*
X59949Y-42020D01*
X60019Y-42091D01*
X60111Y-42129D01*
X60211Y-42129D01*
X60348Y-42129D01*
X60348Y-42129D01*
X60408Y-42129D01*
X60545Y-42129D01*
X60545Y-42129D01*
X60605Y-42129D01*
X60742Y-42129D01*
X60742Y-42129D01*
X60802Y-42129D01*
X60939Y-42129D01*
X60939Y-42129D01*
X60999Y-42129D01*
X61136Y-42129D01*
X61136Y-42129D01*
X61196Y-42129D01*
X61333Y-42129D01*
X61333Y-42129D01*
X61393Y-42129D01*
X61530Y-42129D01*
X61530Y-42129D01*
X61589Y-42129D01*
X61726Y-42129D01*
X61726Y-42129D01*
X61786Y-42129D01*
X61883Y-42129D01*
X61923Y-42129D01*
X62001Y-42097D01*
X62079Y-42129D01*
X62098Y-42129D01*
X62098Y-42129D01*
X62120Y-42129D01*
X62120Y-42129D01*
X62179Y-42129D01*
X62316Y-42129D01*
X62316Y-42129D01*
X62376Y-42129D01*
X62513Y-42129D01*
X62513Y-42129D01*
X62573Y-42129D01*
X62710Y-42129D01*
X62710Y-42129D01*
X62769Y-42129D01*
X62906Y-42129D01*
X62906Y-42129D01*
X62966Y-42129D01*
X63103Y-42129D01*
X63103Y-42129D01*
X63163Y-42129D01*
X63300Y-42129D01*
X63300Y-42129D01*
X63360Y-42129D01*
X63497Y-42129D01*
X63497Y-42129D01*
X63557Y-42129D01*
X63694Y-42129D01*
X63694Y-42129D01*
X63754Y-42129D01*
X63891Y-42129D01*
X63891Y-42129D01*
X63951Y-42129D01*
X64088Y-42129D01*
X64179Y-42091D01*
X64250Y-42021D01*
X64288Y-41929D01*
X64288Y-41829D01*
X64288Y-41318D01*
X64270Y-41274D01*
X64270Y-41075D01*
X71732Y-33613D01*
X71732Y-33613D01*
X71797Y-33516D01*
X71819Y-33401D01*
X71820Y-33401D01*
X71820Y-29044D01*
X71923Y-29044D01*
X72015Y-29006D01*
X72086Y-28936D01*
X72124Y-28844D01*
X72124Y-28744D01*
X72124Y-35207D01*
X65281Y-42050D01*
X65045Y-42050D01*
X65001Y-42031D01*
X64901Y-42031D01*
X64390Y-42031D01*
X64299Y-42069D01*
X64228Y-42139D01*
X64190Y-42231D01*
X64190Y-42331D01*
X64190Y-42468D01*
X64190Y-42468D01*
X64190Y-42528D01*
X64190Y-42665D01*
X64190Y-42665D01*
X64190Y-42725D01*
X64190Y-42862D01*
X64190Y-42862D01*
X64190Y-42922D01*
X64190Y-43059D01*
X64190Y-43059D01*
X64190Y-43119D01*
X64190Y-43256D01*
X64190Y-43256D01*
X64190Y-43316D01*
X64190Y-43453D01*
X64190Y-43453D01*
X64190Y-43513D01*
X64190Y-43650D01*
X64190Y-43650D01*
X64190Y-43709D01*
X64190Y-43846D01*
X64190Y-43846D01*
X64190Y-43906D01*
X64190Y-44043D01*
X64190Y-44043D01*
X64190Y-44103D01*
X64190Y-44240D01*
X64190Y-44240D01*
X64190Y-44299D01*
X64190Y-44436D01*
X64190Y-44436D01*
X64190Y-44496D01*
X64190Y-44633D01*
X64190Y-44633D01*
X64190Y-44615D01*
X64190Y-44615D01*
X64190Y-44633D01*
X64222Y-44711D01*
X64190Y-44789D01*
X64190Y-44808D01*
X64190Y-44808D01*
X64190Y-44810D01*
X64190Y-44889D01*
X64190Y-45026D01*
X64190Y-45026D01*
X64190Y-45086D01*
X64190Y-45223D01*
X64190Y-45223D01*
X64190Y-45283D01*
X64190Y-45420D01*
X64190Y-45420D01*
X64190Y-45480D01*
X64190Y-45617D01*
X64190Y-45617D01*
X64190Y-45677D01*
X64190Y-45814D01*
X64190Y-45814D01*
X64190Y-45874D01*
X64190Y-46011D01*
X64190Y-46011D01*
X64190Y-46071D01*
X64190Y-46208D01*
X64228Y-46299D01*
X64298Y-46370D01*
X64390Y-46408D01*
X64490Y-46408D01*
X65001Y-46408D01*
X65045Y-46390D01*
X65198Y-46390D01*
X72720Y-53912D01*
X72720Y-53912D01*
X72817Y-53977D01*
X72932Y-54000D01*
X74975Y-54000D01*
X74975Y-54103D01*
X75013Y-54195D01*
X75083Y-54266D01*
X75175Y-54304D01*
X75275Y-54304D01*
X75983Y-54304D01*
X76075Y-54266D01*
X76146Y-54196D01*
X76184Y-54104D01*
X76184Y-54004D01*
X76184Y-53296D01*
X76146Y-53204D01*
X76076Y-53133D01*
X76022Y-53111D01*
X76092Y-53042D01*
X76184Y-52820D01*
X76184Y-52580D01*
X76092Y-52358D01*
X75934Y-52199D01*
X76092Y-52042D01*
X76184Y-51820D01*
X76184Y-51580D01*
X76092Y-51358D01*
X75934Y-51199D01*
X76092Y-51042D01*
X76184Y-50820D01*
X76184Y-50580D01*
X76092Y-50358D01*
X75934Y-50199D01*
X76092Y-50042D01*
X76184Y-49820D01*
X76184Y-49580D01*
X76092Y-49358D01*
X75934Y-49199D01*
X76092Y-49042D01*
X76184Y-48820D01*
X76184Y-48580D01*
X76092Y-48358D01*
X75934Y-48199D01*
X76092Y-48042D01*
X76184Y-47820D01*
X76184Y-47763D01*
X77003Y-46944D01*
X77003Y-46944D01*
X77068Y-46847D01*
X77091Y-46732D01*
X77091Y-46732D01*
X77091Y-44032D01*
X77295Y-43828D01*
X77295Y-43935D01*
X77384Y-44150D01*
X77548Y-44315D01*
X77567Y-44323D01*
X77539Y-44408D01*
X77880Y-44749D01*
X78220Y-44408D01*
X78192Y-44323D01*
X78210Y-44315D01*
X78375Y-44151D01*
X78464Y-43936D01*
X78464Y-43704D01*
X78464Y-44809D01*
X78458Y-44677D01*
X78389Y-44511D01*
X78291Y-44479D01*
X77950Y-44820D01*
X78291Y-45160D01*
X78389Y-45128D01*
X78469Y-44910D01*
X78469Y-61750D01*
X78464Y-61750D01*
X78464Y-46105D01*
X78464Y-45435D01*
X78426Y-45343D01*
X78356Y-45273D01*
X78264Y-45235D01*
X78218Y-45235D01*
X78220Y-45231D01*
X77880Y-44890D01*
X77809Y-44961D01*
X77809Y-44820D01*
X77468Y-44479D01*
X77370Y-44511D01*
X77290Y-44729D01*
X77301Y-44962D01*
X77370Y-45128D01*
X77468Y-45160D01*
X77809Y-44820D01*
X77809Y-44961D01*
X77539Y-45231D01*
X77541Y-45235D01*
X77495Y-45235D01*
X77403Y-45273D01*
X77333Y-45343D01*
X77295Y-45435D01*
X77295Y-45534D01*
X77295Y-46204D01*
X77333Y-46296D01*
X77403Y-46366D01*
X77495Y-46404D01*
X77580Y-46404D01*
X77580Y-47579D01*
X77527Y-47632D01*
X77101Y-47632D01*
X77009Y-47670D01*
X76939Y-47740D01*
X76901Y-47832D01*
X76900Y-47931D01*
X76900Y-48443D01*
X76929Y-48513D01*
X76900Y-48582D01*
X76900Y-48775D01*
X76963Y-48838D01*
X77395Y-48838D01*
X77395Y-48830D01*
X77495Y-48830D01*
X77495Y-48838D01*
X77503Y-48838D01*
X77503Y-48938D01*
X77495Y-48938D01*
X77495Y-49331D01*
X77558Y-49394D01*
X77691Y-49394D01*
X77770Y-49394D01*
X77770Y-49778D01*
X77711Y-49778D01*
X77395Y-49778D01*
X77395Y-49331D01*
X77395Y-48938D01*
X76963Y-48938D01*
X76900Y-49000D01*
X76900Y-49193D01*
X76938Y-49285D01*
X77009Y-49355D01*
X77101Y-49394D01*
X77200Y-49394D01*
X77333Y-49394D01*
X77395Y-49331D01*
X77395Y-49778D01*
X77120Y-49778D01*
X77029Y-49816D01*
X76958Y-49886D01*
X76920Y-49978D01*
X76920Y-50077D01*
X76920Y-50845D01*
X76958Y-50937D01*
X76973Y-50953D01*
X76958Y-50968D01*
X76920Y-51060D01*
X76920Y-51159D01*
X76920Y-51927D01*
X76958Y-52019D01*
X77028Y-52089D01*
X77120Y-52128D01*
X77165Y-52128D01*
X77165Y-53515D01*
X77161Y-53517D01*
X77041Y-53636D01*
X76976Y-53793D01*
X76976Y-53962D01*
X77041Y-54118D01*
X77160Y-54238D01*
X77316Y-54302D01*
X77485Y-54303D01*
X77642Y-54238D01*
X77761Y-54119D01*
X77826Y-53962D01*
X77826Y-53793D01*
X77765Y-53646D01*
X77765Y-52128D01*
X77810Y-52128D01*
X77902Y-52090D01*
X77973Y-52019D01*
X78011Y-51928D01*
X78011Y-51828D01*
X78011Y-51060D01*
X77973Y-50968D01*
X77958Y-50953D01*
X77973Y-50937D01*
X78011Y-50846D01*
X78011Y-50746D01*
X78011Y-50522D01*
X78282Y-50251D01*
X78282Y-50251D01*
X78348Y-50154D01*
X78370Y-50039D01*
X78370Y-50039D01*
X78370Y-48444D01*
X78348Y-48330D01*
X78282Y-48232D01*
X78282Y-48232D01*
X78029Y-47979D01*
X78092Y-47916D01*
X78157Y-47818D01*
X78157Y-47818D01*
X78179Y-47704D01*
X78180Y-47704D01*
X78180Y-46404D01*
X78264Y-46404D01*
X78356Y-46366D01*
X78426Y-46296D01*
X78464Y-46204D01*
X78464Y-46105D01*
X78464Y-61750D01*
X77850Y-61750D01*
X77850Y-59892D01*
X77690Y-59506D01*
X77395Y-59210D01*
X77009Y-59050D01*
X76592Y-59049D01*
X76206Y-59209D01*
X75910Y-59504D01*
X75750Y-59890D01*
X75749Y-60307D01*
X75909Y-60694D01*
X76204Y-60989D01*
X76590Y-61149D01*
X77007Y-61150D01*
X77394Y-60990D01*
X77689Y-60695D01*
X77849Y-60309D01*
X77850Y-59892D01*
X77850Y-61750D01*
X72144Y-61750D01*
X72144Y-60280D01*
X72052Y-60058D01*
X71882Y-59887D01*
X71840Y-59870D01*
X71840Y-54945D01*
X71817Y-54830D01*
X71752Y-54733D01*
X71752Y-54733D01*
X64270Y-47251D01*
X64270Y-47165D01*
X64288Y-47121D01*
X64288Y-47021D01*
X64288Y-46510D01*
X64250Y-46419D01*
X64180Y-46348D01*
X64088Y-46310D01*
X63988Y-46310D01*
X63851Y-46310D01*
X63851Y-46310D01*
X63791Y-46310D01*
X63654Y-46310D01*
X63654Y-46310D01*
X63594Y-46310D01*
X63457Y-46310D01*
X63457Y-46310D01*
X63397Y-46310D01*
X63260Y-46310D01*
X63260Y-46310D01*
X63200Y-46310D01*
X63063Y-46310D01*
X63063Y-46310D01*
X63003Y-46310D01*
X62866Y-46310D01*
X62866Y-46310D01*
X62806Y-46310D01*
X62669Y-46310D01*
X62669Y-46310D01*
X62610Y-46310D01*
X62513Y-46310D01*
X62473Y-46310D01*
X62394Y-46343D01*
X62316Y-46310D01*
X62298Y-46310D01*
X62298Y-46310D01*
X62276Y-46310D01*
X62276Y-46310D01*
X62216Y-46310D01*
X62079Y-46310D01*
X62079Y-46310D01*
X62020Y-46310D01*
X61883Y-46310D01*
X61883Y-46310D01*
X61823Y-46310D01*
X61686Y-46310D01*
X61686Y-46310D01*
X61626Y-46310D01*
X61489Y-46310D01*
X61489Y-46310D01*
X61430Y-46310D01*
X61293Y-46310D01*
X61293Y-46310D01*
X61233Y-46310D01*
X61136Y-46310D01*
X61096Y-46310D01*
X61017Y-46343D01*
X60939Y-46310D01*
X60921Y-46310D01*
X60921Y-46310D01*
X60899Y-46310D01*
X60899Y-46310D01*
X60839Y-46310D01*
X60702Y-46310D01*
X60702Y-46310D01*
X60642Y-46310D01*
X60505Y-46310D01*
X60505Y-46310D01*
X60445Y-46310D01*
X60308Y-46310D01*
X60308Y-46310D01*
X60248Y-46310D01*
X60111Y-46310D01*
X60020Y-46348D01*
X59949Y-46418D01*
X59911Y-46510D01*
X59911Y-46610D01*
X59911Y-47121D01*
X59930Y-47165D01*
X59930Y-47362D01*
X52327Y-54964D01*
X52262Y-55061D01*
X52240Y-55176D01*
X52240Y-59795D01*
X52136Y-59795D01*
X52044Y-59833D01*
X51973Y-59903D01*
X51935Y-59995D01*
X51935Y-60095D01*
X51935Y-60803D01*
X51973Y-60895D01*
X52043Y-60966D01*
X52135Y-61004D01*
X52235Y-61004D01*
X52943Y-61004D01*
X53035Y-60966D01*
X53106Y-60896D01*
X53128Y-60842D01*
X53197Y-60912D01*
X53419Y-61004D01*
X53659Y-61004D01*
X53881Y-60912D01*
X54040Y-60754D01*
X54197Y-60912D01*
X54419Y-61004D01*
X54659Y-61004D01*
X54881Y-60912D01*
X55040Y-60754D01*
X55197Y-60912D01*
X55419Y-61004D01*
X55659Y-61004D01*
X55881Y-60912D01*
X56052Y-60742D01*
X56055Y-60734D01*
X56114Y-60754D01*
X56469Y-60400D01*
X56114Y-60045D01*
X56055Y-60065D01*
X56052Y-60058D01*
X55882Y-59887D01*
X55840Y-59870D01*
X55840Y-53600D01*
X60915Y-48525D01*
X60915Y-48896D01*
X57327Y-52484D01*
X57262Y-52581D01*
X57240Y-52696D01*
X57240Y-59870D01*
X57198Y-59887D01*
X57027Y-60057D01*
X57024Y-60065D01*
X56965Y-60045D01*
X56894Y-60116D01*
X56894Y-59974D01*
X56860Y-59873D01*
X56634Y-59791D01*
X56394Y-59801D01*
X56219Y-59873D01*
X56185Y-59974D01*
X56540Y-60329D01*
X56894Y-59974D01*
X56894Y-60116D01*
X56610Y-60400D01*
X56965Y-60754D01*
X57024Y-60734D01*
X57027Y-60741D01*
X57197Y-60912D01*
X57419Y-61004D01*
X57659Y-61004D01*
X57881Y-60912D01*
X58040Y-60754D01*
X58197Y-60912D01*
X58419Y-61004D01*
X58659Y-61004D01*
X58881Y-60912D01*
X59040Y-60754D01*
X59197Y-60912D01*
X59419Y-61004D01*
X59659Y-61004D01*
X59881Y-60912D01*
X60040Y-60754D01*
X60197Y-60912D01*
X60419Y-61004D01*
X60659Y-61004D01*
X60881Y-60912D01*
X61040Y-60754D01*
X61197Y-60912D01*
X61419Y-61004D01*
X61659Y-61004D01*
X61881Y-60912D01*
X62040Y-60754D01*
X62197Y-60912D01*
X62419Y-61004D01*
X62659Y-61004D01*
X62881Y-60912D01*
X63052Y-60742D01*
X63055Y-60734D01*
X63114Y-60754D01*
X63469Y-60400D01*
X63114Y-60045D01*
X63055Y-60065D01*
X63052Y-60058D01*
X62882Y-59887D01*
X62840Y-59870D01*
X62840Y-52441D01*
X62817Y-52326D01*
X62817Y-52326D01*
X62752Y-52229D01*
X62498Y-51975D01*
X62498Y-50678D01*
X64240Y-52420D01*
X64240Y-59870D01*
X64198Y-59887D01*
X64027Y-60057D01*
X64024Y-60065D01*
X63965Y-60045D01*
X63894Y-60116D01*
X63894Y-59974D01*
X63860Y-59873D01*
X63634Y-59791D01*
X63394Y-59801D01*
X63219Y-59873D01*
X63185Y-59974D01*
X63540Y-60329D01*
X63894Y-59974D01*
X63894Y-60116D01*
X63610Y-60400D01*
X63965Y-60754D01*
X64024Y-60734D01*
X64027Y-60741D01*
X64197Y-60912D01*
X64419Y-61004D01*
X64659Y-61004D01*
X64881Y-60912D01*
X65040Y-60754D01*
X65197Y-60912D01*
X65419Y-61004D01*
X65659Y-61004D01*
X65881Y-60912D01*
X66040Y-60754D01*
X66197Y-60912D01*
X66419Y-61004D01*
X66659Y-61004D01*
X66881Y-60912D01*
X67040Y-60754D01*
X67197Y-60912D01*
X67419Y-61004D01*
X67659Y-61004D01*
X67881Y-60912D01*
X68040Y-60754D01*
X68197Y-60912D01*
X68419Y-61004D01*
X68659Y-61004D01*
X68881Y-60912D01*
X69040Y-60754D01*
X69197Y-60912D01*
X69419Y-61004D01*
X69659Y-61004D01*
X69881Y-60912D01*
X70040Y-60754D01*
X70197Y-60912D01*
X70419Y-61004D01*
X70659Y-61004D01*
X70881Y-60912D01*
X71040Y-60754D01*
X71197Y-60912D01*
X71419Y-61004D01*
X71659Y-61004D01*
X71881Y-60912D01*
X72052Y-60742D01*
X72144Y-60520D01*
X72144Y-60280D01*
X72144Y-61750D01*
X63894Y-61750D01*
X63894Y-60825D01*
X63540Y-60470D01*
X63185Y-60825D01*
X63219Y-60926D01*
X63445Y-61008D01*
X63685Y-60998D01*
X63860Y-60926D01*
X63894Y-60825D01*
X63894Y-61750D01*
X56894Y-61750D01*
X56894Y-60825D01*
X56540Y-60470D01*
X56185Y-60825D01*
X56219Y-60926D01*
X56445Y-61008D01*
X56685Y-60998D01*
X56860Y-60926D01*
X56894Y-60825D01*
X56894Y-61750D01*
X46576Y-61750D01*
X46576Y-49340D01*
X46576Y-48631D01*
X46538Y-48539D01*
X46468Y-48469D01*
X46376Y-48430D01*
X46311Y-48430D01*
X46311Y-47211D01*
X46315Y-47208D01*
X46353Y-47116D01*
X46353Y-47017D01*
X46353Y-46427D01*
X46315Y-46335D01*
X46245Y-46264D01*
X46153Y-46226D01*
X46053Y-46226D01*
X45541Y-46226D01*
X45472Y-46255D01*
X45402Y-46226D01*
X45209Y-46226D01*
X45147Y-46289D01*
X45147Y-46721D01*
X45155Y-46721D01*
X45155Y-46821D01*
X45147Y-46821D01*
X45147Y-47254D01*
X45209Y-47316D01*
X45402Y-47316D01*
X45472Y-47287D01*
X45541Y-47316D01*
X45640Y-47316D01*
X45711Y-47316D01*
X45711Y-48430D01*
X45647Y-48430D01*
X45555Y-48468D01*
X45485Y-48539D01*
X45452Y-48617D01*
X45420Y-48539D01*
X45350Y-48469D01*
X45258Y-48430D01*
X45158Y-48430D01*
X45047Y-48430D01*
X45047Y-47254D01*
X45047Y-46821D01*
X45047Y-46721D01*
X45047Y-46289D01*
X44984Y-46226D01*
X44929Y-46226D01*
X44929Y-44655D01*
X44929Y-44223D01*
X44929Y-44123D01*
X44929Y-43690D01*
X44866Y-43628D01*
X44673Y-43628D01*
X44581Y-43666D01*
X44511Y-43736D01*
X44473Y-43828D01*
X44473Y-43927D01*
X44473Y-44060D01*
X44535Y-44123D01*
X44929Y-44123D01*
X44929Y-44223D01*
X44535Y-44223D01*
X44473Y-44285D01*
X44473Y-44418D01*
X44473Y-44518D01*
X44511Y-44610D01*
X44581Y-44680D01*
X44673Y-44718D01*
X44866Y-44718D01*
X44929Y-44655D01*
X44929Y-46226D01*
X44791Y-46226D01*
X44700Y-46264D01*
X44629Y-46334D01*
X44591Y-46426D01*
X44591Y-46526D01*
X44591Y-46659D01*
X44653Y-46721D01*
X45047Y-46721D01*
X45047Y-46821D01*
X44653Y-46821D01*
X44591Y-46884D01*
X44591Y-47017D01*
X44591Y-47116D01*
X44629Y-47208D01*
X44700Y-47278D01*
X44791Y-47316D01*
X44984Y-47316D01*
X45047Y-47254D01*
X45047Y-48430D01*
X44529Y-48430D01*
X44437Y-48468D01*
X44367Y-48539D01*
X44329Y-48630D01*
X44329Y-48730D01*
X44329Y-49439D01*
X44367Y-49531D01*
X44437Y-49601D01*
X44529Y-49639D01*
X44593Y-49639D01*
X44593Y-50097D01*
X44464Y-50151D01*
X44344Y-50270D01*
X44279Y-50426D01*
X44279Y-50595D01*
X44344Y-50752D01*
X44463Y-50871D01*
X44619Y-50936D01*
X44788Y-50936D01*
X44945Y-50872D01*
X45064Y-50752D01*
X45129Y-50596D01*
X45129Y-50499D01*
X45129Y-50499D01*
X45170Y-50437D01*
X45193Y-50322D01*
X45193Y-50322D01*
X45193Y-49639D01*
X45257Y-49639D01*
X45349Y-49601D01*
X45420Y-49531D01*
X45452Y-49452D01*
X45485Y-49531D01*
X45555Y-49601D01*
X45647Y-49639D01*
X45746Y-49639D01*
X46375Y-49639D01*
X46467Y-49601D01*
X46538Y-49531D01*
X46576Y-49439D01*
X46576Y-49340D01*
X46576Y-61750D01*
X46050Y-61750D01*
X46050Y-59992D01*
X46043Y-59975D01*
X46043Y-54811D01*
X46040Y-54654D01*
X46040Y-53200D01*
X46040Y-52019D01*
X46002Y-51928D01*
X45932Y-51857D01*
X45840Y-51819D01*
X45740Y-51819D01*
X44559Y-51819D01*
X44468Y-51857D01*
X44397Y-51927D01*
X44359Y-52019D01*
X44359Y-52119D01*
X44359Y-53300D01*
X44397Y-53391D01*
X44467Y-53462D01*
X44559Y-53500D01*
X44659Y-53500D01*
X45840Y-53500D01*
X45931Y-53462D01*
X46002Y-53392D01*
X46040Y-53300D01*
X46040Y-53200D01*
X46040Y-54654D01*
X46037Y-54476D01*
X45921Y-54197D01*
X45796Y-54134D01*
X45725Y-54205D01*
X45725Y-54063D01*
X45662Y-53938D01*
X45351Y-53816D01*
X45016Y-53822D01*
X44737Y-53938D01*
X44674Y-54063D01*
X45200Y-54589D01*
X45725Y-54063D01*
X45725Y-54205D01*
X45270Y-54660D01*
X45796Y-55185D01*
X45921Y-55122D01*
X46043Y-54811D01*
X46043Y-59975D01*
X45890Y-59606D01*
X45725Y-59440D01*
X45725Y-55256D01*
X45200Y-54730D01*
X45129Y-54801D01*
X45129Y-54660D01*
X44603Y-54134D01*
X44478Y-54197D01*
X44356Y-54508D01*
X44362Y-54843D01*
X44478Y-55122D01*
X44603Y-55185D01*
X45129Y-54660D01*
X45129Y-54801D01*
X44674Y-55256D01*
X44737Y-55381D01*
X45048Y-55503D01*
X45383Y-55497D01*
X45662Y-55381D01*
X45725Y-55256D01*
X45725Y-59440D01*
X45595Y-59310D01*
X45209Y-59150D01*
X44792Y-59149D01*
X44406Y-59309D01*
X44110Y-59604D01*
X43950Y-59990D01*
X43949Y-60407D01*
X44109Y-60794D01*
X44404Y-61089D01*
X44790Y-61249D01*
X45207Y-61250D01*
X45594Y-61090D01*
X45889Y-60795D01*
X46049Y-60409D01*
X46050Y-59992D01*
X46050Y-61750D01*
X43550Y-61750D01*
X43550Y-41828D01*
X43842Y-42121D01*
X43842Y-42121D01*
X43940Y-42186D01*
X44055Y-42209D01*
X44270Y-42209D01*
X44270Y-42313D01*
X44308Y-42405D01*
X44378Y-42475D01*
X44470Y-42513D01*
X44569Y-42513D01*
X45198Y-42513D01*
X45290Y-42476D01*
X45361Y-42405D01*
X45393Y-42326D01*
X45426Y-42405D01*
X45496Y-42475D01*
X45588Y-42513D01*
X45652Y-42513D01*
X45652Y-43628D01*
X45423Y-43628D01*
X45354Y-43656D01*
X45284Y-43628D01*
X45091Y-43628D01*
X45029Y-43690D01*
X45029Y-44123D01*
X45037Y-44123D01*
X45037Y-44223D01*
X45029Y-44223D01*
X45029Y-44655D01*
X45091Y-44718D01*
X45284Y-44718D01*
X45354Y-44689D01*
X45423Y-44718D01*
X45522Y-44718D01*
X46034Y-44718D01*
X46126Y-44680D01*
X46197Y-44610D01*
X46235Y-44518D01*
X46235Y-44418D01*
X46235Y-44036D01*
X46235Y-44036D01*
X46252Y-43949D01*
X46252Y-43949D01*
X46252Y-42513D01*
X46316Y-42513D01*
X46408Y-42476D01*
X46479Y-42405D01*
X46517Y-42313D01*
X46517Y-42214D01*
X46517Y-41505D01*
X46479Y-41413D01*
X46408Y-41343D01*
X46317Y-41304D01*
X46217Y-41304D01*
X45588Y-41304D01*
X45496Y-41342D01*
X45426Y-41413D01*
X45393Y-41491D01*
X45361Y-41413D01*
X45290Y-41343D01*
X45199Y-41304D01*
X45099Y-41304D01*
X44470Y-41304D01*
X44378Y-41342D01*
X44308Y-41413D01*
X44270Y-41505D01*
X44270Y-41604D01*
X44270Y-41609D01*
X44179Y-41609D01*
X43902Y-41332D01*
X43902Y-39216D01*
X43933Y-39247D01*
X43971Y-39263D01*
X43971Y-39980D01*
X43994Y-40095D01*
X44059Y-40192D01*
X44417Y-40550D01*
X44417Y-40635D01*
X44482Y-40791D01*
X44601Y-40911D01*
X44757Y-40976D01*
X44926Y-40976D01*
X45082Y-40911D01*
X45202Y-40792D01*
X45267Y-40636D01*
X45267Y-40467D01*
X45203Y-40310D01*
X45083Y-40191D01*
X44927Y-40126D01*
X44841Y-40126D01*
X44571Y-39856D01*
X44571Y-39263D01*
X44610Y-39247D01*
X44680Y-39177D01*
X44718Y-39085D01*
X44719Y-38986D01*
X44719Y-38592D01*
X44681Y-38500D01*
X44610Y-38429D01*
X44518Y-38391D01*
X44419Y-38391D01*
X44025Y-38391D01*
X43933Y-38429D01*
X43902Y-38460D01*
X43902Y-37880D01*
X44218Y-37563D01*
X46568Y-37563D01*
X47427Y-38422D01*
X47352Y-38391D01*
X47253Y-38391D01*
X46859Y-38391D01*
X46767Y-38429D01*
X46697Y-38499D01*
X46659Y-38591D01*
X46658Y-38691D01*
X46658Y-39085D01*
X46696Y-39177D01*
X46767Y-39247D01*
X46805Y-39263D01*
X46805Y-41633D01*
X46828Y-41748D01*
X46893Y-41845D01*
X47860Y-42812D01*
X47860Y-42812D01*
X47957Y-42877D01*
X48072Y-42899D01*
X48072Y-42900D01*
X48170Y-42900D01*
X48187Y-42941D01*
X48345Y-43100D01*
X48187Y-43257D01*
X48095Y-43479D01*
X48095Y-43719D01*
X48187Y-43941D01*
X48345Y-44100D01*
X48187Y-44257D01*
X48095Y-44479D01*
X48095Y-44719D01*
X48187Y-44941D01*
X48357Y-45112D01*
X48365Y-45115D01*
X48345Y-45174D01*
X48700Y-45529D01*
X49054Y-45174D01*
X49034Y-45115D01*
X49041Y-45112D01*
X49212Y-44942D01*
X49229Y-44900D01*
X49750Y-44900D01*
X49750Y-44899D01*
X49865Y-44877D01*
X49865Y-44877D01*
X49962Y-44812D01*
X50156Y-44618D01*
X51512Y-44618D01*
X49830Y-46300D01*
X49308Y-46300D01*
X49308Y-45694D01*
X49298Y-45454D01*
X49226Y-45279D01*
X49125Y-45245D01*
X48770Y-45600D01*
X49125Y-45954D01*
X49226Y-45920D01*
X49308Y-45694D01*
X49308Y-46300D01*
X49229Y-46300D01*
X49212Y-46258D01*
X49042Y-46087D01*
X49034Y-46084D01*
X49054Y-46025D01*
X48700Y-45670D01*
X48629Y-45741D01*
X48629Y-45600D01*
X48274Y-45245D01*
X48173Y-45279D01*
X48091Y-45505D01*
X48101Y-45745D01*
X48173Y-45920D01*
X48274Y-45954D01*
X48629Y-45600D01*
X48629Y-45741D01*
X48345Y-46025D01*
X48365Y-46084D01*
X48358Y-46087D01*
X48187Y-46257D01*
X48095Y-46479D01*
X48095Y-46719D01*
X48187Y-46941D01*
X48345Y-47100D01*
X48187Y-47257D01*
X48095Y-47479D01*
X48095Y-47719D01*
X48187Y-47941D01*
X48345Y-48100D01*
X48187Y-48257D01*
X48095Y-48479D01*
X48095Y-48719D01*
X48187Y-48941D01*
X48345Y-49100D01*
X48187Y-49257D01*
X48095Y-49479D01*
X48095Y-49719D01*
X48187Y-49941D01*
X48345Y-50100D01*
X48187Y-50257D01*
X48095Y-50479D01*
X48095Y-50719D01*
X48187Y-50941D01*
X48345Y-51100D01*
X48187Y-51257D01*
X48095Y-51479D01*
X48095Y-51719D01*
X48187Y-51941D01*
X48345Y-52100D01*
X48187Y-52257D01*
X48095Y-52479D01*
X48095Y-52719D01*
X48187Y-52941D01*
X48345Y-53100D01*
X48187Y-53257D01*
X48095Y-53479D01*
X48095Y-53719D01*
X48187Y-53941D01*
X48357Y-54112D01*
X48579Y-54204D01*
X48819Y-54204D01*
X49041Y-54112D01*
X49212Y-53942D01*
X49229Y-53900D01*
X50868Y-53900D01*
X50868Y-53899D01*
X50983Y-53877D01*
X50983Y-53877D01*
X51080Y-53812D01*
X58502Y-46390D01*
X59154Y-46390D01*
X59198Y-46408D01*
X59298Y-46408D01*
X59809Y-46408D01*
X59900Y-46370D01*
X59971Y-46300D01*
X60009Y-46208D01*
X60009Y-46108D01*
X60009Y-45971D01*
X60009Y-45971D01*
X60009Y-45911D01*
X60009Y-45774D01*
X60009Y-45774D01*
X60009Y-45714D01*
X60009Y-45577D01*
X60009Y-45577D01*
X60009Y-45517D01*
X60009Y-45380D01*
X60009Y-45380D01*
X60009Y-45320D01*
X60009Y-45183D01*
X60009Y-45183D01*
X60009Y-45123D01*
X60009Y-44986D01*
X60009Y-44986D01*
X60009Y-44926D01*
X60009Y-44789D01*
X60009Y-44789D01*
X60009Y-44730D01*
X60009Y-44593D01*
X60009Y-44593D01*
X60009Y-44611D01*
X60009Y-44611D01*
X60009Y-44593D01*
X59976Y-44514D01*
X60009Y-44436D01*
X60009Y-44418D01*
X60009Y-44418D01*
X60009Y-44416D01*
X60009Y-44336D01*
X60009Y-44199D01*
X60009Y-44199D01*
X60009Y-44140D01*
X60009Y-44003D01*
X60009Y-44003D01*
X60009Y-43943D01*
X60009Y-43806D01*
X60009Y-43806D01*
X60009Y-43746D01*
X60009Y-43609D01*
X60009Y-43609D01*
X60009Y-43550D01*
X60009Y-43413D01*
X60009Y-43413D01*
X60009Y-43353D01*
X60009Y-43216D01*
X60009Y-43216D01*
X60009Y-43156D01*
X60009Y-43019D01*
X60009Y-43019D01*
X60009Y-42959D01*
X60009Y-42822D01*
X60009Y-42822D01*
X60009Y-42762D01*
X60009Y-42625D01*
X60009Y-42625D01*
X60009Y-42565D01*
X60009Y-42428D01*
X60009Y-42428D01*
X60009Y-42368D01*
X60009Y-42231D01*
X59971Y-42140D01*
X59901Y-42069D01*
X59809Y-42031D01*
X59709Y-42031D01*
X59198Y-42031D01*
X59154Y-42050D01*
X58458Y-42050D01*
X51704Y-35296D01*
X51704Y-31234D01*
X51640Y-31078D01*
X51520Y-30958D01*
X51364Y-30893D01*
X51195Y-30893D01*
X51174Y-30902D01*
X51160Y-30899D01*
X50367Y-30899D01*
X50367Y-30894D01*
X50329Y-30802D01*
X50259Y-30731D01*
X50167Y-30693D01*
X50122Y-30693D01*
X50122Y-30492D01*
X50099Y-30377D01*
X50034Y-30279D01*
X50034Y-30279D01*
X49700Y-29945D01*
X49602Y-29880D01*
X49488Y-29857D01*
X48838Y-29857D01*
X48723Y-29880D01*
X48626Y-29945D01*
X48232Y-30339D01*
X48167Y-30436D01*
X48144Y-30551D01*
X48144Y-30713D01*
X48100Y-30713D01*
X48008Y-30751D01*
X47938Y-30821D01*
X47899Y-30913D01*
X47899Y-31012D01*
X47899Y-31524D01*
X47928Y-31594D01*
X47899Y-31663D01*
X47899Y-31856D01*
X47962Y-31919D01*
X48394Y-31919D01*
X48394Y-31911D01*
X48494Y-31911D01*
X48494Y-31919D01*
X48927Y-31919D01*
X48989Y-31856D01*
X48989Y-31663D01*
X48961Y-31594D01*
X48989Y-31525D01*
X48989Y-31425D01*
X48989Y-30913D01*
X48951Y-30822D01*
X48881Y-30751D01*
X48789Y-30713D01*
X48744Y-30713D01*
X48744Y-30675D01*
X48962Y-30457D01*
X49363Y-30457D01*
X49522Y-30616D01*
X49522Y-30693D01*
X49478Y-30693D01*
X49386Y-30731D01*
X49316Y-30802D01*
X49277Y-30893D01*
X49277Y-30993D01*
X49277Y-31505D01*
X49306Y-31574D01*
X49277Y-31644D01*
X49277Y-31837D01*
X49340Y-31899D01*
X49772Y-31899D01*
X49772Y-31891D01*
X49872Y-31891D01*
X49872Y-31899D01*
X50305Y-31899D01*
X50367Y-31837D01*
X50367Y-31644D01*
X50339Y-31574D01*
X50367Y-31505D01*
X50367Y-31499D01*
X50894Y-31499D01*
X50919Y-31559D01*
X51038Y-31678D01*
X51194Y-31743D01*
X51363Y-31743D01*
X51519Y-31679D01*
X51639Y-31559D01*
X51704Y-31403D01*
X51704Y-31234D01*
X51704Y-35296D01*
X50796Y-34387D01*
X50699Y-34322D01*
X50584Y-34300D01*
X50367Y-34300D01*
X50367Y-32255D01*
X50367Y-32062D01*
X50305Y-31999D01*
X49872Y-31999D01*
X49872Y-32393D01*
X49935Y-32455D01*
X50068Y-32455D01*
X50167Y-32455D01*
X50259Y-32417D01*
X50329Y-32347D01*
X50367Y-32255D01*
X50367Y-34300D01*
X49772Y-34300D01*
X49772Y-32393D01*
X49772Y-31999D01*
X49340Y-31999D01*
X49277Y-32062D01*
X49277Y-32255D01*
X49315Y-32347D01*
X49386Y-32417D01*
X49477Y-32455D01*
X49577Y-32455D01*
X49710Y-32455D01*
X49772Y-32393D01*
X49772Y-34300D01*
X49304Y-34300D01*
X49304Y-34196D01*
X49266Y-34104D01*
X49196Y-34033D01*
X49104Y-33995D01*
X49004Y-33995D01*
X48989Y-33995D01*
X48989Y-32274D01*
X48989Y-32081D01*
X48927Y-32019D01*
X48494Y-32019D01*
X48494Y-32412D01*
X48557Y-32475D01*
X48690Y-32475D01*
X48789Y-32475D01*
X48881Y-32437D01*
X48951Y-32366D01*
X48989Y-32274D01*
X48989Y-33995D01*
X48394Y-33995D01*
X48394Y-32412D01*
X48394Y-32019D01*
X47962Y-32019D01*
X47899Y-32081D01*
X47899Y-32274D01*
X47937Y-32366D01*
X48008Y-32437D01*
X48099Y-32475D01*
X48199Y-32475D01*
X48332Y-32475D01*
X48394Y-32412D01*
X48394Y-33995D01*
X48296Y-33995D01*
X48204Y-34033D01*
X48133Y-34103D01*
X48095Y-34195D01*
X48095Y-34295D01*
X48095Y-35003D01*
X48133Y-35095D01*
X48203Y-35166D01*
X48257Y-35188D01*
X48187Y-35257D01*
X48095Y-35479D01*
X48095Y-35719D01*
X48187Y-35941D01*
X48345Y-36100D01*
X48187Y-36257D01*
X48095Y-36479D01*
X48095Y-36719D01*
X48187Y-36941D01*
X48345Y-37100D01*
X48187Y-37257D01*
X48095Y-37479D01*
X48095Y-37719D01*
X48187Y-37941D01*
X48345Y-38100D01*
X48187Y-38257D01*
X48170Y-38300D01*
X48153Y-38300D01*
X46905Y-37051D01*
X46807Y-36986D01*
X46692Y-36963D01*
X46270Y-36963D01*
X46270Y-28112D01*
X46110Y-27726D01*
X45815Y-27430D01*
X45429Y-27270D01*
X45012Y-27269D01*
X44626Y-27429D01*
X44330Y-27724D01*
X44170Y-28110D01*
X44169Y-28527D01*
X44329Y-28914D01*
X44624Y-29209D01*
X45010Y-29369D01*
X45427Y-29370D01*
X45814Y-29210D01*
X46109Y-28915D01*
X46269Y-28529D01*
X46270Y-28112D01*
X46270Y-36963D01*
X46083Y-36963D01*
X46083Y-35231D01*
X46080Y-35074D01*
X46080Y-33620D01*
X46080Y-32439D01*
X46042Y-32348D01*
X45972Y-32277D01*
X45880Y-32239D01*
X45780Y-32239D01*
X44599Y-32239D01*
X44508Y-32277D01*
X44437Y-32347D01*
X44399Y-32439D01*
X44399Y-32539D01*
X44399Y-33720D01*
X44437Y-33811D01*
X44507Y-33882D01*
X44599Y-33920D01*
X44699Y-33920D01*
X45880Y-33920D01*
X45971Y-33882D01*
X46042Y-33812D01*
X46080Y-33720D01*
X46080Y-33620D01*
X46080Y-35074D01*
X46077Y-34896D01*
X45961Y-34617D01*
X45836Y-34554D01*
X45765Y-34625D01*
X45765Y-34483D01*
X45702Y-34358D01*
X45391Y-34236D01*
X45056Y-34242D01*
X44777Y-34358D01*
X44714Y-34483D01*
X45240Y-35009D01*
X45765Y-34483D01*
X45765Y-34625D01*
X45310Y-35080D01*
X45836Y-35605D01*
X45961Y-35542D01*
X46083Y-35231D01*
X46083Y-36963D01*
X45765Y-36963D01*
X45765Y-35676D01*
X45240Y-35150D01*
X45169Y-35221D01*
X45169Y-35080D01*
X44643Y-34554D01*
X44518Y-34617D01*
X44396Y-34928D01*
X44402Y-35263D01*
X44518Y-35542D01*
X44643Y-35605D01*
X45169Y-35080D01*
X45169Y-35221D01*
X44714Y-35676D01*
X44777Y-35801D01*
X45088Y-35923D01*
X45423Y-35917D01*
X45702Y-35801D01*
X45765Y-35676D01*
X45765Y-36963D01*
X44094Y-36963D01*
X43979Y-36986D01*
X43882Y-37051D01*
X43550Y-37384D01*
X43550Y-26750D01*
X43600Y-26750D01*
X78550Y-26750D01*
X78550Y-61750D01*
M02*
