G04 (created by PCBNEW (2013-07-07 BZR 4022)-stable) date 3/13/2015 2:12:22 PM*
%MOIN*%
G04 Gerber Fmt 3.4, Leading zero omitted, Abs format*
%FSLAX34Y34*%
G01*
G70*
G90*
G04 APERTURE LIST*
%ADD10C,0.00590551*%
%ADD11C,0.005*%
%ADD12C,0.0024*%
%ADD13C,0.0047*%
%ADD14C,0.0035*%
G04 APERTURE END LIST*
G54D10*
G54D11*
X63219Y-44225D02*
X63719Y-44225D01*
X63219Y-43725D02*
X63709Y-43725D01*
X63219Y-43575D02*
X63219Y-44375D01*
X63219Y-44375D02*
X63719Y-44375D01*
X63719Y-44375D02*
X63719Y-43575D01*
X63719Y-43575D02*
X63219Y-43575D01*
X60833Y-45371D02*
X60833Y-45871D01*
X61333Y-45371D02*
X61333Y-45861D01*
X61483Y-45371D02*
X60683Y-45371D01*
X60683Y-45371D02*
X60683Y-45871D01*
X60683Y-45871D02*
X61483Y-45871D01*
X61483Y-45871D02*
X61483Y-45371D01*
X62085Y-42481D02*
X62085Y-42981D01*
X62585Y-42481D02*
X62585Y-42971D01*
X62735Y-42481D02*
X61935Y-42481D01*
X61935Y-42481D02*
X61935Y-42981D01*
X61935Y-42981D02*
X62735Y-42981D01*
X62735Y-42981D02*
X62735Y-42481D01*
X62928Y-45343D02*
X62928Y-45843D01*
X63428Y-45343D02*
X63428Y-45833D01*
X63578Y-45343D02*
X62778Y-45343D01*
X62778Y-45343D02*
X62778Y-45843D01*
X62778Y-45843D02*
X63578Y-45843D01*
X63578Y-45843D02*
X63578Y-45343D01*
X64316Y-57958D02*
X64316Y-58458D01*
X64816Y-57958D02*
X64816Y-58448D01*
X64966Y-57958D02*
X64166Y-57958D01*
X64166Y-57958D02*
X64166Y-58458D01*
X64166Y-58458D02*
X64966Y-58458D01*
X64966Y-58458D02*
X64966Y-57958D01*
X61033Y-44370D02*
X60393Y-44370D01*
X60393Y-43290D02*
X61033Y-43290D01*
X61033Y-43290D02*
X61033Y-44550D01*
X61033Y-44550D02*
X60393Y-44550D01*
X60393Y-44550D02*
X60393Y-43290D01*
G54D12*
X63115Y-43955D02*
X63121Y-43950D01*
X63127Y-43933D01*
X63127Y-43922D01*
X63121Y-43905D01*
X63110Y-43894D01*
X63099Y-43888D01*
X63076Y-43882D01*
X63059Y-43882D01*
X63037Y-43888D01*
X63026Y-43894D01*
X63014Y-43905D01*
X63009Y-43922D01*
X63009Y-43933D01*
X63014Y-43950D01*
X63020Y-43955D01*
X63009Y-43995D02*
X63009Y-44068D01*
X63054Y-44028D01*
X63054Y-44045D01*
X63059Y-44057D01*
X63065Y-44062D01*
X63076Y-44068D01*
X63104Y-44068D01*
X63115Y-44062D01*
X63121Y-44057D01*
X63127Y-44045D01*
X63127Y-44012D01*
X63121Y-44000D01*
X63115Y-43995D01*
X61103Y-45267D02*
X61108Y-45273D01*
X61125Y-45279D01*
X61137Y-45279D01*
X61153Y-45273D01*
X61165Y-45262D01*
X61170Y-45250D01*
X61176Y-45228D01*
X61176Y-45211D01*
X61170Y-45189D01*
X61165Y-45177D01*
X61153Y-45166D01*
X61137Y-45161D01*
X61125Y-45161D01*
X61108Y-45166D01*
X61103Y-45172D01*
X60996Y-45161D02*
X61052Y-45161D01*
X61058Y-45217D01*
X61052Y-45211D01*
X61041Y-45205D01*
X61013Y-45205D01*
X61002Y-45211D01*
X60996Y-45217D01*
X60990Y-45228D01*
X60990Y-45256D01*
X60996Y-45267D01*
X61002Y-45273D01*
X61013Y-45279D01*
X61041Y-45279D01*
X61052Y-45273D01*
X61058Y-45267D01*
X62355Y-42378D02*
X62360Y-42383D01*
X62377Y-42389D01*
X62388Y-42389D01*
X62405Y-42383D01*
X62417Y-42372D01*
X62422Y-42361D01*
X62428Y-42338D01*
X62428Y-42321D01*
X62422Y-42299D01*
X62417Y-42288D01*
X62405Y-42276D01*
X62388Y-42271D01*
X62377Y-42271D01*
X62360Y-42276D01*
X62355Y-42282D01*
X62254Y-42310D02*
X62254Y-42389D01*
X62282Y-42265D02*
X62310Y-42349D01*
X62237Y-42349D01*
X63197Y-45240D02*
X63203Y-45245D01*
X63220Y-45251D01*
X63231Y-45251D01*
X63248Y-45245D01*
X63259Y-45234D01*
X63265Y-45223D01*
X63270Y-45200D01*
X63270Y-45184D01*
X63265Y-45161D01*
X63259Y-45150D01*
X63248Y-45139D01*
X63231Y-45133D01*
X63220Y-45133D01*
X63203Y-45139D01*
X63197Y-45144D01*
X63152Y-45144D02*
X63147Y-45139D01*
X63135Y-45133D01*
X63107Y-45133D01*
X63096Y-45139D01*
X63091Y-45144D01*
X63085Y-45155D01*
X63085Y-45167D01*
X63091Y-45184D01*
X63158Y-45251D01*
X63085Y-45251D01*
X64586Y-57866D02*
X64625Y-57810D01*
X64654Y-57866D02*
X64654Y-57748D01*
X64609Y-57748D01*
X64597Y-57754D01*
X64592Y-57759D01*
X64586Y-57770D01*
X64586Y-57787D01*
X64592Y-57798D01*
X64597Y-57804D01*
X64609Y-57810D01*
X64654Y-57810D01*
X64474Y-57866D02*
X64541Y-57866D01*
X64507Y-57866D02*
X64507Y-57748D01*
X64519Y-57765D01*
X64530Y-57776D01*
X64541Y-57782D01*
G54D13*
X60264Y-43897D02*
X60273Y-43888D01*
X60283Y-43860D01*
X60283Y-43841D01*
X60273Y-43813D01*
X60255Y-43794D01*
X60236Y-43785D01*
X60198Y-43775D01*
X60170Y-43775D01*
X60133Y-43785D01*
X60114Y-43794D01*
X60095Y-43813D01*
X60086Y-43841D01*
X60086Y-43860D01*
X60095Y-43888D01*
X60105Y-43897D01*
X60283Y-44085D02*
X60283Y-43972D01*
X60283Y-44028D02*
X60086Y-44028D01*
X60114Y-44010D01*
X60133Y-43991D01*
X60142Y-43972D01*
G54D14*
X61271Y-43672D02*
X61271Y-43172D01*
X61795Y-43624D02*
X61771Y-43648D01*
X61700Y-43672D01*
X61652Y-43672D01*
X61581Y-43648D01*
X61533Y-43600D01*
X61510Y-43553D01*
X61486Y-43458D01*
X61486Y-43386D01*
X61510Y-43291D01*
X61533Y-43243D01*
X61581Y-43196D01*
X61652Y-43172D01*
X61700Y-43172D01*
X61771Y-43196D01*
X61795Y-43220D01*
X62271Y-43672D02*
X61986Y-43672D01*
X62129Y-43672D02*
X62129Y-43172D01*
X62081Y-43243D01*
X62033Y-43291D01*
X61986Y-43315D01*
X60197Y-45062D02*
X60197Y-44562D01*
X60387Y-44562D01*
X60435Y-44586D01*
X60459Y-44610D01*
X60482Y-44657D01*
X60482Y-44729D01*
X60459Y-44776D01*
X60435Y-44800D01*
X60387Y-44824D01*
X60197Y-44824D01*
X60697Y-45062D02*
X60697Y-44562D01*
X61220Y-45014D02*
X61197Y-45038D01*
X61125Y-45062D01*
X61078Y-45062D01*
X61006Y-45038D01*
X60959Y-44990D01*
X60935Y-44943D01*
X60911Y-44848D01*
X60911Y-44776D01*
X60935Y-44681D01*
X60959Y-44633D01*
X61006Y-44586D01*
X61078Y-44562D01*
X61125Y-44562D01*
X61197Y-44586D01*
X61220Y-44610D01*
X61697Y-45062D02*
X61411Y-45062D01*
X61554Y-45062D02*
X61554Y-44562D01*
X61506Y-44633D01*
X61459Y-44681D01*
X61411Y-44705D01*
X61982Y-44776D02*
X61935Y-44752D01*
X61911Y-44729D01*
X61887Y-44681D01*
X61887Y-44657D01*
X61911Y-44610D01*
X61935Y-44586D01*
X61982Y-44562D01*
X62078Y-44562D01*
X62125Y-44586D01*
X62149Y-44610D01*
X62173Y-44657D01*
X62173Y-44681D01*
X62149Y-44729D01*
X62125Y-44752D01*
X62078Y-44776D01*
X61982Y-44776D01*
X61935Y-44800D01*
X61911Y-44824D01*
X61887Y-44871D01*
X61887Y-44967D01*
X61911Y-45014D01*
X61935Y-45038D01*
X61982Y-45062D01*
X62078Y-45062D01*
X62125Y-45038D01*
X62149Y-45014D01*
X62173Y-44967D01*
X62173Y-44871D01*
X62149Y-44824D01*
X62125Y-44800D01*
X62078Y-44776D01*
X62554Y-44800D02*
X62387Y-44800D01*
X62387Y-45062D02*
X62387Y-44562D01*
X62625Y-44562D01*
X62887Y-44776D02*
X62840Y-44752D01*
X62816Y-44729D01*
X62792Y-44681D01*
X62792Y-44657D01*
X62816Y-44610D01*
X62840Y-44586D01*
X62887Y-44562D01*
X62982Y-44562D01*
X63030Y-44586D01*
X63054Y-44610D01*
X63078Y-44657D01*
X63078Y-44681D01*
X63054Y-44729D01*
X63030Y-44752D01*
X62982Y-44776D01*
X62887Y-44776D01*
X62840Y-44800D01*
X62816Y-44824D01*
X62792Y-44871D01*
X62792Y-44967D01*
X62816Y-45014D01*
X62840Y-45038D01*
X62887Y-45062D01*
X62982Y-45062D01*
X63030Y-45038D01*
X63054Y-45014D01*
X63078Y-44967D01*
X63078Y-44871D01*
X63054Y-44824D01*
X63030Y-44800D01*
X62982Y-44776D01*
X63244Y-44562D02*
X63578Y-44562D01*
X63363Y-45062D01*
X63744Y-44610D02*
X63768Y-44586D01*
X63816Y-44562D01*
X63935Y-44562D01*
X63982Y-44586D01*
X64006Y-44610D01*
X64030Y-44657D01*
X64030Y-44705D01*
X64006Y-44776D01*
X63720Y-45062D01*
X64030Y-45062D01*
X64220Y-44610D02*
X64244Y-44586D01*
X64292Y-44562D01*
X64411Y-44562D01*
X64459Y-44586D01*
X64482Y-44610D01*
X64506Y-44657D01*
X64506Y-44705D01*
X64482Y-44776D01*
X64197Y-45062D01*
X64506Y-45062D01*
M02*
