G04 (created by PCBNEW (2013-07-07 BZR 4022)-stable) date 3/13/2015 2:12:22 PM*
%MOIN*%
G04 Gerber Fmt 3.4, Leading zero omitted, Abs format*
%FSLAX34Y34*%
G01*
G70*
G90*
G04 APERTURE LIST*
%ADD10C,0.00590551*%
%ADD11R,0.0394X0.0394*%
%ADD12R,0.0512X0.059*%
%ADD13R,0.059X0.0512*%
%ADD14R,0.0629X0.0709*%
%ADD15R,0.0591X0.0768*%
%ADD16R,0.0511X0.0137*%
%ADD17R,0.0137X0.0511*%
G04 APERTURE END LIST*
G54D10*
G54D11*
X44271Y-38838D03*
X47105Y-38838D03*
G54D12*
X45097Y-46771D03*
X45847Y-46771D03*
G54D13*
X49822Y-31949D03*
X49822Y-31199D03*
X48444Y-31969D03*
X48444Y-31219D03*
X77445Y-48888D03*
X77445Y-48138D03*
G54D12*
X44979Y-44173D03*
X45729Y-44173D03*
G54D14*
X45952Y-41909D03*
X44834Y-41909D03*
X46011Y-49035D03*
X44893Y-49035D03*
G54D15*
X77465Y-50412D03*
X77465Y-51494D03*
G54D16*
X59504Y-42350D03*
X59504Y-42547D03*
X59504Y-42744D03*
X59504Y-42941D03*
X59504Y-43138D03*
X59504Y-43335D03*
X59504Y-43532D03*
X59504Y-43728D03*
X59504Y-43925D03*
X59504Y-44122D03*
X59504Y-44318D03*
X59504Y-44515D03*
X59504Y-44712D03*
X59504Y-44908D03*
X59504Y-45105D03*
X59504Y-45302D03*
X59504Y-45499D03*
X59504Y-45696D03*
X59504Y-45893D03*
X59504Y-46090D03*
G54D17*
X60230Y-46816D03*
X60427Y-46816D03*
X60624Y-46816D03*
X60821Y-46816D03*
X61018Y-46816D03*
X61215Y-46816D03*
X61412Y-46816D03*
X61608Y-46816D03*
X61805Y-46816D03*
X62002Y-46816D03*
X62198Y-46816D03*
X62395Y-46816D03*
X62592Y-46816D03*
X62788Y-46816D03*
X62985Y-46816D03*
X63182Y-46816D03*
X63379Y-46816D03*
X63576Y-46816D03*
X63773Y-46816D03*
X63970Y-46816D03*
G54D16*
X64696Y-46090D03*
X64696Y-45893D03*
X64696Y-45696D03*
X64696Y-45499D03*
X64696Y-45302D03*
X64696Y-45105D03*
X64696Y-44908D03*
X64696Y-44712D03*
X64696Y-44515D03*
X64696Y-44318D03*
X64696Y-44122D03*
X64696Y-43925D03*
X64696Y-43728D03*
X64696Y-43532D03*
X64696Y-43335D03*
X64696Y-43138D03*
X64696Y-42941D03*
X64696Y-42744D03*
X64696Y-42547D03*
X64696Y-42350D03*
G54D17*
X63970Y-41624D03*
X63773Y-41624D03*
X63576Y-41624D03*
X63379Y-41624D03*
X63182Y-41624D03*
X62985Y-41624D03*
X62788Y-41624D03*
X62592Y-41624D03*
X62395Y-41624D03*
X62198Y-41624D03*
X62002Y-41624D03*
X61805Y-41624D03*
X61608Y-41624D03*
X61412Y-41624D03*
X61215Y-41624D03*
X61018Y-41624D03*
X60821Y-41624D03*
X60624Y-41624D03*
X60427Y-41624D03*
X60230Y-41624D03*
M02*
