G04 (created by PCBNEW (2013-07-07 BZR 4022)-stable) date 3/13/2015 2:12:22 PM*
%MOIN*%
G04 Gerber Fmt 3.4, Leading zero omitted, Abs format*
%FSLAX34Y34*%
G01*
G70*
G90*
G04 APERTURE LIST*
%ADD10C,0.00590551*%
%ADD11C,0.011811*%
%ADD12C,0.00688976*%
%ADD13C,0.01*%
%ADD14C,0.012*%
%ADD15C,0.005*%
%ADD16C,0.0026*%
%ADD17C,0.004*%
%ADD18C,0.006*%
%ADD19C,0.002*%
%ADD20C,0.003*%
%ADD21C,0.015*%
%ADD22C,0.0024*%
%ADD23C,0.0035*%
%ADD24C,0.0047*%
%ADD25C,0.0107*%
G04 APERTURE END LIST*
G54D10*
G54D11*
X47248Y-36387D02*
X47839Y-36190D01*
X47248Y-35993D01*
X47782Y-35459D02*
X47810Y-35487D01*
X47839Y-35571D01*
X47839Y-35628D01*
X47810Y-35712D01*
X47754Y-35768D01*
X47698Y-35796D01*
X47585Y-35824D01*
X47501Y-35824D01*
X47389Y-35796D01*
X47332Y-35768D01*
X47276Y-35712D01*
X47248Y-35628D01*
X47248Y-35571D01*
X47276Y-35487D01*
X47304Y-35459D01*
X47782Y-34868D02*
X47810Y-34896D01*
X47839Y-34981D01*
X47839Y-35037D01*
X47810Y-35121D01*
X47754Y-35178D01*
X47698Y-35206D01*
X47585Y-35234D01*
X47501Y-35234D01*
X47389Y-35206D01*
X47332Y-35178D01*
X47276Y-35121D01*
X47248Y-35037D01*
X47248Y-34981D01*
X47276Y-34896D01*
X47304Y-34868D01*
G54D12*
X64078Y-40964D02*
X64131Y-40964D01*
X64157Y-40950D01*
X64170Y-40937D01*
X64196Y-40898D01*
X64209Y-40845D01*
X64209Y-40740D01*
X64196Y-40714D01*
X64183Y-40701D01*
X64157Y-40688D01*
X64104Y-40688D01*
X64078Y-40701D01*
X64065Y-40714D01*
X64052Y-40740D01*
X64052Y-40806D01*
X64065Y-40832D01*
X64078Y-40845D01*
X64104Y-40859D01*
X64157Y-40859D01*
X64183Y-40845D01*
X64196Y-40832D01*
X64209Y-40806D01*
X63790Y-40688D02*
X63947Y-40688D01*
X63868Y-40688D02*
X63868Y-40964D01*
X63895Y-40924D01*
X63921Y-40898D01*
X63947Y-40885D01*
X60357Y-40845D02*
X60383Y-40859D01*
X60396Y-40872D01*
X60409Y-40898D01*
X60409Y-40911D01*
X60396Y-40937D01*
X60383Y-40950D01*
X60357Y-40964D01*
X60304Y-40964D01*
X60278Y-40950D01*
X60265Y-40937D01*
X60252Y-40911D01*
X60252Y-40898D01*
X60265Y-40872D01*
X60278Y-40859D01*
X60304Y-40845D01*
X60357Y-40845D01*
X60383Y-40832D01*
X60396Y-40819D01*
X60409Y-40793D01*
X60409Y-40740D01*
X60396Y-40714D01*
X60383Y-40701D01*
X60357Y-40688D01*
X60304Y-40688D01*
X60278Y-40701D01*
X60265Y-40714D01*
X60252Y-40740D01*
X60252Y-40793D01*
X60265Y-40819D01*
X60278Y-40832D01*
X60304Y-40845D01*
X60081Y-40964D02*
X60055Y-40964D01*
X60029Y-40950D01*
X60016Y-40937D01*
X60003Y-40911D01*
X59990Y-40859D01*
X59990Y-40793D01*
X60003Y-40740D01*
X60016Y-40714D01*
X60029Y-40701D01*
X60055Y-40688D01*
X60081Y-40688D01*
X60108Y-40701D01*
X60121Y-40714D01*
X60134Y-40740D01*
X60147Y-40793D01*
X60147Y-40859D01*
X60134Y-40911D01*
X60121Y-40937D01*
X60108Y-40950D01*
X60081Y-40964D01*
X65635Y-42478D02*
X65635Y-42531D01*
X65649Y-42557D01*
X65662Y-42570D01*
X65701Y-42596D01*
X65754Y-42609D01*
X65859Y-42609D01*
X65885Y-42596D01*
X65898Y-42583D01*
X65911Y-42557D01*
X65911Y-42504D01*
X65898Y-42478D01*
X65885Y-42465D01*
X65859Y-42452D01*
X65793Y-42452D01*
X65767Y-42465D01*
X65754Y-42478D01*
X65740Y-42504D01*
X65740Y-42557D01*
X65754Y-42583D01*
X65767Y-42596D01*
X65793Y-42609D01*
X65635Y-42281D02*
X65635Y-42255D01*
X65649Y-42229D01*
X65662Y-42216D01*
X65688Y-42203D01*
X65740Y-42190D01*
X65806Y-42190D01*
X65859Y-42203D01*
X65885Y-42216D01*
X65898Y-42229D01*
X65911Y-42255D01*
X65911Y-42281D01*
X65898Y-42308D01*
X65885Y-42321D01*
X65859Y-42334D01*
X65806Y-42347D01*
X65740Y-42347D01*
X65688Y-42334D01*
X65662Y-42321D01*
X65649Y-42308D01*
X65635Y-42281D01*
X65727Y-46078D02*
X65911Y-46078D01*
X65622Y-46144D02*
X65819Y-46209D01*
X65819Y-46039D01*
X65911Y-45790D02*
X65911Y-45947D01*
X65911Y-45868D02*
X65635Y-45868D01*
X65675Y-45895D01*
X65701Y-45921D01*
X65714Y-45947D01*
X63921Y-47727D02*
X63921Y-47911D01*
X63855Y-47622D02*
X63790Y-47819D01*
X63960Y-47819D01*
X64118Y-47635D02*
X64144Y-47635D01*
X64170Y-47649D01*
X64183Y-47662D01*
X64196Y-47688D01*
X64209Y-47740D01*
X64209Y-47806D01*
X64196Y-47859D01*
X64183Y-47885D01*
X64170Y-47898D01*
X64144Y-47911D01*
X64118Y-47911D01*
X64091Y-47898D01*
X64078Y-47885D01*
X64065Y-47859D01*
X64052Y-47806D01*
X64052Y-47740D01*
X64065Y-47688D01*
X64078Y-47662D01*
X64091Y-47649D01*
X64118Y-47635D01*
X59990Y-47662D02*
X60003Y-47649D01*
X60029Y-47635D01*
X60095Y-47635D01*
X60121Y-47649D01*
X60134Y-47662D01*
X60147Y-47688D01*
X60147Y-47714D01*
X60134Y-47754D01*
X59976Y-47911D01*
X60147Y-47911D01*
X60409Y-47911D02*
X60252Y-47911D01*
X60331Y-47911D02*
X60331Y-47635D01*
X60304Y-47675D01*
X60278Y-47701D01*
X60252Y-47714D01*
X58737Y-45790D02*
X58750Y-45803D01*
X58764Y-45829D01*
X58764Y-45895D01*
X58750Y-45921D01*
X58737Y-45934D01*
X58711Y-45947D01*
X58685Y-45947D01*
X58645Y-45934D01*
X58488Y-45776D01*
X58488Y-45947D01*
X58764Y-46118D02*
X58764Y-46144D01*
X58750Y-46170D01*
X58737Y-46183D01*
X58711Y-46196D01*
X58659Y-46209D01*
X58593Y-46209D01*
X58540Y-46196D01*
X58514Y-46183D01*
X58501Y-46170D01*
X58488Y-46144D01*
X58488Y-46118D01*
X58501Y-46091D01*
X58514Y-46078D01*
X58540Y-46065D01*
X58593Y-46052D01*
X58659Y-46052D01*
X58711Y-46065D01*
X58737Y-46078D01*
X58750Y-46091D01*
X58764Y-46118D01*
X58488Y-42478D02*
X58488Y-42321D01*
X58488Y-42400D02*
X58764Y-42400D01*
X58724Y-42373D01*
X58698Y-42347D01*
X58685Y-42321D01*
X76911Y-46539D02*
X76635Y-46539D01*
X76832Y-46447D01*
X76635Y-46355D01*
X76911Y-46355D01*
X76885Y-46066D02*
X76898Y-46080D01*
X76911Y-46119D01*
X76911Y-46145D01*
X76898Y-46185D01*
X76872Y-46211D01*
X76845Y-46224D01*
X76793Y-46237D01*
X76754Y-46237D01*
X76701Y-46224D01*
X76675Y-46211D01*
X76649Y-46185D01*
X76635Y-46145D01*
X76635Y-46119D01*
X76649Y-46080D01*
X76662Y-46066D01*
X76911Y-45817D02*
X76911Y-45948D01*
X76635Y-45948D01*
X76911Y-45568D02*
X76780Y-45660D01*
X76911Y-45725D02*
X76635Y-45725D01*
X76635Y-45620D01*
X76649Y-45594D01*
X76662Y-45581D01*
X76688Y-45568D01*
X76727Y-45568D01*
X76754Y-45581D01*
X76767Y-45594D01*
X76780Y-45620D01*
X76780Y-45725D01*
X76635Y-45279D02*
X76911Y-45187D01*
X76635Y-45095D01*
X76885Y-44846D02*
X76898Y-44859D01*
X76911Y-44898D01*
X76911Y-44925D01*
X76898Y-44964D01*
X76872Y-44990D01*
X76845Y-45003D01*
X76793Y-45017D01*
X76754Y-45017D01*
X76701Y-45003D01*
X76675Y-44990D01*
X76649Y-44964D01*
X76635Y-44925D01*
X76635Y-44898D01*
X76649Y-44859D01*
X76662Y-44846D01*
X76885Y-44570D02*
X76898Y-44583D01*
X76911Y-44623D01*
X76911Y-44649D01*
X76898Y-44688D01*
X76872Y-44715D01*
X76845Y-44728D01*
X76793Y-44741D01*
X76754Y-44741D01*
X76701Y-44728D01*
X76675Y-44715D01*
X76649Y-44688D01*
X76635Y-44649D01*
X76635Y-44623D01*
X76649Y-44583D01*
X76662Y-44570D01*
X76649Y-44098D02*
X76635Y-44124D01*
X76635Y-44164D01*
X76649Y-44203D01*
X76675Y-44229D01*
X76701Y-44242D01*
X76754Y-44255D01*
X76793Y-44255D01*
X76845Y-44242D01*
X76872Y-44229D01*
X76898Y-44203D01*
X76911Y-44164D01*
X76911Y-44137D01*
X76898Y-44098D01*
X76885Y-44085D01*
X76793Y-44085D01*
X76793Y-44137D01*
X76911Y-43967D02*
X76635Y-43967D01*
X76911Y-43809D01*
X76635Y-43809D01*
X76911Y-43678D02*
X76635Y-43678D01*
X76635Y-43612D01*
X76649Y-43573D01*
X76675Y-43547D01*
X76701Y-43534D01*
X76754Y-43520D01*
X76793Y-43520D01*
X76845Y-43534D01*
X76872Y-43547D01*
X76898Y-43573D01*
X76911Y-43612D01*
X76911Y-43678D01*
X76911Y-43192D02*
X76635Y-43192D01*
X76635Y-43087D01*
X76649Y-43061D01*
X76662Y-43048D01*
X76688Y-43035D01*
X76727Y-43035D01*
X76754Y-43048D01*
X76767Y-43061D01*
X76780Y-43087D01*
X76780Y-43192D01*
X76649Y-42772D02*
X76635Y-42799D01*
X76635Y-42838D01*
X76649Y-42877D01*
X76675Y-42904D01*
X76701Y-42917D01*
X76754Y-42930D01*
X76793Y-42930D01*
X76845Y-42917D01*
X76872Y-42904D01*
X76898Y-42877D01*
X76911Y-42838D01*
X76911Y-42812D01*
X76898Y-42772D01*
X76885Y-42759D01*
X76793Y-42759D01*
X76793Y-42812D01*
X76911Y-42641D02*
X76635Y-42641D01*
X76635Y-42576D01*
X76649Y-42536D01*
X76675Y-42510D01*
X76701Y-42497D01*
X76754Y-42484D01*
X76793Y-42484D01*
X76845Y-42497D01*
X76872Y-42510D01*
X76898Y-42536D01*
X76911Y-42576D01*
X76911Y-42641D01*
X76911Y-42156D02*
X76635Y-42156D01*
X76635Y-42051D01*
X76649Y-42024D01*
X76662Y-42011D01*
X76688Y-41998D01*
X76727Y-41998D01*
X76754Y-42011D01*
X76767Y-42024D01*
X76780Y-42051D01*
X76780Y-42156D01*
X76649Y-41736D02*
X76635Y-41762D01*
X76635Y-41801D01*
X76649Y-41841D01*
X76675Y-41867D01*
X76701Y-41880D01*
X76754Y-41893D01*
X76793Y-41893D01*
X76845Y-41880D01*
X76872Y-41867D01*
X76898Y-41841D01*
X76911Y-41801D01*
X76911Y-41775D01*
X76898Y-41736D01*
X76885Y-41723D01*
X76793Y-41723D01*
X76793Y-41775D01*
X76885Y-41447D02*
X76898Y-41460D01*
X76911Y-41500D01*
X76911Y-41526D01*
X76898Y-41565D01*
X76872Y-41591D01*
X76845Y-41604D01*
X76793Y-41618D01*
X76754Y-41618D01*
X76701Y-41604D01*
X76675Y-41591D01*
X76649Y-41565D01*
X76635Y-41526D01*
X76635Y-41500D01*
X76649Y-41460D01*
X76662Y-41447D01*
G54D11*
X47276Y-32649D02*
X47248Y-32706D01*
X47248Y-32790D01*
X47276Y-32874D01*
X47332Y-32931D01*
X47389Y-32959D01*
X47501Y-32987D01*
X47585Y-32987D01*
X47698Y-32959D01*
X47754Y-32931D01*
X47810Y-32874D01*
X47839Y-32790D01*
X47839Y-32734D01*
X47810Y-32649D01*
X47782Y-32621D01*
X47585Y-32621D01*
X47585Y-32734D01*
X47839Y-32368D02*
X47248Y-32368D01*
X47839Y-32031D01*
X47248Y-32031D01*
X47839Y-31750D02*
X47248Y-31750D01*
X47248Y-31609D01*
X47276Y-31525D01*
X47332Y-31468D01*
X47389Y-31440D01*
X47501Y-31412D01*
X47585Y-31412D01*
X47698Y-31440D01*
X47754Y-31468D01*
X47810Y-31525D01*
X47839Y-31609D01*
X47839Y-31750D01*
X47248Y-55587D02*
X47839Y-55390D01*
X47248Y-55193D01*
X47782Y-54659D02*
X47810Y-54687D01*
X47839Y-54771D01*
X47839Y-54828D01*
X47810Y-54912D01*
X47754Y-54968D01*
X47698Y-54996D01*
X47585Y-55024D01*
X47501Y-55024D01*
X47389Y-54996D01*
X47332Y-54968D01*
X47276Y-54912D01*
X47248Y-54828D01*
X47248Y-54771D01*
X47276Y-54687D01*
X47304Y-54659D01*
X47782Y-54068D02*
X47810Y-54096D01*
X47839Y-54181D01*
X47839Y-54237D01*
X47810Y-54321D01*
X47754Y-54378D01*
X47698Y-54406D01*
X47585Y-54434D01*
X47501Y-54434D01*
X47389Y-54406D01*
X47332Y-54378D01*
X47276Y-54321D01*
X47248Y-54237D01*
X47248Y-54181D01*
X47276Y-54096D01*
X47304Y-54068D01*
X47276Y-52849D02*
X47248Y-52906D01*
X47248Y-52990D01*
X47276Y-53074D01*
X47332Y-53131D01*
X47389Y-53159D01*
X47501Y-53187D01*
X47585Y-53187D01*
X47698Y-53159D01*
X47754Y-53131D01*
X47810Y-53074D01*
X47839Y-52990D01*
X47839Y-52934D01*
X47810Y-52849D01*
X47782Y-52821D01*
X47585Y-52821D01*
X47585Y-52934D01*
X47839Y-52568D02*
X47248Y-52568D01*
X47839Y-52231D01*
X47248Y-52231D01*
X47839Y-51950D02*
X47248Y-51950D01*
X47248Y-51809D01*
X47276Y-51725D01*
X47332Y-51668D01*
X47389Y-51640D01*
X47501Y-51612D01*
X47585Y-51612D01*
X47698Y-51640D01*
X47754Y-51668D01*
X47810Y-51725D01*
X47839Y-51809D01*
X47839Y-51950D01*
G54D13*
X46200Y-38562D02*
X46712Y-38287D01*
X46200Y-39114D02*
X46712Y-39389D01*
X45176Y-39114D02*
X44664Y-39389D01*
X44664Y-38287D02*
X45176Y-38562D01*
X44664Y-38287D02*
X46712Y-38287D01*
X46712Y-38287D02*
X46712Y-39389D01*
X46712Y-39389D02*
X44664Y-39389D01*
X44664Y-39389D02*
X44664Y-38287D01*
X45176Y-38562D02*
X46200Y-38562D01*
X46200Y-38562D02*
X46200Y-39114D01*
X46200Y-39114D02*
X45176Y-39114D01*
X45176Y-39114D02*
X45176Y-38562D01*
X44507Y-38129D02*
X46869Y-38129D01*
X46869Y-38129D02*
X46869Y-39547D01*
X46869Y-39547D02*
X44507Y-39547D01*
X44507Y-39547D02*
X44507Y-38129D01*
G54D14*
X78380Y-46320D02*
X77380Y-46320D01*
X77380Y-46320D02*
X77380Y-41320D01*
X77380Y-41320D02*
X78380Y-41320D01*
X78380Y-41320D02*
X78380Y-46320D01*
X78380Y-45320D02*
X77380Y-45320D01*
G54D15*
X45222Y-47021D02*
X45222Y-46521D01*
X45722Y-47021D02*
X45722Y-46531D01*
X45872Y-47021D02*
X45072Y-47021D01*
X45072Y-47021D02*
X45072Y-46521D01*
X45072Y-46521D02*
X45872Y-46521D01*
X45872Y-46521D02*
X45872Y-47021D01*
X50072Y-31824D02*
X49572Y-31824D01*
X50072Y-31324D02*
X49582Y-31324D01*
X50072Y-31174D02*
X50072Y-31974D01*
X50072Y-31974D02*
X49572Y-31974D01*
X49572Y-31974D02*
X49572Y-31174D01*
X49572Y-31174D02*
X50072Y-31174D01*
X48694Y-31844D02*
X48194Y-31844D01*
X48694Y-31344D02*
X48204Y-31344D01*
X48694Y-31194D02*
X48694Y-31994D01*
X48694Y-31994D02*
X48194Y-31994D01*
X48194Y-31994D02*
X48194Y-31194D01*
X48194Y-31194D02*
X48694Y-31194D01*
X77695Y-48763D02*
X77195Y-48763D01*
X77695Y-48263D02*
X77205Y-48263D01*
X77695Y-48113D02*
X77695Y-48913D01*
X77695Y-48913D02*
X77195Y-48913D01*
X77195Y-48913D02*
X77195Y-48113D01*
X77195Y-48113D02*
X77695Y-48113D01*
X45104Y-44423D02*
X45104Y-43923D01*
X45604Y-44423D02*
X45604Y-43933D01*
X45754Y-44423D02*
X44954Y-44423D01*
X44954Y-44423D02*
X44954Y-43923D01*
X44954Y-43923D02*
X45754Y-43923D01*
X45754Y-43923D02*
X45754Y-44423D01*
G54D13*
X46700Y-55660D02*
X47000Y-55660D01*
X47000Y-55660D02*
X47000Y-51660D01*
X47000Y-51660D02*
X46700Y-51660D01*
X43400Y-55660D02*
X43400Y-51660D01*
X43400Y-51660D02*
X43800Y-51660D01*
X43800Y-51660D02*
X43800Y-55660D01*
X43800Y-55660D02*
X43400Y-55660D01*
X43700Y-55660D02*
X46700Y-55660D01*
X46700Y-51660D02*
X43700Y-51660D01*
G54D16*
X45432Y-41870D02*
X45354Y-41870D01*
X45354Y-41870D02*
X45354Y-41948D01*
X45432Y-41948D02*
X45354Y-41948D01*
X45432Y-41870D02*
X45432Y-41948D01*
X45216Y-41634D02*
X45079Y-41634D01*
X45079Y-41634D02*
X45079Y-41732D01*
X45216Y-41732D02*
X45079Y-41732D01*
X45216Y-41634D02*
X45216Y-41732D01*
X45079Y-41634D02*
X45039Y-41634D01*
X45039Y-41634D02*
X45039Y-42105D01*
X45079Y-42105D02*
X45039Y-42105D01*
X45079Y-41634D02*
X45079Y-42105D01*
X45079Y-42125D02*
X45039Y-42125D01*
X45039Y-42125D02*
X45039Y-42184D01*
X45079Y-42184D02*
X45039Y-42184D01*
X45079Y-42125D02*
X45079Y-42184D01*
X45747Y-41634D02*
X45707Y-41634D01*
X45707Y-41634D02*
X45707Y-42105D01*
X45747Y-42105D02*
X45707Y-42105D01*
X45747Y-41634D02*
X45747Y-42105D01*
X45747Y-42125D02*
X45707Y-42125D01*
X45707Y-42125D02*
X45707Y-42184D01*
X45747Y-42184D02*
X45707Y-42184D01*
X45747Y-42125D02*
X45747Y-42184D01*
X45216Y-41634D02*
X45157Y-41634D01*
X45157Y-41634D02*
X45157Y-41732D01*
X45216Y-41732D02*
X45157Y-41732D01*
X45216Y-41634D02*
X45216Y-41732D01*
G54D17*
X44783Y-41614D02*
X46003Y-41614D01*
X46003Y-41614D02*
X46003Y-42204D01*
X46003Y-42204D02*
X44783Y-42204D01*
X44783Y-42204D02*
X44783Y-41614D01*
X45609Y-41712D02*
G75*
G03X45177Y-41713I-215J-196D01*
G74*
G01*
X45609Y-42105D02*
G75*
G03X45609Y-41713I-215J196D01*
G74*
G01*
X45178Y-42106D02*
G75*
G03X45609Y-42105I215J196D01*
G74*
G01*
X45177Y-41713D02*
G75*
G03X45177Y-42105I215J-196D01*
G74*
G01*
G54D16*
X45491Y-48996D02*
X45413Y-48996D01*
X45413Y-48996D02*
X45413Y-49074D01*
X45491Y-49074D02*
X45413Y-49074D01*
X45491Y-48996D02*
X45491Y-49074D01*
X45275Y-48760D02*
X45138Y-48760D01*
X45138Y-48760D02*
X45138Y-48858D01*
X45275Y-48858D02*
X45138Y-48858D01*
X45275Y-48760D02*
X45275Y-48858D01*
X45138Y-48760D02*
X45098Y-48760D01*
X45098Y-48760D02*
X45098Y-49231D01*
X45138Y-49231D02*
X45098Y-49231D01*
X45138Y-48760D02*
X45138Y-49231D01*
X45138Y-49251D02*
X45098Y-49251D01*
X45098Y-49251D02*
X45098Y-49310D01*
X45138Y-49310D02*
X45098Y-49310D01*
X45138Y-49251D02*
X45138Y-49310D01*
X45806Y-48760D02*
X45766Y-48760D01*
X45766Y-48760D02*
X45766Y-49231D01*
X45806Y-49231D02*
X45766Y-49231D01*
X45806Y-48760D02*
X45806Y-49231D01*
X45806Y-49251D02*
X45766Y-49251D01*
X45766Y-49251D02*
X45766Y-49310D01*
X45806Y-49310D02*
X45766Y-49310D01*
X45806Y-49251D02*
X45806Y-49310D01*
X45275Y-48760D02*
X45216Y-48760D01*
X45216Y-48760D02*
X45216Y-48858D01*
X45275Y-48858D02*
X45216Y-48858D01*
X45275Y-48760D02*
X45275Y-48858D01*
G54D17*
X44842Y-48740D02*
X46062Y-48740D01*
X46062Y-48740D02*
X46062Y-49330D01*
X46062Y-49330D02*
X44842Y-49330D01*
X44842Y-49330D02*
X44842Y-48740D01*
X45668Y-48838D02*
G75*
G03X45236Y-48839I-215J-196D01*
G74*
G01*
X45668Y-49231D02*
G75*
G03X45668Y-48839I-215J196D01*
G74*
G01*
X45237Y-49232D02*
G75*
G03X45668Y-49231I215J196D01*
G74*
G01*
X45237Y-48839D02*
G75*
G03X45236Y-49231I215J-196D01*
G74*
G01*
G54D15*
X77785Y-50503D02*
X77145Y-50503D01*
X77145Y-51583D02*
X77785Y-51583D01*
X77785Y-51583D02*
X77785Y-50323D01*
X77785Y-50323D02*
X77145Y-50323D01*
X77145Y-50323D02*
X77145Y-51583D01*
G54D16*
X59345Y-42409D02*
X59778Y-42409D01*
X59778Y-42409D02*
X59778Y-42291D01*
X59345Y-42291D02*
X59778Y-42291D01*
X59345Y-42409D02*
X59345Y-42291D01*
X59345Y-42606D02*
X59778Y-42606D01*
X59778Y-42606D02*
X59778Y-42488D01*
X59345Y-42488D02*
X59778Y-42488D01*
X59345Y-42606D02*
X59345Y-42488D01*
X59345Y-42803D02*
X59778Y-42803D01*
X59778Y-42803D02*
X59778Y-42685D01*
X59345Y-42685D02*
X59778Y-42685D01*
X59345Y-42803D02*
X59345Y-42685D01*
X59345Y-43000D02*
X59778Y-43000D01*
X59778Y-43000D02*
X59778Y-42882D01*
X59345Y-42882D02*
X59778Y-42882D01*
X59345Y-43000D02*
X59345Y-42882D01*
X59345Y-43197D02*
X59778Y-43197D01*
X59778Y-43197D02*
X59778Y-43079D01*
X59345Y-43079D02*
X59778Y-43079D01*
X59345Y-43197D02*
X59345Y-43079D01*
X59345Y-43394D02*
X59778Y-43394D01*
X59778Y-43394D02*
X59778Y-43276D01*
X59345Y-43276D02*
X59778Y-43276D01*
X59345Y-43394D02*
X59345Y-43276D01*
X59345Y-43591D02*
X59778Y-43591D01*
X59778Y-43591D02*
X59778Y-43472D01*
X59345Y-43472D02*
X59778Y-43472D01*
X59345Y-43591D02*
X59345Y-43472D01*
X59345Y-43787D02*
X59778Y-43787D01*
X59778Y-43787D02*
X59778Y-43669D01*
X59345Y-43669D02*
X59778Y-43669D01*
X59345Y-43787D02*
X59345Y-43669D01*
X59345Y-43984D02*
X59778Y-43984D01*
X59778Y-43984D02*
X59778Y-43866D01*
X59345Y-43866D02*
X59778Y-43866D01*
X59345Y-43984D02*
X59345Y-43866D01*
X59345Y-44181D02*
X59778Y-44181D01*
X59778Y-44181D02*
X59778Y-44063D01*
X59345Y-44063D02*
X59778Y-44063D01*
X59345Y-44181D02*
X59345Y-44063D01*
X59345Y-44377D02*
X59778Y-44377D01*
X59778Y-44377D02*
X59778Y-44259D01*
X59345Y-44259D02*
X59778Y-44259D01*
X59345Y-44377D02*
X59345Y-44259D01*
X59345Y-44574D02*
X59778Y-44574D01*
X59778Y-44574D02*
X59778Y-44456D01*
X59345Y-44456D02*
X59778Y-44456D01*
X59345Y-44574D02*
X59345Y-44456D01*
X59345Y-44771D02*
X59778Y-44771D01*
X59778Y-44771D02*
X59778Y-44653D01*
X59345Y-44653D02*
X59778Y-44653D01*
X59345Y-44771D02*
X59345Y-44653D01*
X59345Y-44968D02*
X59778Y-44968D01*
X59778Y-44968D02*
X59778Y-44849D01*
X59345Y-44849D02*
X59778Y-44849D01*
X59345Y-44968D02*
X59345Y-44849D01*
X59345Y-45164D02*
X59778Y-45164D01*
X59778Y-45164D02*
X59778Y-45046D01*
X59345Y-45046D02*
X59778Y-45046D01*
X59345Y-45164D02*
X59345Y-45046D01*
X59345Y-45361D02*
X59778Y-45361D01*
X59778Y-45361D02*
X59778Y-45243D01*
X59345Y-45243D02*
X59778Y-45243D01*
X59345Y-45361D02*
X59345Y-45243D01*
X59345Y-45558D02*
X59778Y-45558D01*
X59778Y-45558D02*
X59778Y-45440D01*
X59345Y-45440D02*
X59778Y-45440D01*
X59345Y-45558D02*
X59345Y-45440D01*
X59345Y-45755D02*
X59778Y-45755D01*
X59778Y-45755D02*
X59778Y-45637D01*
X59345Y-45637D02*
X59778Y-45637D01*
X59345Y-45755D02*
X59345Y-45637D01*
X59345Y-45952D02*
X59778Y-45952D01*
X59778Y-45952D02*
X59778Y-45834D01*
X59345Y-45834D02*
X59778Y-45834D01*
X59345Y-45952D02*
X59345Y-45834D01*
X59345Y-46149D02*
X59778Y-46149D01*
X59778Y-46149D02*
X59778Y-46031D01*
X59345Y-46031D02*
X59778Y-46031D01*
X59345Y-46149D02*
X59345Y-46031D01*
X60171Y-46975D02*
X60289Y-46975D01*
X60289Y-46975D02*
X60289Y-46542D01*
X60171Y-46542D02*
X60289Y-46542D01*
X60171Y-46975D02*
X60171Y-46542D01*
X60368Y-46975D02*
X60486Y-46975D01*
X60486Y-46975D02*
X60486Y-46542D01*
X60368Y-46542D02*
X60486Y-46542D01*
X60368Y-46975D02*
X60368Y-46542D01*
X60565Y-46975D02*
X60683Y-46975D01*
X60683Y-46975D02*
X60683Y-46542D01*
X60565Y-46542D02*
X60683Y-46542D01*
X60565Y-46975D02*
X60565Y-46542D01*
X60762Y-46975D02*
X60880Y-46975D01*
X60880Y-46975D02*
X60880Y-46542D01*
X60762Y-46542D02*
X60880Y-46542D01*
X60762Y-46975D02*
X60762Y-46542D01*
X60959Y-46975D02*
X61077Y-46975D01*
X61077Y-46975D02*
X61077Y-46542D01*
X60959Y-46542D02*
X61077Y-46542D01*
X60959Y-46975D02*
X60959Y-46542D01*
X61156Y-46975D02*
X61274Y-46975D01*
X61274Y-46975D02*
X61274Y-46542D01*
X61156Y-46542D02*
X61274Y-46542D01*
X61156Y-46975D02*
X61156Y-46542D01*
X61352Y-46975D02*
X61471Y-46975D01*
X61471Y-46975D02*
X61471Y-46542D01*
X61352Y-46542D02*
X61471Y-46542D01*
X61352Y-46975D02*
X61352Y-46542D01*
X61549Y-46975D02*
X61667Y-46975D01*
X61667Y-46975D02*
X61667Y-46542D01*
X61549Y-46542D02*
X61667Y-46542D01*
X61549Y-46975D02*
X61549Y-46542D01*
X61746Y-46975D02*
X61864Y-46975D01*
X61864Y-46975D02*
X61864Y-46542D01*
X61746Y-46542D02*
X61864Y-46542D01*
X61746Y-46975D02*
X61746Y-46542D01*
X61943Y-46975D02*
X62061Y-46975D01*
X62061Y-46975D02*
X62061Y-46542D01*
X61943Y-46542D02*
X62061Y-46542D01*
X61943Y-46975D02*
X61943Y-46542D01*
X62139Y-46975D02*
X62257Y-46975D01*
X62257Y-46975D02*
X62257Y-46542D01*
X62139Y-46542D02*
X62257Y-46542D01*
X62139Y-46975D02*
X62139Y-46542D01*
X62336Y-46975D02*
X62454Y-46975D01*
X62454Y-46975D02*
X62454Y-46542D01*
X62336Y-46542D02*
X62454Y-46542D01*
X62336Y-46975D02*
X62336Y-46542D01*
X62533Y-46975D02*
X62651Y-46975D01*
X62651Y-46975D02*
X62651Y-46542D01*
X62533Y-46542D02*
X62651Y-46542D01*
X62533Y-46975D02*
X62533Y-46542D01*
X62729Y-46975D02*
X62848Y-46975D01*
X62848Y-46975D02*
X62848Y-46542D01*
X62729Y-46542D02*
X62848Y-46542D01*
X62729Y-46975D02*
X62729Y-46542D01*
X62926Y-46975D02*
X63044Y-46975D01*
X63044Y-46975D02*
X63044Y-46542D01*
X62926Y-46542D02*
X63044Y-46542D01*
X62926Y-46975D02*
X62926Y-46542D01*
X63123Y-46975D02*
X63241Y-46975D01*
X63241Y-46975D02*
X63241Y-46542D01*
X63123Y-46542D02*
X63241Y-46542D01*
X63123Y-46975D02*
X63123Y-46542D01*
X63320Y-46975D02*
X63438Y-46975D01*
X63438Y-46975D02*
X63438Y-46542D01*
X63320Y-46542D02*
X63438Y-46542D01*
X63320Y-46975D02*
X63320Y-46542D01*
X63517Y-46975D02*
X63635Y-46975D01*
X63635Y-46975D02*
X63635Y-46542D01*
X63517Y-46542D02*
X63635Y-46542D01*
X63517Y-46975D02*
X63517Y-46542D01*
X63714Y-46975D02*
X63832Y-46975D01*
X63832Y-46975D02*
X63832Y-46542D01*
X63714Y-46542D02*
X63832Y-46542D01*
X63714Y-46975D02*
X63714Y-46542D01*
X63911Y-46975D02*
X64029Y-46975D01*
X64029Y-46975D02*
X64029Y-46542D01*
X63911Y-46542D02*
X64029Y-46542D01*
X63911Y-46975D02*
X63911Y-46542D01*
X64422Y-46149D02*
X64855Y-46149D01*
X64855Y-46149D02*
X64855Y-46031D01*
X64422Y-46031D02*
X64855Y-46031D01*
X64422Y-46149D02*
X64422Y-46031D01*
X64422Y-45952D02*
X64855Y-45952D01*
X64855Y-45952D02*
X64855Y-45834D01*
X64422Y-45834D02*
X64855Y-45834D01*
X64422Y-45952D02*
X64422Y-45834D01*
X64422Y-45755D02*
X64855Y-45755D01*
X64855Y-45755D02*
X64855Y-45637D01*
X64422Y-45637D02*
X64855Y-45637D01*
X64422Y-45755D02*
X64422Y-45637D01*
X64422Y-45558D02*
X64855Y-45558D01*
X64855Y-45558D02*
X64855Y-45440D01*
X64422Y-45440D02*
X64855Y-45440D01*
X64422Y-45558D02*
X64422Y-45440D01*
X64422Y-45361D02*
X64855Y-45361D01*
X64855Y-45361D02*
X64855Y-45243D01*
X64422Y-45243D02*
X64855Y-45243D01*
X64422Y-45361D02*
X64422Y-45243D01*
X64422Y-45164D02*
X64855Y-45164D01*
X64855Y-45164D02*
X64855Y-45046D01*
X64422Y-45046D02*
X64855Y-45046D01*
X64422Y-45164D02*
X64422Y-45046D01*
X64422Y-44968D02*
X64855Y-44968D01*
X64855Y-44968D02*
X64855Y-44849D01*
X64422Y-44849D02*
X64855Y-44849D01*
X64422Y-44968D02*
X64422Y-44849D01*
X64422Y-44771D02*
X64855Y-44771D01*
X64855Y-44771D02*
X64855Y-44653D01*
X64422Y-44653D02*
X64855Y-44653D01*
X64422Y-44771D02*
X64422Y-44653D01*
X64422Y-44574D02*
X64855Y-44574D01*
X64855Y-44574D02*
X64855Y-44456D01*
X64422Y-44456D02*
X64855Y-44456D01*
X64422Y-44574D02*
X64422Y-44456D01*
X64422Y-44377D02*
X64855Y-44377D01*
X64855Y-44377D02*
X64855Y-44259D01*
X64422Y-44259D02*
X64855Y-44259D01*
X64422Y-44377D02*
X64422Y-44259D01*
X64422Y-44181D02*
X64855Y-44181D01*
X64855Y-44181D02*
X64855Y-44063D01*
X64422Y-44063D02*
X64855Y-44063D01*
X64422Y-44181D02*
X64422Y-44063D01*
X64422Y-43984D02*
X64855Y-43984D01*
X64855Y-43984D02*
X64855Y-43866D01*
X64422Y-43866D02*
X64855Y-43866D01*
X64422Y-43984D02*
X64422Y-43866D01*
X64422Y-43787D02*
X64855Y-43787D01*
X64855Y-43787D02*
X64855Y-43669D01*
X64422Y-43669D02*
X64855Y-43669D01*
X64422Y-43787D02*
X64422Y-43669D01*
X64422Y-43591D02*
X64855Y-43591D01*
X64855Y-43591D02*
X64855Y-43472D01*
X64422Y-43472D02*
X64855Y-43472D01*
X64422Y-43591D02*
X64422Y-43472D01*
X64422Y-43394D02*
X64855Y-43394D01*
X64855Y-43394D02*
X64855Y-43276D01*
X64422Y-43276D02*
X64855Y-43276D01*
X64422Y-43394D02*
X64422Y-43276D01*
X64422Y-43197D02*
X64855Y-43197D01*
X64855Y-43197D02*
X64855Y-43079D01*
X64422Y-43079D02*
X64855Y-43079D01*
X64422Y-43197D02*
X64422Y-43079D01*
X64422Y-43000D02*
X64855Y-43000D01*
X64855Y-43000D02*
X64855Y-42882D01*
X64422Y-42882D02*
X64855Y-42882D01*
X64422Y-43000D02*
X64422Y-42882D01*
X64422Y-42803D02*
X64855Y-42803D01*
X64855Y-42803D02*
X64855Y-42685D01*
X64422Y-42685D02*
X64855Y-42685D01*
X64422Y-42803D02*
X64422Y-42685D01*
X64422Y-42606D02*
X64855Y-42606D01*
X64855Y-42606D02*
X64855Y-42488D01*
X64422Y-42488D02*
X64855Y-42488D01*
X64422Y-42606D02*
X64422Y-42488D01*
X64422Y-42409D02*
X64855Y-42409D01*
X64855Y-42409D02*
X64855Y-42291D01*
X64422Y-42291D02*
X64855Y-42291D01*
X64422Y-42409D02*
X64422Y-42291D01*
X63911Y-41898D02*
X64029Y-41898D01*
X64029Y-41898D02*
X64029Y-41465D01*
X63911Y-41465D02*
X64029Y-41465D01*
X63911Y-41898D02*
X63911Y-41465D01*
X63714Y-41898D02*
X63832Y-41898D01*
X63832Y-41898D02*
X63832Y-41465D01*
X63714Y-41465D02*
X63832Y-41465D01*
X63714Y-41898D02*
X63714Y-41465D01*
X63517Y-41898D02*
X63635Y-41898D01*
X63635Y-41898D02*
X63635Y-41465D01*
X63517Y-41465D02*
X63635Y-41465D01*
X63517Y-41898D02*
X63517Y-41465D01*
X63320Y-41898D02*
X63438Y-41898D01*
X63438Y-41898D02*
X63438Y-41465D01*
X63320Y-41465D02*
X63438Y-41465D01*
X63320Y-41898D02*
X63320Y-41465D01*
X63123Y-41898D02*
X63241Y-41898D01*
X63241Y-41898D02*
X63241Y-41465D01*
X63123Y-41465D02*
X63241Y-41465D01*
X63123Y-41898D02*
X63123Y-41465D01*
X62926Y-41898D02*
X63044Y-41898D01*
X63044Y-41898D02*
X63044Y-41465D01*
X62926Y-41465D02*
X63044Y-41465D01*
X62926Y-41898D02*
X62926Y-41465D01*
X62729Y-41898D02*
X62848Y-41898D01*
X62848Y-41898D02*
X62848Y-41465D01*
X62729Y-41465D02*
X62848Y-41465D01*
X62729Y-41898D02*
X62729Y-41465D01*
X62533Y-41898D02*
X62651Y-41898D01*
X62651Y-41898D02*
X62651Y-41465D01*
X62533Y-41465D02*
X62651Y-41465D01*
X62533Y-41898D02*
X62533Y-41465D01*
X62336Y-41898D02*
X62454Y-41898D01*
X62454Y-41898D02*
X62454Y-41465D01*
X62336Y-41465D02*
X62454Y-41465D01*
X62336Y-41898D02*
X62336Y-41465D01*
X62139Y-41898D02*
X62257Y-41898D01*
X62257Y-41898D02*
X62257Y-41465D01*
X62139Y-41465D02*
X62257Y-41465D01*
X62139Y-41898D02*
X62139Y-41465D01*
X61943Y-41898D02*
X62061Y-41898D01*
X62061Y-41898D02*
X62061Y-41465D01*
X61943Y-41465D02*
X62061Y-41465D01*
X61943Y-41898D02*
X61943Y-41465D01*
X61746Y-41898D02*
X61864Y-41898D01*
X61864Y-41898D02*
X61864Y-41465D01*
X61746Y-41465D02*
X61864Y-41465D01*
X61746Y-41898D02*
X61746Y-41465D01*
X61549Y-41898D02*
X61667Y-41898D01*
X61667Y-41898D02*
X61667Y-41465D01*
X61549Y-41465D02*
X61667Y-41465D01*
X61549Y-41898D02*
X61549Y-41465D01*
X61352Y-41898D02*
X61471Y-41898D01*
X61471Y-41898D02*
X61471Y-41465D01*
X61352Y-41465D02*
X61471Y-41465D01*
X61352Y-41898D02*
X61352Y-41465D01*
X61156Y-41898D02*
X61274Y-41898D01*
X61274Y-41898D02*
X61274Y-41465D01*
X61156Y-41465D02*
X61274Y-41465D01*
X61156Y-41898D02*
X61156Y-41465D01*
X60959Y-41898D02*
X61077Y-41898D01*
X61077Y-41898D02*
X61077Y-41465D01*
X60959Y-41465D02*
X61077Y-41465D01*
X60959Y-41898D02*
X60959Y-41465D01*
X60762Y-41898D02*
X60880Y-41898D01*
X60880Y-41898D02*
X60880Y-41465D01*
X60762Y-41465D02*
X60880Y-41465D01*
X60762Y-41898D02*
X60762Y-41465D01*
X60565Y-41898D02*
X60683Y-41898D01*
X60683Y-41898D02*
X60683Y-41465D01*
X60565Y-41465D02*
X60683Y-41465D01*
X60565Y-41898D02*
X60565Y-41465D01*
X60368Y-41898D02*
X60486Y-41898D01*
X60486Y-41898D02*
X60486Y-41465D01*
X60368Y-41465D02*
X60486Y-41465D01*
X60368Y-41898D02*
X60368Y-41465D01*
X60171Y-41898D02*
X60289Y-41898D01*
X60289Y-41898D02*
X60289Y-41465D01*
X60171Y-41465D02*
X60289Y-41465D01*
X60171Y-41898D02*
X60171Y-41465D01*
G54D18*
X59778Y-42026D02*
X59906Y-41898D01*
X59906Y-41898D02*
X64422Y-41898D01*
X64422Y-41898D02*
X64422Y-46542D01*
X64422Y-46542D02*
X59778Y-46542D01*
X59778Y-46542D02*
X59778Y-42026D01*
G54D19*
X59935Y-42183D02*
X60063Y-42055D01*
X60063Y-42055D02*
X64265Y-42055D01*
X64265Y-42055D02*
X64265Y-46385D01*
X64265Y-46385D02*
X59935Y-46385D01*
X59935Y-46385D02*
X59935Y-42183D01*
G54D20*
X60498Y-42439D02*
G75*
G03X60498Y-42439I-179J0D01*
G74*
G01*
G54D21*
X46120Y-28320D02*
G75*
G03X46120Y-28320I-900J0D01*
G74*
G01*
X45900Y-60200D02*
G75*
G03X45900Y-60200I-900J0D01*
G74*
G01*
X77900Y-28200D02*
G75*
G03X77900Y-28200I-900J0D01*
G74*
G01*
X77700Y-60100D02*
G75*
G03X77700Y-60100I-900J0D01*
G74*
G01*
G54D14*
X52040Y-60900D02*
X52040Y-59900D01*
X52040Y-59900D02*
X72108Y-59900D01*
X72108Y-59927D02*
X72108Y-60890D01*
X72087Y-60900D02*
X52040Y-60900D01*
X53040Y-59900D02*
X53040Y-60900D01*
X48200Y-34100D02*
X49200Y-34100D01*
X49200Y-34100D02*
X49200Y-54168D01*
X49172Y-54168D02*
X48209Y-54168D01*
X48200Y-54147D02*
X48200Y-34100D01*
X49200Y-35100D02*
X48200Y-35100D01*
X76080Y-54200D02*
X75080Y-54200D01*
X75080Y-54200D02*
X75080Y-34131D01*
X75107Y-34131D02*
X76070Y-34131D01*
X76080Y-34152D02*
X76080Y-54200D01*
X75080Y-53200D02*
X76080Y-53200D01*
X72020Y-27940D02*
X72020Y-28940D01*
X72020Y-28940D02*
X51951Y-28940D01*
X51951Y-28912D02*
X51951Y-27949D01*
X51972Y-27940D02*
X72020Y-27940D01*
X71020Y-28940D02*
X71020Y-27940D01*
G54D13*
X46740Y-36080D02*
X47040Y-36080D01*
X47040Y-36080D02*
X47040Y-32080D01*
X47040Y-32080D02*
X46740Y-32080D01*
X43440Y-36080D02*
X43440Y-32080D01*
X43440Y-32080D02*
X43840Y-32080D01*
X43840Y-32080D02*
X43840Y-36080D01*
X43840Y-36080D02*
X43440Y-36080D01*
X43740Y-36080D02*
X46740Y-36080D01*
X46740Y-32080D02*
X43740Y-32080D01*
G54D18*
X45022Y-37936D02*
X45093Y-37957D01*
X45212Y-37957D01*
X45260Y-37936D01*
X45284Y-37914D01*
X45308Y-37872D01*
X45308Y-37829D01*
X45284Y-37786D01*
X45260Y-37764D01*
X45212Y-37743D01*
X45117Y-37722D01*
X45069Y-37700D01*
X45046Y-37679D01*
X45022Y-37636D01*
X45022Y-37593D01*
X45046Y-37550D01*
X45069Y-37529D01*
X45117Y-37507D01*
X45236Y-37507D01*
X45308Y-37529D01*
X45474Y-37507D02*
X45593Y-37957D01*
X45688Y-37636D01*
X45784Y-37957D01*
X45903Y-37507D01*
X46355Y-37957D02*
X46069Y-37957D01*
X46212Y-37957D02*
X46212Y-37507D01*
X46165Y-37572D01*
X46117Y-37614D01*
X46069Y-37636D01*
X44058Y-40101D02*
X44129Y-40122D01*
X44248Y-40122D01*
X44296Y-40101D01*
X44319Y-40079D01*
X44343Y-40037D01*
X44343Y-39994D01*
X44319Y-39951D01*
X44296Y-39929D01*
X44248Y-39908D01*
X44153Y-39887D01*
X44105Y-39865D01*
X44081Y-39844D01*
X44058Y-39801D01*
X44058Y-39758D01*
X44081Y-39715D01*
X44105Y-39694D01*
X44153Y-39672D01*
X44272Y-39672D01*
X44343Y-39694D01*
X44510Y-39672D02*
X44629Y-40122D01*
X44724Y-39801D01*
X44819Y-40122D01*
X44938Y-39672D01*
X45010Y-40165D02*
X45391Y-40165D01*
X45510Y-40122D02*
X45510Y-39672D01*
X45700Y-39672D01*
X45748Y-39694D01*
X45772Y-39715D01*
X45796Y-39758D01*
X45796Y-39822D01*
X45772Y-39865D01*
X45748Y-39887D01*
X45700Y-39908D01*
X45510Y-39908D01*
X46010Y-39672D02*
X46010Y-40037D01*
X46034Y-40079D01*
X46058Y-40101D01*
X46105Y-40122D01*
X46200Y-40122D01*
X46248Y-40101D01*
X46272Y-40079D01*
X46296Y-40037D01*
X46296Y-39672D01*
X46510Y-40101D02*
X46581Y-40122D01*
X46700Y-40122D01*
X46748Y-40101D01*
X46772Y-40079D01*
X46796Y-40037D01*
X46796Y-39994D01*
X46772Y-39951D01*
X46748Y-39929D01*
X46700Y-39908D01*
X46605Y-39887D01*
X46558Y-39865D01*
X46534Y-39844D01*
X46510Y-39801D01*
X46510Y-39758D01*
X46534Y-39715D01*
X46558Y-39694D01*
X46605Y-39672D01*
X46724Y-39672D01*
X46796Y-39694D01*
X47010Y-40122D02*
X47010Y-39672D01*
X47010Y-39887D02*
X47296Y-39887D01*
X47296Y-40122D02*
X47296Y-39672D01*
G54D22*
X45452Y-47209D02*
X45413Y-47153D01*
X45385Y-47209D02*
X45385Y-47091D01*
X45430Y-47091D01*
X45441Y-47097D01*
X45447Y-47102D01*
X45452Y-47113D01*
X45452Y-47130D01*
X45447Y-47141D01*
X45441Y-47147D01*
X45430Y-47153D01*
X45385Y-47153D01*
X45492Y-47091D02*
X45565Y-47091D01*
X45525Y-47136D01*
X45542Y-47136D01*
X45553Y-47141D01*
X45559Y-47147D01*
X45565Y-47158D01*
X45565Y-47186D01*
X45559Y-47198D01*
X45553Y-47203D01*
X45542Y-47209D01*
X45508Y-47209D01*
X45497Y-47203D01*
X45492Y-47198D01*
X50249Y-31594D02*
X50254Y-31600D01*
X50260Y-31616D01*
X50260Y-31628D01*
X50254Y-31645D01*
X50243Y-31656D01*
X50232Y-31661D01*
X50210Y-31667D01*
X50193Y-31667D01*
X50170Y-31661D01*
X50159Y-31656D01*
X50148Y-31645D01*
X50142Y-31628D01*
X50142Y-31616D01*
X50148Y-31600D01*
X50153Y-31594D01*
X50142Y-31493D02*
X50142Y-31515D01*
X50148Y-31527D01*
X50153Y-31532D01*
X50170Y-31543D01*
X50193Y-31549D01*
X50238Y-31549D01*
X50249Y-31543D01*
X50254Y-31538D01*
X50260Y-31527D01*
X50260Y-31504D01*
X50254Y-31493D01*
X50249Y-31487D01*
X50238Y-31482D01*
X50210Y-31482D01*
X50198Y-31487D01*
X50193Y-31493D01*
X50187Y-31504D01*
X50187Y-31527D01*
X50193Y-31538D01*
X50198Y-31543D01*
X50210Y-31549D01*
X48871Y-31614D02*
X48877Y-31619D01*
X48882Y-31636D01*
X48882Y-31647D01*
X48877Y-31664D01*
X48865Y-31675D01*
X48854Y-31681D01*
X48832Y-31687D01*
X48815Y-31687D01*
X48792Y-31681D01*
X48781Y-31675D01*
X48770Y-31664D01*
X48764Y-31647D01*
X48764Y-31636D01*
X48770Y-31619D01*
X48775Y-31614D01*
X48764Y-31574D02*
X48764Y-31496D01*
X48882Y-31546D01*
X77883Y-48532D02*
X77827Y-48572D01*
X77883Y-48600D02*
X77765Y-48600D01*
X77765Y-48555D01*
X77771Y-48543D01*
X77776Y-48538D01*
X77788Y-48532D01*
X77805Y-48532D01*
X77816Y-48538D01*
X77821Y-48543D01*
X77827Y-48555D01*
X77827Y-48600D01*
X77805Y-48431D02*
X77883Y-48431D01*
X77760Y-48459D02*
X77844Y-48487D01*
X77844Y-48414D01*
X45334Y-44610D02*
X45295Y-44554D01*
X45267Y-44610D02*
X45267Y-44492D01*
X45312Y-44492D01*
X45323Y-44498D01*
X45329Y-44504D01*
X45334Y-44515D01*
X45334Y-44532D01*
X45329Y-44543D01*
X45323Y-44549D01*
X45312Y-44554D01*
X45267Y-44554D01*
X45379Y-44504D02*
X45385Y-44498D01*
X45396Y-44492D01*
X45424Y-44492D01*
X45435Y-44498D01*
X45441Y-44504D01*
X45447Y-44515D01*
X45447Y-44526D01*
X45441Y-44543D01*
X45373Y-44610D01*
X45447Y-44610D01*
G54D14*
X43562Y-57042D02*
X43562Y-56442D01*
X43791Y-56442D01*
X43848Y-56471D01*
X43877Y-56500D01*
X43905Y-56557D01*
X43905Y-56642D01*
X43877Y-56700D01*
X43848Y-56728D01*
X43791Y-56757D01*
X43562Y-56757D01*
X44105Y-56442D02*
X44248Y-57042D01*
X44362Y-56614D01*
X44477Y-57042D01*
X44620Y-56442D01*
X45191Y-57042D02*
X44991Y-56757D01*
X44848Y-57042D02*
X44848Y-56442D01*
X45077Y-56442D01*
X45134Y-56471D01*
X45162Y-56500D01*
X45191Y-56557D01*
X45191Y-56642D01*
X45162Y-56700D01*
X45134Y-56728D01*
X45077Y-56757D01*
X44848Y-56757D01*
X45305Y-57100D02*
X45762Y-57100D01*
X46248Y-56985D02*
X46220Y-57014D01*
X46134Y-57042D01*
X46077Y-57042D01*
X45991Y-57014D01*
X45934Y-56957D01*
X45905Y-56900D01*
X45877Y-56785D01*
X45877Y-56700D01*
X45905Y-56585D01*
X45934Y-56528D01*
X45991Y-56471D01*
X46077Y-56442D01*
X46134Y-56442D01*
X46220Y-56471D01*
X46248Y-56500D01*
X46620Y-56442D02*
X46734Y-56442D01*
X46791Y-56471D01*
X46848Y-56528D01*
X46877Y-56642D01*
X46877Y-56842D01*
X46848Y-56957D01*
X46791Y-57014D01*
X46734Y-57042D01*
X46620Y-57042D01*
X46562Y-57014D01*
X46505Y-56957D01*
X46477Y-56842D01*
X46477Y-56642D01*
X46505Y-56528D01*
X46562Y-56471D01*
X46620Y-56442D01*
X47134Y-57042D02*
X47134Y-56442D01*
X47477Y-57042D01*
X47477Y-56442D01*
G54D23*
X45072Y-42630D02*
X45072Y-42330D01*
X45143Y-42330D01*
X45186Y-42345D01*
X45215Y-42373D01*
X45229Y-42402D01*
X45243Y-42459D01*
X45243Y-42502D01*
X45229Y-42559D01*
X45215Y-42588D01*
X45186Y-42616D01*
X45143Y-42630D01*
X45072Y-42630D01*
X45529Y-42630D02*
X45357Y-42630D01*
X45443Y-42630D02*
X45443Y-42330D01*
X45415Y-42373D01*
X45386Y-42402D01*
X45357Y-42416D01*
X47162Y-42122D02*
X47019Y-42122D01*
X47019Y-41822D01*
X47262Y-41965D02*
X47362Y-41965D01*
X47405Y-42122D02*
X47262Y-42122D01*
X47262Y-41822D01*
X47405Y-41822D01*
X47533Y-42122D02*
X47533Y-41822D01*
X47605Y-41822D01*
X47648Y-41836D01*
X47676Y-41865D01*
X47690Y-41893D01*
X47705Y-41950D01*
X47705Y-41993D01*
X47690Y-42050D01*
X47676Y-42079D01*
X47648Y-42107D01*
X47605Y-42122D01*
X47533Y-42122D01*
X45131Y-49756D02*
X45131Y-49456D01*
X45202Y-49456D01*
X45245Y-49471D01*
X45274Y-49499D01*
X45288Y-49528D01*
X45302Y-49585D01*
X45302Y-49628D01*
X45288Y-49685D01*
X45274Y-49714D01*
X45245Y-49742D01*
X45202Y-49756D01*
X45131Y-49756D01*
X45417Y-49485D02*
X45431Y-49471D01*
X45459Y-49456D01*
X45531Y-49456D01*
X45559Y-49471D01*
X45574Y-49485D01*
X45588Y-49514D01*
X45588Y-49542D01*
X45574Y-49585D01*
X45402Y-49756D01*
X45588Y-49756D01*
X44602Y-48495D02*
X44602Y-48195D01*
X44716Y-48195D01*
X44745Y-48209D01*
X44759Y-48224D01*
X44773Y-48252D01*
X44773Y-48295D01*
X44759Y-48324D01*
X44745Y-48338D01*
X44716Y-48352D01*
X44602Y-48352D01*
X44873Y-48195D02*
X44945Y-48495D01*
X45002Y-48281D01*
X45059Y-48495D01*
X45130Y-48195D01*
X45416Y-48495D02*
X45316Y-48352D01*
X45245Y-48495D02*
X45245Y-48195D01*
X45359Y-48195D01*
X45387Y-48209D01*
X45402Y-48224D01*
X45416Y-48252D01*
X45416Y-48295D01*
X45402Y-48324D01*
X45387Y-48338D01*
X45359Y-48352D01*
X45245Y-48352D01*
X45473Y-48524D02*
X45702Y-48524D01*
X45916Y-48495D02*
X45773Y-48495D01*
X45773Y-48195D01*
X46016Y-48338D02*
X46116Y-48338D01*
X46159Y-48495D02*
X46016Y-48495D01*
X46016Y-48195D01*
X46159Y-48195D01*
X46287Y-48495D02*
X46287Y-48195D01*
X46359Y-48195D01*
X46402Y-48209D01*
X46430Y-48238D01*
X46445Y-48266D01*
X46459Y-48324D01*
X46459Y-48366D01*
X46445Y-48424D01*
X46430Y-48452D01*
X46402Y-48481D01*
X46359Y-48495D01*
X46287Y-48495D01*
G54D24*
X77016Y-50975D02*
X77026Y-50985D01*
X77035Y-51013D01*
X77035Y-51032D01*
X77026Y-51060D01*
X77007Y-51079D01*
X76988Y-51088D01*
X76951Y-51097D01*
X76923Y-51097D01*
X76885Y-51088D01*
X76866Y-51079D01*
X76848Y-51060D01*
X76838Y-51032D01*
X76838Y-51013D01*
X76848Y-50985D01*
X76857Y-50975D01*
X76923Y-50863D02*
X76913Y-50882D01*
X76904Y-50891D01*
X76885Y-50900D01*
X76876Y-50900D01*
X76857Y-50891D01*
X76848Y-50882D01*
X76838Y-50863D01*
X76838Y-50825D01*
X76848Y-50807D01*
X76857Y-50797D01*
X76876Y-50788D01*
X76885Y-50788D01*
X76904Y-50797D01*
X76913Y-50807D01*
X76923Y-50825D01*
X76923Y-50863D01*
X76932Y-50882D01*
X76941Y-50891D01*
X76960Y-50900D01*
X76998Y-50900D01*
X77016Y-50891D01*
X77026Y-50882D01*
X77035Y-50863D01*
X77035Y-50825D01*
X77026Y-50807D01*
X77016Y-50797D01*
X76998Y-50788D01*
X76960Y-50788D01*
X76941Y-50797D01*
X76932Y-50807D01*
X76923Y-50825D01*
G54D25*
X59224Y-59675D02*
X59224Y-58994D01*
X59387Y-58994D01*
X59427Y-59027D01*
X59448Y-59059D01*
X59468Y-59124D01*
X59468Y-59221D01*
X59448Y-59286D01*
X59427Y-59318D01*
X59387Y-59351D01*
X59224Y-59351D01*
X59611Y-58994D02*
X59876Y-58994D01*
X59733Y-59254D01*
X59794Y-59254D01*
X59835Y-59286D01*
X59855Y-59318D01*
X59876Y-59383D01*
X59876Y-59545D01*
X59855Y-59610D01*
X59835Y-59643D01*
X59794Y-59675D01*
X59672Y-59675D01*
X59631Y-59643D01*
X59611Y-59610D01*
G54D13*
X65468Y-59585D02*
X65449Y-59614D01*
X65392Y-59642D01*
X65354Y-59642D01*
X65297Y-59614D01*
X65259Y-59557D01*
X65240Y-59500D01*
X65220Y-59385D01*
X65220Y-59300D01*
X65240Y-59185D01*
X65259Y-59128D01*
X65297Y-59071D01*
X65354Y-59042D01*
X65392Y-59042D01*
X65449Y-59071D01*
X65468Y-59100D01*
X65716Y-59042D02*
X65792Y-59042D01*
X65830Y-59071D01*
X65868Y-59128D01*
X65887Y-59242D01*
X65887Y-59442D01*
X65868Y-59557D01*
X65830Y-59614D01*
X65792Y-59642D01*
X65716Y-59642D01*
X65678Y-59614D01*
X65640Y-59557D01*
X65620Y-59442D01*
X65620Y-59242D01*
X65640Y-59128D01*
X65678Y-59071D01*
X65716Y-59042D01*
X66059Y-59642D02*
X66059Y-59042D01*
X66287Y-59642D01*
X66287Y-59042D01*
X66478Y-59642D02*
X66478Y-59042D01*
X66706Y-59642D01*
X66706Y-59042D01*
X66801Y-59700D02*
X67106Y-59700D01*
X67182Y-59100D02*
X67201Y-59071D01*
X67240Y-59042D01*
X67335Y-59042D01*
X67373Y-59071D01*
X67392Y-59100D01*
X67411Y-59157D01*
X67411Y-59214D01*
X67392Y-59300D01*
X67163Y-59642D01*
X67411Y-59642D01*
X67792Y-59642D02*
X67563Y-59642D01*
X67678Y-59642D02*
X67678Y-59042D01*
X67640Y-59128D01*
X67601Y-59185D01*
X67563Y-59214D01*
X67868Y-59700D02*
X68173Y-59700D01*
X68440Y-59242D02*
X68440Y-59642D01*
X68344Y-59014D02*
X68249Y-59442D01*
X68497Y-59442D01*
X68725Y-59042D02*
X68763Y-59042D01*
X68801Y-59071D01*
X68820Y-59100D01*
X68840Y-59157D01*
X68859Y-59271D01*
X68859Y-59414D01*
X68840Y-59528D01*
X68820Y-59585D01*
X68801Y-59614D01*
X68763Y-59642D01*
X68725Y-59642D01*
X68687Y-59614D01*
X68668Y-59585D01*
X68649Y-59528D01*
X68630Y-59414D01*
X68630Y-59271D01*
X68649Y-59157D01*
X68668Y-59100D01*
X68687Y-59071D01*
X68725Y-59042D01*
G54D14*
G54D25*
X49975Y-41915D02*
X49294Y-41915D01*
X49294Y-41752D01*
X49327Y-41712D01*
X49359Y-41691D01*
X49424Y-41671D01*
X49521Y-41671D01*
X49586Y-41691D01*
X49618Y-41712D01*
X49651Y-41752D01*
X49651Y-41915D01*
X49359Y-41508D02*
X49327Y-41487D01*
X49294Y-41447D01*
X49294Y-41345D01*
X49327Y-41304D01*
X49359Y-41284D01*
X49424Y-41263D01*
X49489Y-41263D01*
X49586Y-41284D01*
X49975Y-41528D01*
X49975Y-41263D01*
G54D13*
X49885Y-50633D02*
X49914Y-50652D01*
X49942Y-50709D01*
X49942Y-50747D01*
X49914Y-50804D01*
X49857Y-50842D01*
X49800Y-50861D01*
X49685Y-50880D01*
X49600Y-50880D01*
X49485Y-50861D01*
X49428Y-50842D01*
X49371Y-50804D01*
X49342Y-50747D01*
X49342Y-50709D01*
X49371Y-50652D01*
X49400Y-50633D01*
X49342Y-50385D02*
X49342Y-50309D01*
X49371Y-50271D01*
X49428Y-50233D01*
X49542Y-50214D01*
X49742Y-50214D01*
X49857Y-50233D01*
X49914Y-50271D01*
X49942Y-50309D01*
X49942Y-50385D01*
X49914Y-50423D01*
X49857Y-50461D01*
X49742Y-50480D01*
X49542Y-50480D01*
X49428Y-50461D01*
X49371Y-50423D01*
X49342Y-50385D01*
X49942Y-50042D02*
X49342Y-50042D01*
X49942Y-49814D01*
X49342Y-49814D01*
X49942Y-49623D02*
X49342Y-49623D01*
X49942Y-49395D01*
X49342Y-49395D01*
X50000Y-48995D02*
X50000Y-48690D01*
X49942Y-48385D02*
X49942Y-48614D01*
X49942Y-48499D02*
X49342Y-48499D01*
X49428Y-48538D01*
X49485Y-48576D01*
X49514Y-48614D01*
X50000Y-48309D02*
X50000Y-48004D01*
X49400Y-47928D02*
X49371Y-47909D01*
X49342Y-47871D01*
X49342Y-47776D01*
X49371Y-47738D01*
X49400Y-47719D01*
X49457Y-47700D01*
X49514Y-47700D01*
X49600Y-47719D01*
X49942Y-47947D01*
X49942Y-47700D01*
X49342Y-47452D02*
X49342Y-47414D01*
X49371Y-47376D01*
X49400Y-47357D01*
X49457Y-47338D01*
X49571Y-47319D01*
X49714Y-47319D01*
X49828Y-47338D01*
X49885Y-47357D01*
X49914Y-47376D01*
X49942Y-47414D01*
X49942Y-47452D01*
X49914Y-47490D01*
X49885Y-47509D01*
X49828Y-47528D01*
X49714Y-47547D01*
X49571Y-47547D01*
X49457Y-47528D01*
X49400Y-47509D01*
X49371Y-47490D01*
X49342Y-47452D01*
G54D14*
G54D25*
X74855Y-47015D02*
X74174Y-47015D01*
X74174Y-46852D01*
X74207Y-46812D01*
X74239Y-46791D01*
X74304Y-46771D01*
X74401Y-46771D01*
X74466Y-46791D01*
X74498Y-46812D01*
X74531Y-46852D01*
X74531Y-47015D01*
X74401Y-46404D02*
X74855Y-46404D01*
X74142Y-46506D02*
X74628Y-46608D01*
X74628Y-46343D01*
G54D13*
X74765Y-40771D02*
X74794Y-40790D01*
X74822Y-40847D01*
X74822Y-40885D01*
X74794Y-40942D01*
X74737Y-40980D01*
X74680Y-40999D01*
X74565Y-41019D01*
X74480Y-41019D01*
X74365Y-40999D01*
X74308Y-40980D01*
X74251Y-40942D01*
X74222Y-40885D01*
X74222Y-40847D01*
X74251Y-40790D01*
X74280Y-40771D01*
X74222Y-40523D02*
X74222Y-40447D01*
X74251Y-40409D01*
X74308Y-40371D01*
X74422Y-40352D01*
X74622Y-40352D01*
X74737Y-40371D01*
X74794Y-40409D01*
X74822Y-40447D01*
X74822Y-40523D01*
X74794Y-40561D01*
X74737Y-40599D01*
X74622Y-40619D01*
X74422Y-40619D01*
X74308Y-40599D01*
X74251Y-40561D01*
X74222Y-40523D01*
X74822Y-40180D02*
X74222Y-40180D01*
X74822Y-39952D01*
X74222Y-39952D01*
X74822Y-39761D02*
X74222Y-39761D01*
X74822Y-39533D01*
X74222Y-39533D01*
X74880Y-39438D02*
X74880Y-39133D01*
X74422Y-38866D02*
X74822Y-38866D01*
X74194Y-38961D02*
X74622Y-39057D01*
X74622Y-38809D01*
X74822Y-38447D02*
X74822Y-38676D01*
X74822Y-38561D02*
X74222Y-38561D01*
X74308Y-38599D01*
X74365Y-38638D01*
X74394Y-38676D01*
X74880Y-38371D02*
X74880Y-38066D01*
X74222Y-37800D02*
X74222Y-37876D01*
X74251Y-37914D01*
X74280Y-37933D01*
X74365Y-37971D01*
X74480Y-37990D01*
X74708Y-37990D01*
X74765Y-37971D01*
X74794Y-37952D01*
X74822Y-37914D01*
X74822Y-37838D01*
X74794Y-37800D01*
X74765Y-37780D01*
X74708Y-37761D01*
X74565Y-37761D01*
X74508Y-37780D01*
X74480Y-37800D01*
X74451Y-37838D01*
X74451Y-37914D01*
X74480Y-37952D01*
X74508Y-37971D01*
X74565Y-37990D01*
X74222Y-37514D02*
X74222Y-37476D01*
X74251Y-37438D01*
X74280Y-37419D01*
X74337Y-37400D01*
X74451Y-37380D01*
X74594Y-37380D01*
X74708Y-37400D01*
X74765Y-37419D01*
X74794Y-37438D01*
X74822Y-37476D01*
X74822Y-37514D01*
X74794Y-37552D01*
X74765Y-37571D01*
X74708Y-37590D01*
X74594Y-37609D01*
X74451Y-37609D01*
X74337Y-37590D01*
X74280Y-37571D01*
X74251Y-37552D01*
X74222Y-37514D01*
G54D14*
G54D25*
X64204Y-29715D02*
X64204Y-29034D01*
X64367Y-29034D01*
X64407Y-29067D01*
X64428Y-29099D01*
X64448Y-29164D01*
X64448Y-29261D01*
X64428Y-29326D01*
X64407Y-29358D01*
X64367Y-29391D01*
X64204Y-29391D01*
X64835Y-29034D02*
X64632Y-29034D01*
X64611Y-29358D01*
X64632Y-29326D01*
X64672Y-29294D01*
X64774Y-29294D01*
X64815Y-29326D01*
X64835Y-29358D01*
X64856Y-29423D01*
X64856Y-29585D01*
X64835Y-29650D01*
X64815Y-29683D01*
X64774Y-29715D01*
X64672Y-29715D01*
X64632Y-29683D01*
X64611Y-29650D01*
G54D13*
X55448Y-29625D02*
X55429Y-29654D01*
X55372Y-29682D01*
X55334Y-29682D01*
X55277Y-29654D01*
X55239Y-29597D01*
X55220Y-29540D01*
X55200Y-29425D01*
X55200Y-29340D01*
X55220Y-29225D01*
X55239Y-29168D01*
X55277Y-29111D01*
X55334Y-29082D01*
X55372Y-29082D01*
X55429Y-29111D01*
X55448Y-29140D01*
X55696Y-29082D02*
X55772Y-29082D01*
X55810Y-29111D01*
X55848Y-29168D01*
X55867Y-29282D01*
X55867Y-29482D01*
X55848Y-29597D01*
X55810Y-29654D01*
X55772Y-29682D01*
X55696Y-29682D01*
X55658Y-29654D01*
X55620Y-29597D01*
X55600Y-29482D01*
X55600Y-29282D01*
X55620Y-29168D01*
X55658Y-29111D01*
X55696Y-29082D01*
X56039Y-29682D02*
X56039Y-29082D01*
X56267Y-29682D01*
X56267Y-29082D01*
X56458Y-29682D02*
X56458Y-29082D01*
X56686Y-29682D01*
X56686Y-29082D01*
X56781Y-29740D02*
X57086Y-29740D01*
X57353Y-29082D02*
X57277Y-29082D01*
X57239Y-29111D01*
X57220Y-29140D01*
X57181Y-29225D01*
X57162Y-29340D01*
X57162Y-29568D01*
X57181Y-29625D01*
X57200Y-29654D01*
X57239Y-29682D01*
X57315Y-29682D01*
X57353Y-29654D01*
X57372Y-29625D01*
X57391Y-29568D01*
X57391Y-29425D01*
X57372Y-29368D01*
X57353Y-29340D01*
X57315Y-29311D01*
X57239Y-29311D01*
X57200Y-29340D01*
X57181Y-29368D01*
X57162Y-29425D01*
X57772Y-29682D02*
X57543Y-29682D01*
X57658Y-29682D02*
X57658Y-29082D01*
X57620Y-29168D01*
X57581Y-29225D01*
X57543Y-29254D01*
X57848Y-29740D02*
X58153Y-29740D01*
X58305Y-29340D02*
X58267Y-29311D01*
X58248Y-29282D01*
X58229Y-29225D01*
X58229Y-29197D01*
X58248Y-29140D01*
X58267Y-29111D01*
X58305Y-29082D01*
X58381Y-29082D01*
X58420Y-29111D01*
X58439Y-29140D01*
X58458Y-29197D01*
X58458Y-29225D01*
X58439Y-29282D01*
X58420Y-29311D01*
X58381Y-29340D01*
X58305Y-29340D01*
X58267Y-29368D01*
X58248Y-29397D01*
X58229Y-29454D01*
X58229Y-29568D01*
X58248Y-29625D01*
X58267Y-29654D01*
X58305Y-29682D01*
X58381Y-29682D01*
X58420Y-29654D01*
X58439Y-29625D01*
X58458Y-29568D01*
X58458Y-29454D01*
X58439Y-29397D01*
X58420Y-29368D01*
X58381Y-29340D01*
X58705Y-29082D02*
X58743Y-29082D01*
X58781Y-29111D01*
X58800Y-29140D01*
X58820Y-29197D01*
X58839Y-29311D01*
X58839Y-29454D01*
X58820Y-29568D01*
X58800Y-29625D01*
X58781Y-29654D01*
X58743Y-29682D01*
X58705Y-29682D01*
X58667Y-29654D01*
X58648Y-29625D01*
X58629Y-29568D01*
X58610Y-29454D01*
X58610Y-29311D01*
X58629Y-29197D01*
X58648Y-29140D01*
X58667Y-29111D01*
X58705Y-29082D01*
G54D14*
X46842Y-34642D02*
X46242Y-34642D01*
X46242Y-34414D01*
X46271Y-34357D01*
X46300Y-34328D01*
X46357Y-34300D01*
X46442Y-34300D01*
X46500Y-34328D01*
X46528Y-34357D01*
X46557Y-34414D01*
X46557Y-34642D01*
X46242Y-34100D02*
X46242Y-33700D01*
X46842Y-33957D01*
X43642Y-31042D02*
X43642Y-30442D01*
X43871Y-30442D01*
X43928Y-30471D01*
X43957Y-30500D01*
X43985Y-30557D01*
X43985Y-30642D01*
X43957Y-30700D01*
X43928Y-30728D01*
X43871Y-30757D01*
X43642Y-30757D01*
X44185Y-30442D02*
X44328Y-31042D01*
X44442Y-30614D01*
X44557Y-31042D01*
X44700Y-30442D01*
X45271Y-31042D02*
X45071Y-30757D01*
X44928Y-31042D02*
X44928Y-30442D01*
X45157Y-30442D01*
X45214Y-30471D01*
X45242Y-30500D01*
X45271Y-30557D01*
X45271Y-30642D01*
X45242Y-30700D01*
X45214Y-30728D01*
X45157Y-30757D01*
X44928Y-30757D01*
X45385Y-31100D02*
X45842Y-31100D01*
X46328Y-30985D02*
X46300Y-31014D01*
X46214Y-31042D01*
X46157Y-31042D01*
X46071Y-31014D01*
X46014Y-30957D01*
X45985Y-30900D01*
X45957Y-30785D01*
X45957Y-30700D01*
X45985Y-30585D01*
X46014Y-30528D01*
X46071Y-30471D01*
X46157Y-30442D01*
X46214Y-30442D01*
X46300Y-30471D01*
X46328Y-30500D01*
X46700Y-30442D02*
X46814Y-30442D01*
X46871Y-30471D01*
X46928Y-30528D01*
X46957Y-30642D01*
X46957Y-30842D01*
X46928Y-30957D01*
X46871Y-31014D01*
X46814Y-31042D01*
X46700Y-31042D01*
X46642Y-31014D01*
X46585Y-30957D01*
X46557Y-30842D01*
X46557Y-30642D01*
X46585Y-30528D01*
X46642Y-30471D01*
X46700Y-30442D01*
X47214Y-31042D02*
X47214Y-30442D01*
X47557Y-31042D01*
X47557Y-30442D01*
M02*
